<?xml version="1.0" encoding="UTF-8"?>
<svg width="700pt" height="700pt" version="1.1" viewBox="0 0 700 700" xmlns="http://www.w3.org/2000/svg">
 <path d="m294.45 293.46c-0.17969 0.35938-0.46875 0.83203-0.50781 0.90625v0.003907c-0.24609 0.65625-0.41406 1.3398-0.51172 2.0352-0.19922 1.2148-0.91406 2.2891-1.9609 2.9414-0.73828 1.4531-2.1641 2.4375-3.7852 2.6055-1.625 0.16797-3.2227-0.49609-4.2422-1.7695-2.2852-2.8633-5.832-4.4141-9.4844-4.1445 2.3242 3.2344 4.7578 6.3945 7.3008 9.4844v-0.003906c0.33594-0.070313 0.67578-0.10938 1.0156-0.10938 16.203 0.10938 32.336 1.3438 48.508 1.7109-0.10938-5.4688-0.1875-10.867-0.078125-16.281l0.003906 0.003906c-3.6797 1.625-6.8711 4.1797-9.2656 7.4102-0.40234 2.2617-2.1367 4.0586-4.3867 4.5352-2.2461 0.48047-4.5625-0.44531-5.8555-2.3477-3.5391-4.9219-9.2539-7.8086-15.312-7.7383-0.19141-0.011719-0.38672-0.039063-0.57422-0.078125-0.23828 0.32422-0.53125 0.60938-0.86328 0.83594zm-25.289 183.08c1.1797 0.074219 2.293 0.57812 3.125 1.418-1.9258 0.50781-10.391 0.46875-10.641 3.1211h-0.003906c3.6289 0.29297 7.2227 0.89062 10.754 1.7852-1.6602 0.86328-3.4766 1.3945-5.3398 1.5586-2.1484 0.25-4.2734 0.66406-6.3594 1.2344-2.543 0.83594-5.125 1.4531-7.6562 2.3281-0.96484 0.30859-1.9102 0.67188-2.832 1.0938-0.28906 0.10938-0.57031 0.24219-0.83594 0.40234-0.57031 0.28516-1.0117 0.77734-1.2383 1.375 0.42578 0.22656 0.89844 0.35156 1.3789 0.36719 0.26953 0.03125 0.53906 0.078125 0.80469 0.14453 0.85156 0.125 1.6836 0.36719 2.4648 0.72656l3.418 1.4531-2.9961 1.9258c-0.40625 0.29297-0.79297 0.60938-1.1641 0.94531-0.26172 0.17969-0.49609 0.39844-0.69141 0.65234-0.48438 0.43359-0.75 1.0625-0.72656 1.7109 0.1875 0.52344 0.64844 0.90234 1.1992 0.98047 0.027344-0.10937 0.078126-0.20703 0.14844-0.29297 0.46094-0.67578 1.0547-1.2578 1.7422-1.7031 0.96875-0.65625 2.0039-1.2031 3.0859-1.6406 1.7266-0.70703 3.5-1.3047 5.3047-1.7852 2.6055-0.72656 5.25-1.2969 7.9219-1.707 4.1016-0.61719 6.0664-0.39844 6.0664 0.039063s-1.6406 1.0156-5.4688 2.3555c-1.9258 0.65625-4.375 1.4922-7.3789 2.6914-2.125 0.62109-4.0781 1.7266-5.7031 3.2344-1.6367 2.1133-3.0703 4.375-4.2852 6.7578-0.6875 1.5898-1.082 3.2891-1.1602 5.0156 1.4453-0.87109 2.9805-1.5898 4.5781-2.1445 1.0469-0.61328 2.2344-0.9375 3.4492-0.94531-0.50781 1.2344-0.90625 2.543-1.3789 3.8281l-0.40625 1.125c0 0.10937-0.03125 0.21875-0.03125 0.32422-0.027344 0.10938-0.003907 0.22266 0.070312 0.3125 0.070312 0.085938 0.17969 0.13281 0.29297 0.125 0.54688-0.10938 1.0938-0.17969 1.6719-0.25 1.6836-0.28516 3.4062-0.27344 5.0859 0.03125l2.9805 0.58594-0.6875 3.2812c-0.085938 0.21875-0.11328 0.45703-0.078125 0.6875-0.03125 0.1875 0.10938 0.29688 0.28906 0.1875 0.082031-0.035156 0.15625-0.085938 0.21875-0.14844l0.58594-0.35938c1.1602-0.72656 2.6523-1.5625 4.1797-2.4023l3.5586-1.9648 1.0156 4.1797c0.070313 0.29688 0.070313 0.32812 0.10938 0.4375 0.039063 0.10938 0.070313 0.070313 0.17969-0.03125h0.003906c0.074219-0.058593 0.13672-0.13672 0.17969-0.21875l1.2344-1.3828 1.0938-1.668v-0.003906c3.0352-5.5234 6.457-10.824 10.25-15.859 1.3555-1.3398 2.7969-2.5898 4.3203-3.7383 1.5508-0.99219 3.1641-1.8789 4.832-2.6523 3.293-1.4922 6.6797-2.7695 10.137-3.8281 3.3477-1.0938 6.9062-2.2148 10.609-3.2305 1.9297-0.39844 3.8867-0.83594 5.8125-1.2695 1.0156-0.10938 2.0352-0.1875 3.0508-0.25781-2.9961-2.5703-5.5781-5.582-7.6562-8.9375-8.9297-3.375-18.5-4.7188-28.012-3.9258-4.8242 0.21484-9.6094 0.94922-14.277 2.1875-1.3438 0.56641-2.7461 0.99219-4.1797 1.2695-1.9922 0.26953-4.0039 0.42969-6.0156 0.46875zm161.68 0c-2.0117-0.042968-4.0234-0.20312-6.0156-0.47656-1.4219-0.26953-2.8125-0.69531-4.1406-1.2656-4.6797-1.2383-9.4805-1.9688-14.316-2.1875-9.5117-0.79297-19.082 0.55078-28.012 3.9258-2.0703 3.3516-4.6445 6.3633-7.6289 8.9336 1.0156 0.070312 2.0352 0.14844 3.0508 0.25781 1.957 0.43359 3.8828 0.87109 5.8125 1.2695 3.7031 1.0156 7.2617 2.1445 10.609 3.2305 3.457 1.0586 6.8438 2.3398 10.137 3.8281 1.668 0.77734 3.2812 1.6641 4.832 2.6523 1.5234 1.1523 2.9648 2.3984 4.3203 3.7422 3.8047 5.0273 7.2305 10.328 10.25 15.859l1.0938 1.668 1.2344 1.3828c0.054688 0.089843 0.13281 0.16406 0.21875 0.21875 0.070313 0.10547 0.14062 0.14062 0.14062 0.03125l0.003907 0.003906c0.0625-0.14062 0.097656-0.28906 0.10937-0.4375l1.0156-4.1797 3.5586 1.9648c1.5273 0.83594 3.0195 1.6719 4.1797 2.4023l0.61719 0.35938c0.050782 0.074219 0.12891 0.125 0.21875 0.14453 0.17969 0.10938 0.28906 0 0.28906-0.1875v0.003907c0-0.23047-0.023438-0.46484-0.070313-0.69141l-0.72656-3.2812 2.9805-0.58594v0.003906c1.6797-0.30469 3.4023-0.31641 5.0859-0.035156 0.57812 0.070312 1.125 0.14062 1.6719 0.25 0.28906 0.039062 0.39844-0.21875 0.35938-0.4375 0-0.10547-0.03125-0.21484-0.03125-0.32422l-0.40625-1.125c-0.43359-1.2734-0.87109-2.582-1.3398-3.8281l0.003906 0.003906c1.2109 0.011719 2.4023 0.33594 3.4492 0.94531 1.5898 0.56641 3.125 1.2852 4.5781 2.1445-0.10938-1.7305-0.51562-3.4258-1.1992-5.0156-1.2148-2.3828-2.6484-4.6445-4.2852-6.7617-1.625-1.5039-3.5781-2.6133-5.7031-3.2305-2.9805-1.1992-5.4688-2.0352-7.3789-2.6914-3.8281-1.3398-5.4688-1.957-5.4688-2.3555 0-0.39844 1.9648-0.65625 6.0664-0.039062 2.6719 0.41016 5.3164 0.98047 7.9219 1.707 1.8164 0.48047 3.5977 1.0742 5.3398 1.7812 1.0664 0.44531 2.0898 0.99609 3.0508 1.6406 0.69531 0.4375 1.2891 1.0195 1.7422 1.707 0.070312 0.089843 0.12891 0.1875 0.18359 0.28906 0.53516-0.085938 0.98437-0.46484 1.1641-0.97656 0.023438-0.64453-0.22656-1.2656-0.69141-1.7148-0.21094-0.23438-0.44141-0.44922-0.6875-0.64844-0.1875-0.14844-0.83594-0.6875-1.2031-0.94531l-3.0117-1.9258 3.3789-1.4531v-0.003907c0.79297-0.35938 1.6367-0.60547 2.5039-0.72656 0.25-0.070313 0.50781-0.11719 0.76563-0.14062 0.48047-0.015625 0.95312-0.14062 1.3789-0.36719-0.070313-0.54688-0.72656-1.0938-1.1992-1.3789-0.28906-0.14844-0.50781-0.25781-0.83594-0.39844-0.90625-0.39844-1.8555-0.76562-2.832-1.0938-2.543-0.875-5.125-1.4922-7.6562-2.3281-2.0859-0.57422-4.2109-0.98828-6.3594-1.2383-1.8672-0.16406-3.6797-0.69141-5.3398-1.5586 3.5312-0.88672 7.125-1.4805 10.754-1.7812-0.25-2.6523-8.7188-2.6133-10.641-3.1211l-0.003907-0.003907c0.82813-0.83594 1.9375-1.3359 3.1133-1.4102zm-25.289-183.08c-0.32031-0.23047-0.60547-0.51172-0.83594-0.83594-0.20312 0.039062-0.41016 0.0625-0.61719 0.070312-6.0469-0.074218-11.746 2.8164-15.258 7.7383-1.2969 1.9102-3.6211 2.8438-5.875 2.3633-2.2578-0.48047-4-2.2773-4.4062-4.5508-2.3945-3.2305-5.5859-5.7812-9.2656-7.4102 0.10938 5.4141 0.03125 10.828-0.078125 16.281 16.172-0.36719 32.336-1.6016 48.508-1.7109h0.003906c0.33984 0 0.67969 0.035156 1.0156 0.10938 2.5508-3.0898 4.9844-6.25 7.3008-9.4844-3.6406-0.27344-7.1797 1.2812-9.4453 4.1484-1.0195 1.2695-2.6172 1.9375-4.2422 1.7695-1.6211-0.17187-3.0469-1.1523-3.7852-2.6094-1.0586-0.64844-1.7852-1.7188-2-2.9414-0.10156-0.6875-0.25781-1.3711-0.47266-2.0352-0.20703-0.28125-0.39062-0.58594-0.54688-0.90234zm148.67 47.848c0.17969 0.17969-0.4375 0-0.39844-0.070313-0.12109 0.023437-0.24219 0.035156-0.36328 0.039063 0 0.015624-0.015626 0.03125-0.035157 0.03125-0.10938 0.039062-0.47656 0.36719-0.54688 0.36719-0.15625 0.14844-0.30078 0.30469-0.4375 0.46875-0.10938 0.10938-0.32422 0.46875-0.39844 0.54688-0.078125 0.078125-0.32812 0.65234-0.32812 0.6875v0.003906c-0.10547 0.23438-0.1875 0.47656-0.25 0.72656-0.039063 0.21875-0.070313 0.25-0.070313 0.32812l-0.003906 0.097656c0 0.10938 0.03125 0.39844 0.03125 0.57812 0.14844 0.070313 0.28906 0.17969 0.039063 0.10938v0.039062c0.50781 0.14063-0.070313 0.03125 0.46875 0.03125l0.003906 0.003907c0.66406 0.070312 1.293 0.32031 1.8203 0.72656 0.6875-1.0508 1.3086-2.1445 1.957-3.2305-0.070313-0.10937-0.17969-0.17969-0.25-0.28906v-0.003906c-0.22656-0.29297-0.48047-0.55859-0.76563-0.79688-0.32812-0.32422-0.10937-0.21484-0.46875-0.39453zm-25.469-15.586h0.003906c0.26953-0.22266 0.52344-0.46484 0.75781-0.72656 0.17969-0.17969 0.32812-0.32813 0.50781-0.54688l0.039062-0.039062c0.039062-0.039062 0-0.039062 0.039062-0.070312 0.28906-0.38281 0.53125-0.79688 0.72266-1.2383l0.039062-0.039062v-0.039063 0.003907c0.074219-0.20313 0.13281-0.41016 0.17969-0.61719v-0.47266c-0.0625-0.070313-0.13672-0.13281-0.21875-0.17969-0.10938-0.070312-0.21484-0.10938-0.32422-0.17969-0.16016-0.050781-0.32031-0.11328-0.47266-0.1875-0.53906-0.14453-1.0898-0.25-1.6406-0.32031-0.10938-0.039062-0.1875-0.10938-0.29688-0.14844-0.94141 1.0938-1.8477 2.1875-2.793 3.2305 0.039063 0.078124 0.070313 0.078124 0.070313 0.14844 0.070312 0.32812 0.14844 0.6875 0.21875 1.0547 0.082031 0.14844 0.14062 0.30469 0.17969 0.47266-0.03125-0.039063-0.070313-0.070313-0.070313-0.10938 0.039063 0.050781 0.0625 0.11328 0.070313 0.17969l0.039063 0.039063c0.0625 0.17969 0.14453 0.34766 0.25 0.50781 0.019531 0.039063 0.042968 0.078125 0.078124 0.10938 0.050782 0.058594 0.10938 0.10547 0.17969 0.14062 0.039062 0 0.039062 0.039063 0.070312 0.039063s0.039063 0.039062 0.078126 0.039062h0.14062c0.054688 0.003907 0.10547-0.007812 0.14844-0.039062 0.16016-0.023438 0.31641-0.0625 0.46875-0.10938 0.11328-0.039063 0.22266-0.085938 0.32812-0.14062 0.125-0.054688 0.24609-0.11719 0.36328-0.1875 0.12109-0.066407 0.66016-0.46484 0.84766-0.57422zm39.816-36.367c0-0.078124 8.1055 0.25 8.3242-1.8555-1.8906-1.1641-3.7773-2.293-5.6016-3.3398-0.98047-0.61719-3.1953-2-6.1367-3.7773-1.418-0.47656-8.7227-2.6914-7.1953 1.0938h0.003906c0.77734 2.0859 2.1875 3.8789 4.0352 5.1211 2.0039 1.3164 4.2344 2.25 6.5742 2.7578zm-437.15 0h0.003906c2.3398-0.49219 4.5625-1.4219 6.5625-2.7344 1.8477-1.2422 3.2617-3.0352 4.0352-5.125 1.5273-3.7773-5.7812-1.5625-7.1953-1.0938-2.9414 1.7773-5.1562 3.1602-6.1367 3.7773-1.8203 1.0508-3.668 2.1875-5.6016 3.3398 0.23047 2.0859 8.3359 1.7812 8.3359 1.8359zm39.816 36.367c0.1875 0.10938 0.76562 0.50781 0.90625 0.57812h0.007813c0.097656 0.078125 0.21094 0.14062 0.32812 0.1875 0.10547 0.054687 0.21484 0.10547 0.32812 0.14062 0.15234 0.050781 0.30859 0.085938 0.46875 0.10938 0.042968 0.027344 0.097656 0.042969 0.14844 0.039063h0.14062c0.039063 0 0.039063-0.039063 0.078125-0.039063 0.039063 0 0.03125-0.039063 0.070313-0.039063v0.003907c0.074218-0.027344 0.14062-0.078125 0.17969-0.14453h0.039063c0-0.039063 0-0.039063 0.039062-0.10938 0.10547-0.15625 0.1875-0.32812 0.25-0.50781 0-0.019531 0.019532-0.039062 0.039063-0.039062 0.007812-0.066407 0.03125-0.12891 0.070312-0.17969 0 0.039062-0.039062 0.070312-0.070312 0.10938 0.039062-0.16406 0.097656-0.32422 0.17969-0.46875 0.10938-0.36719 0.14844-0.72656 0.21875-1.0547l0.070313-0.14844-2.793-3.2305v-0.003906c-0.09375 0.054687-0.19531 0.10547-0.29688 0.14844-0.55078 0.074219-1.0977 0.18359-1.6406 0.32422-0.15234 0.074219-0.3125 0.13281-0.47266 0.18359-0.10156 0.054687-0.19922 0.11328-0.29297 0.17969-0.09375 0.039063-0.17969 0.10156-0.25 0.18359v0.46875c0.046875 0.21094 0.10547 0.41797 0.17969 0.61719l0.039063 0.039062v0.039063c0.20703 0.42969 0.44922 0.84375 0.72266 1.2344 0.039063 0.03125 0 0.03125 0.039063 0.070312l0.039062 0.039063c0.17969 0.21484 0.32812 0.35938 0.50781 0.54688 0.17969 0.1875 0.50781 0.47656 0.72656 0.6875v0.003906c0.007813 0.007812 0.007813 0.019531 0.003907 0.03125zm-24.676 15.531c-0.125 0-0.24609-0.015625-0.36719-0.039062 0.070313 0.070312-0.57812 0.25-0.39844 0.070312-0.35938 0.17969-0.14062 0.070312-0.4375 0.36719-0.30078 0.23047-0.57031 0.49609-0.79688 0.80078-0.070312 0.10938-0.17969 0.17969-0.25 0.28906 0.65234 1.0938 1.2695 2.1875 1.957 3.2305h-0.003906c0.53125-0.40625 1.1602-0.65625 1.8242-0.72656 0.54688 0 0 0.10937 0.46875-0.03125v-0.039063c-0.25 0.070313-0.10938-0.039063 0.039062-0.10938 0.015625-0.17578 0.019532-0.35547 0.011719-0.53125v-0.070312c0-0.078126-0.03125-0.10938-0.070313-0.32813h-0.003906c-0.050781-0.25-0.125-0.49219-0.21875-0.72656-0.03125-0.039062-0.28906-0.57812-0.35938-0.6875v-0.003906c-0.11719-0.19141-0.25-0.375-0.39844-0.54688-0.13672-0.16406-0.28125-0.32031-0.4375-0.46875-0.039063 0-0.4375-0.32812-0.54688-0.36719-0.054688 0.007813-0.066407-0.074219-0.011719-0.082031zm530.88 11.008c0.41016 1.3477 0.25391 2.8008-0.42969 4.0312-10.25 19.402-18.676 38.332-30.301 56.641h-0.003906c0.13672 0.19141 0.24609 0.39844 0.32812 0.61719 6.4297 16.352 46.105 62.891 24.961 80.078-0.49609 0.38672-1.0508 0.69141-1.6406 0.91016-0.14844 0.070313-0.25781 0.17969-0.39844 0.25781-24.449 11.625-47.883 11.84-74.555 13.184-32.918 1.6406-65.832 3.5977-98.789 4.4336-3.2266 18.195-9.8711 35.613-19.582 51.336-2.3906 3.9922-5.2734 7.6641-8.5781 10.938-0.28906 0.32812-0.54688 0.65234-0.83594 0.98047-0.30469 0.33984-0.65625 0.63672-1.0508 0.875-1.1641 1.125-2.3633 2.2148-3.6367 3.2812 10.688 18.895-10.352 30.16-25.867 34.77-0.10938 0.039062-0.21875 0.039062-0.28906 0.078125v-0.003907c-2.1133 2.3594-4.6484 4.293-7.4805 5.7109-10.859 5.4688-24.121 4.1055-35.859 3.9961-6.0938-0.21875-12.191 0.18359-18.203 1.1992-5.8398 2.082-11.828 3.7305-17.91 4.9219-8.6562 0.96875-17.418 0-25.648-2.832-20.82-8.9023-51.668 5.9219-68.453-12.934-0.070312-0.039062-0.17969-0.039062-0.25781-0.078124-15.547-4.6094-36.586-15.859-25.898-34.77-1.2734-1.0938-2.4727-2.1875-3.6367-3.2812-0.38672-0.24609-0.73828-0.53906-1.0508-0.875-0.29688-0.32812-0.54688-0.65234-0.83594-0.98047-3.3047-3.2695-6.1875-6.9453-8.5781-10.938-9.7109-15.734-16.352-33.172-19.566-51.383-32.953-0.83594-65.871-2.8008-98.789-4.4336-26.672-1.3438-50.105-1.5586-74.555-13.184-0.14063-0.078126-0.25-0.1875-0.39844-0.25781v-0.003906c-0.58984-0.21484-1.1445-0.51953-1.6406-0.90625-21.141-17.172 18.535-63.715 24.965-80.066 0.082031-0.22266 0.19531-0.42969 0.32812-0.62109-11.625-18.309-20.02-37.246-30.301-56.637-0.66797-1.2344-0.82422-2.6836-0.43359-4.0312-0.52734-2.2344 0.33203-4.5703 2.1875-5.9219 7.4453-5.9297 15.262-11.379 23.402-16.316 0.56641-0.75781 1.4219-1.2578 2.3633-1.3828 0.085937-0.027344 0.17188-0.0625 0.25-0.10938 10.082-5.4844 20.508-10.316 31.211-14.457 0-0.25 0.035157-0.49219 0.10938-0.73047-0.039062-0.875 0.13672-1.7461 0.50781-2.543 8.9727-19.875 33.027-32.008 51.117-42.18 11.008-6.2109 36.227-25.289 47.672-12.793v0.003906c0.86328 0.90625 1.3789 2.0938 1.4531 3.3438 0.57812 1.0156 1.125 2.0352 1.6406 3.0117v0.003907c0.37891 0.66016 0.49609 1.4414 0.32812 2.1875 3.8281 11.086 12.355 19.949 19.035 29.395 0.39844 0.54688 0.76563 1.1641 1.1641 1.707 0.10938-0.14062 0.17969-0.32812 0.28906-0.50781-8.6445-17.871-16.055-35.969-22.969-52.242-14.531-34.262-30.406-66.418-57.875-92.285l0.003906-0.003906c-12.984-12.316-28.27-21.945-44.98-28.34-10.391-3.9258-17.621-8.9414-21.109-19.73-0.44531-1.6367-0.10547-3.3867 0.91797-4.7383 1.0234-1.3477 2.6172-2.1484 4.3125-2.1641 23.203-1.1992 46.246-4.4922 68.852-9.8438 17.871-3.6367 34.004-13.41 52.102-15.695 24.523-3.1289 47.703 4.5391 56.383 27.891 10.324-2.4531 21.051-2.6758 31.469-0.65625 13.988 2.4023 21.18 14.605 33.496 19.984 3.9609 1.707 3.1289 7.4492 0 9.4102-17.949 11.156-39.129 18.816-51.227 37.133-9.8438 14.93-10.469 35-9.1211 52.719 2.4336-2.1445 4.9766-4.1445 7.4883-6.0703h-0.003906c6.4141-5.1523 13.617-9.2383 21.328-12.094-1.707-6.3594-0.1875-13.148 4.0703-18.168-5.1641-11.008 1.418-23.395 7.7383-32.336 2.0664-2.9414 7.6289-4.1055 9.4062 0 0.48047 1.082 0.88281 2.1992 1.2031 3.3398 4.3633-2.8008 9.3867-4.4062 14.57-4.6484 0.64453-9.9102 4.3633-19.371 10.641-27.07 1.3906-1.3438 3.3828-1.8594 5.25-1.3633 1.8711 0.5 3.3398 1.9453 3.8711 3.8008 1.4883 6.5625 3.2812 13.125 5.0469 19.617 9.0078-2.3086 18.523-1.5781 27.07 2.0742 1.8867-7.2305 3.9219-14.426 5.5938-21.688l0.003907-0.003907c0.53125-1.8555 2-3.3008 3.8711-3.8008 1.8672-0.49609 3.8594 0.019531 5.25 1.3633 6.2734 7.6992 9.9961 17.16 10.641 27.07 5.1797 0.24219 10.207 1.8477 14.57 4.6484 0.31641-1.1406 0.71875-2.2578 1.2031-3.3398 1.7773-4.1055 7.3398-2.9414 9.4062 0 6.3203 8.9414 12.902 21.328 7.7773 32.336 4.2617 5.0156 5.7695 11.816 4.0273 18.168 7.7148 2.8555 14.918 6.9414 21.328 12.094 2.5117 1.9258 5.0547 3.9258 7.4883 6.0703 1.3438-17.695 0.72656-37.789-9.1211-52.719-12.098-18.316-33.277-25.977-51.227-37.133-3.1289-1.9648-3.9609-7.707 0-9.4102 12.316-5.375 19.508-17.582 33.496-19.984 10.418-2.0234 21.145-1.7969 31.469 0.65625 8.6797-23.363 31.859-31.031 56.383-27.891 18.098 2.2852 34.23 12.059 52.141 15.695h-0.003906c22.594 5.3555 45.625 8.6484 68.812 9.8438 1.6953 0.015625 3.2891 0.81641 4.3164 2.1641 1.0234 1.3516 1.3633 3.1016 0.91797 4.7383-3.4492 10.789-10.68 15.805-21.109 19.73-16.711 6.3945-31.996 16.023-44.98 28.34-27.469 25.867-43.344 58.023-57.875 92.285-6.9062 16.273-14.316 34.371-22.969 52.242 0.10937 0.17969 0.17969 0.36719 0.28906 0.50781 0.39844-0.54688 0.76562-1.1602 1.1641-1.707 6.7109-9.4141 15.227-18.277 19.055-29.363-0.16797-0.74609-0.050781-1.5273 0.32812-2.1875 0.54688-0.98047 1.0938-1.9961 1.6406-3.0117v-0.003906c0.074219-1.25 0.58984-2.4375 1.4531-3.3438 11.445-12.496 36.641 6.5625 47.672 12.793 18.09 10.172 42.141 22.309 51.117 42.18v-0.003906c0.36328 0.80078 0.55078 1.668 0.54687 2.543l0.10938 0.72656v0.003906c10.688 4.1484 21.102 8.9805 31.172 14.457 0.078126 0.046875 0.16406 0.082031 0.25 0.10938 0.94922 0.13281 1.8125 0.62891 2.4023 1.3828 8.1211 4.9453 15.922 10.395 23.363 16.316 1.8555 1.3398 2.7266 3.6641 2.2148 5.8945zm-11.113 0.98047c-2.3281-1.707-4.6914-3.3789-7.0508-5.0156-8.4336 17.91-20.566 32.773-31.031 49.629-10.281 16.57-20.344 32.516-35.68 44.91-0.14844 0.14062-0.32812 0.21875-0.50781 0.35938 0.17969 0.28906 0.4375 0.58594 0.61719 0.90625 12.465 18.965 19.945-0.10938 27.102-10.969 8.2461-12.535 17.551-24.418 25.508-37.188 8.4492-13.547 13.828-28.402 21.023-42.59zm-0.76562 131.16c6.5625-10.715-16.203-45.23-25.578-61.363-0.875 1.3125-1.7812 2.6523-2.6523 4.0352h0.003906c-0.003906 0.039063 0.007812 0.078125 0.039062 0.10938 3.3516 21.641 15.234 40.02 28.168 57.242zm-16.676 6.7969c2.2148-0.61719 4.4297-1.3438 6.6445-2.1445-2.5508-3.3789-5.0234-6.832-7.4102-10.359l0.003906 0.003906c-0.73438 0.42969-1.5508 0.70312-2.3945 0.80469-1.1641 0.10938-2.3281 0.25-3.4883 0.35938 1.9727 3.918 4.1875 7.7109 6.625 11.359zm1.2695-148.96c-0.90625-0.57812-1.8555-1.125-2.793-1.6719-1.4922 2.4023-2.9492 4.7969-4.4336 7.2305 1.3477 0.31641 2.6055 0.9375 3.668 1.8203 1.2539-2.3789 2.4141-4.8125 3.5391-7.3555zm-6.8125 13.242c-0.25781-0.20312-0.48828-0.4375-0.69141-0.69531-0.375-0.42969-0.92188-0.66797-1.4883-0.64844-0.60156-0.039062-1.1797-0.24219-1.6758-0.58594-1.1992 1.9297-2.3555 3.8867-3.5586 5.8125 1.2109 0.60547 2.3789 1.3008 3.4883 2.0742 0.039063 0.039063 0.070313 0.10938 0.14844 0.14844 1.3086-2.0312 2.543-4.0664 3.7773-6.1055zm-6.2109 114.08c1.5977-0.14844 3.1602-0.32812 4.7188-0.50781-5.4766-8.918-9.75-18.52-12.715-28.559-1.5273 2.4648-3.0898 4.9219-4.7266 7.2617l0.003907 0.003906c5.0117 6.7773 9.2773 14.078 12.719 21.773zm1.4883-127.38 3.0508-4.9219c-2.6914-1.5273-5.4141-2.9805-8.1758-4.375-0.79688 1.418-1.5977 2.7344-2.4336 4.1445 2.875 1.1133 5.4609 2.8672 7.5586 5.125zm-7.3398 31.648c1.5977-2.293 3.1602-4.543 4.7266-6.832-1.1211-0.79297-2.3008-1.4961-3.5273-2.1094-1.5273 2.4023-3.0859 4.7969-4.7188 7.1094 1.1953 0.53125 2.3555 1.1484 3.5195 1.8047zm-1.418-17.551c1.7461-2.7617 3.4492-5.5234 5.1562-8.3242l0.003906 0.003906c-1.9062-2.5938-4.6328-4.4648-7.7383-5.3047-1.8555 2.6211-3.7422 5.1953-5.7031 7.7383h-0.003907c2.918 1.7227 5.6875 3.6836 8.2852 5.8594zm7.7383 137.56c-2.4531-4.1094-4.6953-8.3398-6.7188-12.676-5.2656 0.65234-10.57 1.2695-15.805 1.9258 1.5078 3.5586 3.5352 6.875 6.0156 9.8438 0.72656 0.82422 1.1953 1.8477 1.3438 2.9414 5.1016-0.47266 10.152-1.1289 15.164-2.0352zm-26.484-21.18c4.9219-0.57813 9.8828-1.1992 14.859-1.8164-2.3555-4.9648-5.1523-9.707-8.3555-14.168-1.2227 1.4023-2.5195 2.7344-3.8906 3.9961-1.6484 1.5742-3.4844 2.9414-5.4688 4.0703 1.0039 2.5742 1.9492 5.2656 2.8555 7.918zm11.734-135.27c1.6406-2.4336 3.2812-4.8711 4.7578-7.4141-3.9609-1.8867-8.0664-3.6328-12.246-5.2656h0.003906c-0.87109 2.3203-1.8789 4.5859-3.0117 6.7891 3.9102 1.1211 7.5039 3.1367 10.5 5.8906zm4.7188 41.742h0.003906c-1.1406-0.71875-2.3594-1.3047-3.6328-1.7422-1.5273 2.0742-3.1211 4.1055-4.7266 6.0703-0.54688 0.65234-1.0938 1.3438-1.6406 1.9961h0.003906c1.3984 0.75391 2.7344 1.6133 3.9961 2.582 0.070313-0.14453 0.15625-0.27734 0.25781-0.40234 1.8906-2.9062 3.8164-5.7031 5.7422-8.5039zm-7.418-8.0664c2.1445-3.0508 4.1797-6.1367 6.2188-9.2656v0.003906c-2.7656-2.3477-5.7461-4.4258-8.9023-6.2148-2.2148 2.8008-4.375 5.5625-6.5625 8.3555v0.003906c3.6211 1.5742 6.7969 4.0195 9.2461 7.1172zm-1.9961 22.312c-0.29688-0.13672-0.57812-0.30859-0.83594-0.50781-1.2344-0.89453-2.5781-1.6289-4-2.1875-2.6523 3.2305-5.3047 6.4648-7.918 9.7031 0.070312 0.03125 0.14844 0.03125 0.17969 0.070313 1.7812 1.3438 3.5273 2.8008 5.2734 4.1797 2.4375-3.7031 4.8398-7.4844 7.2734-11.258zm-6.3867-41.73c2.4375-3.0195 4.8711-6.0156 7.1953-9.082-2.543-2.0352-6.3203-5.5625-9.8438-4.7266-0.14453 0.019531-0.28906 0.019531-0.42969 0-2.0312 3.0938-4.2383 6.0664-6.6133 8.9023 3.3828 1.3125 6.6289 2.9531 9.6914 4.9062zm4.6875 24.484c-0.60547-0.24609-1.1211-0.66016-1.4883-1.1992-2.1133-2.6289-4.918-4.6172-8.1016-5.7422-0.98438 1.3438-2 2.6914-2.9492 4.0742-1.4492 2.1055-2.9766 4.1797-4.4688 6.2461h0.003906c3.2422 1.9297 6.1797 4.3242 8.7227 7.1094 0.21875-0.28906 0.46875-0.57812 0.6875-0.87109 0.25391-0.83984 0.82812-1.543 1.5977-1.9609 0.14844-0.19141 0.30859-0.375 0.47656-0.54688 1.8867-2.293 3.7461-4.6875 5.5195-7.0898zm-21.762-253.6c8.0977-4.7266 23.871-8.9727 31.938-16.492-31.938-1.6797-63.41-8.3672-93.27-19.82-24.062-9.5547-57.805-10.828-65.625 19.84-0.83984 2.918-3.8633 4.6211-6.793 3.8281-11.402-4.3242-23.938-4.6445-35.547-0.90625-6.6406 3.5-12.816 7.8203-18.379 12.863 19.617 10.43 40.254 20.164 49.301 40.402 8.7461 20.656 11.43 43.379 7.7383 65.504-3.2969 25.336-12.422 49.566-26.668 70.777 3.5781 3.0273 5.25 7.7461 4.375 12.352 2.6562 1.3203 4.4961 3.8594 4.9219 6.793 3.8867-4.4688 9.2969-7.1914 13.551-3.5977h0.003906c1.8984-1.6992 4.2148-2.8633 6.7109-3.3789 2.5-0.51953 5.0859-0.36719 7.5078 0.4375 15.695-28.191 27.344-59.609 38.582-85.16 11.992-27.344 25.797-54.43 47.125-75.828h-0.003906c10.285-10.637 21.891-19.906 34.531-27.59zm9.1914 239.32c1.2344-1.668 2.5039-3.375 3.8281-5.0469-3.1758-2.0234-6.625-3.5898-10.242-4.6484-2.3242 2.5742-4.6914 5.1523-7.1094 7.7383 3.6523 1.8477 6.9883 4.2656 9.8828 7.1602 0.50781-0.72656 0.98438-1.4219 1.4922-2.1445 0.03125-0.078125 0.070312-0.10938 0.10937-0.1875-0.003906-0.23047 0.007813-0.45703 0.035157-0.6875 0.33984-0.96875 1.0664-1.75 2.0039-2.1602zm3.1953-47.336c-0.65625-1.2656-1.3867-2.4883-2.1875-3.668-3.6367 11.188-12.973 22.16-18.676 30.266-13.191 18.707-25.945 41.93-42.398 58.273 0.61719 1.0938 1.2695 2.1875 1.9258 3.2812 11.297-7.1602 17.5-27.539 26.156-37.023 14.477-15.797 29.953-29.566 35.18-51.105zm3.3477 182.11c-2.5234-3.8359-4.582-7.957-6.1406-12.277-4.9766 0.61719-9.957 1.1992-14.898 1.7461 1.25 3.1211 2.7109 6.1562 4.375 9.082 0.35938 0.64453 0.60547 1.3438 0.72656 2.0664 5.3281-0.125 10.633-0.27734 15.938-0.57422zm-3.2383-86.652c-1.6406-1.3086-3.2812-2.6523-4.9219-3.9219-0.33203-0.23047-0.625-0.51562-0.87109-0.83594l-6.3203 7.7383c1.6367 2.1797 3.8516 3.8555 6.3945 4.8359 1.9766-2.5 3.8633-5.1211 5.7188-7.7734zm-11.648-7.875c2.8008-3.4883 5.6328-6.9414 8.4648-10.391-2.3047-2.793-5.1289-5.1133-8.3164-6.832-0.25 0.57422-0.63672 1.0742-1.1289 1.457-2.1055 2.832-4.2148 5.6641-6.3945 8.4258h0.003906c2.5977 2.3008 5.0586 4.75 7.3711 7.3398zm-9.7734 73.5c4.8672-0.50781 9.7383-1.0547 14.645-1.6406-1.1094-3.0469-2.3867-6.0312-3.8281-8.9375-1.8984-1.1367-3.6367-2.5312-5.1562-4.1445-0.29688 0.10937-0.59766 0.19531-0.90625 0.25781-2.6523 0.54688-5.2734 1.0156-7.8867 1.4883 0.94141 4.332 1.9688 8.6875 3.1562 12.977zm5.8828-96.355c1.6406-2.2539 3.2383-4.5078 4.8359-6.7578-2.9688-3.2617-6.6641-5.7773-10.789-7.3398-1.8906 2.1875-3.7461 4.4414-5.5625 6.7578v0.003907c4.0938 2.0312 7.9648 4.4922 11.539 7.3359zm8.0352-74.734c-2.5078-2.582-5.2031-4.9727-8.0664-7.1602-5.5625 14.465-18.316 26.344-25.434 39.922-9.2266 17.5-22.488 30.078-33.027 46.141 1.418 1.5977 2.8008 3.2812 4.0352 4.9766 1.2344 1.6953 2.2148 3.3789 3.2305 5.125 12.355-12.973 22.09-30.555 32.371-44.801 6.6719-9.2148 24.988-29.16 26.914-44.203zm-2.5039 118.52c-2.3711-1.2188-4.4883-2.8711-6.25-4.875-3.0508 3.7461-6.1016 7.5234-9.1562 11.266 1.3086 1.6406 2.6133 3.2812 3.9219 4.9219 4.1172-3.4648 7.957-7.2461 11.484-11.312zm-9.6289-11.086 3.8867-4.7578c-2.2812-2.6172-4.75-5.0703-7.3789-7.3398-1.0508 1.2734-2.1055 2.582-3.1953 3.8281 0.94141 1.418 1.668 3.3086 2.6523 4.9219h0.003906c0.74219 1.6797 2.2266 2.918 4.0117 3.3477zm-4.6875-20.922c1.707-2.1875 3.3789-4.375 5.0547-6.5625h-0.003906c-3.3203-3.2109-7.3359-5.6094-11.734-7.0117-0.36719 0.54688-0.72656 1.0547-1.0938 1.5977-0.50781 0.83594-1.0156 1.6719-1.5586 2.5117v-0.003906c2.8438 3.4062 5.9609 6.5703 9.3203 9.4727zm-1.8555 106.82 1.7812-0.10938 0.003906-0.003906c-1.7539-3.375-3.2969-6.8594-4.6172-10.426-5.4688 0.50781-10.938 0.98438-16.406 1.3438 1.3789 3.3789 2.9023 6.6875 4.5078 9.9531zm1.5625-199.17 0.003906-0.003906c0.26562-2.2617-0.25781-4.5469-1.4883-6.4688-3.1172 2.5781-7.043 3.9688-11.086 3.9219-4.0078-0.11328-7.8906-1.4258-11.148-3.7617-3.2578-2.3398-5.7383-5.6016-7.1289-9.3633-0.35938 1.3438-0.6875 2.6523-1.0508 3.9609 0.46484 1.9766 1.4297 3.8008 2.7969 5.3047 1.7109 1.8633 3.6523 3.5 5.7812 4.8711 2.3398 1.3477 4.8594 2.3594 7.4805 3.0117 3 0.8125 15.027 3.9336 15.824-1.4766zm1.3086 152.66c-1.7773-2.6133-3.5234-5.3438-5.3047-8.0273-21.578 3.7422-46.324 12.824-68.523 9.082-0.10938 0.35938-0.21875 0.6875-0.32812 1.0156-0.6875 2.1445-1.3086 4.3203-1.9258 6.5039 25.523-1.1289 50.938-3.9922 76.066-8.5742zm-6.3867-27.031c1.8906-2.2852 3.7773-4.6484 5.6719-6.9727-3.043-2.1094-5.4141-5.0469-6.832-8.4688-2.0352 2.2539-4.0703 4.5078-6.2109 6.6836 2.4492 2.9414 4.9492 5.8516 7.3711 8.7578zm1.2344-28.191c-0.027344-0.003906-0.050781-0.019531-0.070313-0.039062-2.9023-2.8711-5.9609-5.4688-8.6445-8.5-2.8906 5.3945-6.1641 10.57-9.8008 15.488 1.8555 2.5117 3.7773 4.9805 5.7422 7.3789 4.4688-4.6016 8.7305-9.3789 12.785-14.328zm0.65625-88.836c-5.25 0.89844-10.641 0.48438-15.695-1.1992-6.3398-1.8594-12.008-5.5195-16.312-10.535-3.4648 5.9883-7.4805 11.645-11.992 16.891l-2.6133 3.0586c2.6328 0.96875 4.4922 3.3438 4.7969 6.1367-0.23438 6.3125-5.2773 11.387-11.59 11.664-2.2266-0.21484-4.2266-1.4492-5.4141-3.3438-6.0352 7.3359-10.688 15.707-13.73 24.703 3.4219 5.3047 7.418 10.215 11.914 14.645 3.2305 3.0859 6.6133 6.1016 9.8047 9.2656 6.6172-9.4844 14.496-17.801 21.367-27.07-2.3008-0.49219-4.1445-2.207-4.7969-4.4688-0.63281-2.6172-0.17188-5.3828 1.2773-7.6562 1.3945-2.5234 3.8945-4.2422 6.7539-4.6484 2.1914-0.20312 4.3555 0.60156 5.8828 2.1875 5.6445-9.8281 14.039-19.457 20.359-29.629zm-4.5781 169.42c-1.125-4.0703-2.0352-8.1719-2.8711-12.277-5.4141 0.87109-10.828 1.6328-16.242 2.2852h0.003906c0.44141 3.8242 1.1914 7.6016 2.25 11.305 5.6445-0.36719 11.238-0.76563 16.871-1.3125zm-3.1992-43.125c-0.54688-0.65234-1.0508-1.3086-1.5977-1.9258-6.0156-6.793-11.992-13.551-17.5-20.742l0.003906-0.003907c-2.1641 1.6523-4.5586 2.9727-7.1094 3.9219-2.1797 0.96484-4.7344 0.058593-5.8125-2.0664-0.35156-0.30859-0.66797-0.64844-0.94922-1.0195-1.5977-2.1875-3.0117-4.4336-4.375-6.6875-0.39844 0.070312-0.83594 0.17969-1.2344 0.25781v0.03125c1.0547 8.9414 2.9414 17.77 3.9961 26.703v0.003906c0.5 3.0469 0.34766 6.168-0.4375 9.1602 11.957-1.8945 24.059-5.4141 35.027-7.6367zm-41.258 66.777c8.0664-0.36328 16.133-0.75 24.199-1.1602-1.4922-3.2812-2.8711-6.5625-4.1445-9.8828-7.2617 0.28906-14.57 0.43359-21.941 0.28906 0.078125 3.3828 0.65625 6.7383 1.7031 9.9531 0.074219 0.3125 0.10938 0.54688 0.18359 0.80078zm17.223-224.86h-0.003906c0.36328-1.5195 0.91406-2.9922 1.6406-4.375-3.7773-2.0742-7.5898-3.9961-11.008-5.4688-1.2344 10.539-9.1562 19.141-14.766 28.488-4.6172 7.6289-12.246 13.152-16.457 20.93-4.0352 7.4805-7.0508 15.406-11.195 22.816 2.293 3.2305 4.4688 6.5625 6.6133 9.9219 6.1797-15.312 17.695-26.922 28.438-39.965v-0.007812c5.3867-6.3516 9.7852-13.48 13.043-21.145-0.40234-4.0859 0.9375-8.1523 3.6914-11.195zm-0.62109 203.04c-0.88281-3.4805-1.5508-7.0078-1.9961-10.57-5.7422 0.57813-11.516 1.125-17.258 1.5625 0.52734 3.0234 0.77344 6.0859 0.72656 9.1562 6.2109 0.125 12.387 0.046876 18.527-0.14844zm-15.188-215.22c-1.6211-0.65625-3.4375-0.64062-5.0469 0.039063-0.011718 0.49219-0.074218 0.97656-0.1875 1.457-3.2812 12.316-11.59 21.219-18.781 31.391h0.003906c-7.3438 10.27-13.902 21.078-19.621 32.336 1.125 1.1992 2.2539 2.3945 3.2812 3.668 5.0469-9.7773 8.4258-20.422 16.094-28.598 7.7656-8.3164 23.711-26.664 24.258-40.293zm-18.387 176.94c5.1953 0.28906 13.449 0.83594 13.152-4.543-0.54688-9.4062-2.793-18.965-4.0703-28.438-2.6523 0.50781-5.3047 1.0156-7.9883 1.4883 3.4141 7.5898 1.4492 20.852-1.0938 31.492zm14.824-45.09h0.003907c-1.8164-2.7734-3.9141-5.3516-6.25-7.6992-4.5391-4.4727-9.5156-8.6836-13.984-13.301-1.0195 8.6836-5.9961 16.41-13.48 20.93 1.0312 1.8516 1.9062 3.7852 2.6133 5.7852 10.391-1.7812 20.75-3.7148 31.102-5.7109zm-29.352 106.34c6.793-0.17969 13.562-0.39453 20.312-0.65234h-0.003907c-0.86328-3.7969-1.1836-7.7031-0.94531-11.594-5.5234-0.28906-11.117-0.76172-16.711-1.3789-0.87109 4.5156-1.7461 9.0586-2.6523 13.625zm19.512-23.145c-0.082032-2.7344-0.57031-5.4375-1.457-8.0273-3.9609 0.25391-7.9219 0.47266-11.883 0.65625-0.46875 2.0664-0.94141 4.1406-1.3789 6.2109 4.9453 0.48437 9.8672 0.88281 14.719 1.1328zm-15.555-40.074c1.418-5.5195 8.4648-27.504-3.0898-23.105h-0.03125c0.98047 19.141-5.7812 41.238-9.6289 57.008h-0.003906c-1.7773 10.207-5.4219 20-10.75 28.883 0.34766 0.75 0.51172 1.5703 0.46875 2.3984-0.4375 32.699-20.602 54.688-42.98 75.902 5.7734 6.0156 22.777-10.43 29.027-18.496 0.54688-0.72656 1.0156-1.418 1.5273-2.1445 0.17969-0.28906 0.32813-0.54688 0.46875-0.79688l0.003907-0.003906c0.27344-0.53516 0.64453-1.0156 1.0938-1.4141 17.84-27.578 16.895-62.02 26.195-93.121 2.5039-8.4258 5.5234-16.633 7.6992-25.137zm-5.4688-61.398c1.4844-7.1484 0.41797-14.594-3.0195-21.039-1.2344-1.9961-2.5039-3.9961-3.7422-5.9609h0.003907c-4.6367-5.8711-9.9609-11.164-15.859-15.766-0.42187-0.33984-0.79297-0.74609-1.0938-1.1953-0.94141 1.418-1.9258 2.8711-2.9023 4.2891 13.551 10.859 36.297 29.395 13.621 43.488-26.305 16.406-62.453 18.637-92.863 16.023l-0.003906-0.003906c-1.0977 1.6992-2.3398 3.3047-3.707 4.7969 21.324 1.5625 42.754 0.46094 63.805-3.2812 11.621-2.4141 42.734-6.4102 45.785-21.379zm-14.258 76.125c3.2305-15.043 9.7344-38.223 1.7461-52.898-1.6016 0.6875-3.1992 1.2695-4.7969 1.8867 4.7578 33.359-13.559 61.766-15.043 94.539 4.5078 5.375 12.793-20.055 13.52-23.074 1.6445-6.793 3.082-13.621 4.5742-20.453zm0.28906-79.898c9.082-10.242-1.8555-20.234-11.625-27.465 2.8789 3.3164 4.3867 7.6016 4.2109 11.988-0.70313 5.4219-3.7617 10.258-8.3555 13.223-7.7695 5.4688-20.383 8.0352-27.395 0.50781v0.003906c-10.301 8.6445-22.148 15.266-34.91 19.512 17.348 0.51562 34.672-1.5664 51.406-6.1758 8.4648-2.3633 20.602-4.7227 26.672-11.594zm-12.242-56.094c-3.3594-0.27344-6.6211 1.1914-8.6445 3.8828-0.94531 1.1172-2.5781 1.3359-3.7812 0.51172-0.74219-0.22656-1.375-0.71875-1.7812-1.3789-2.1445-3.5234-7.1602 3.4883-8.3906 6.6836 3.7695 4.2812 3.8945 10.66 0.28906 15.082-3.9844 4.2852-10.566 4.8477-15.223 1.3047-4.2695-2.9766-5.5234-8.7461-2.8711-13.227 2.1055-3.75 5.8125-6.332 10.062-7.0117 0.11328-1.3164 0.003906-2.6406-0.32422-3.9219-0.4375-1.6016-0.875-2.1875-2.543-2.0742-2.8398 0.21875-3.707-2.6914-2.6914-4.7266v-0.32422c0.28906-2.0352 0.90625-6.832-1.4531-8.0664v0.003906c-6.1094 8.3828-12.926 16.227-20.383 23.434 2.2617 2.1289 3.9062 4.8281 4.7617 7.8086 0.85938 2.9844 0.89453 6.1445 0.10547 9.1445 4.0508 1.418 7.6172 3.9531 10.289 7.3086 2.6758 3.3555 4.3477 7.3945 4.8281 11.66 15.215-13.004 28-28.613 37.75-46.094zm-15.984 169.24c4.1797-27.25 18.129-52.938 14.422-80.805-2.5742 0.72656-5.1562 1.3828-7.7773 2 0.039062 0.17969 0.10938 0.39844 0.14844 0.61719 2.3633 24.609-30.883 22.738-46.398 27.645-8.1367 2.582-20.711 8.6523-28.559 1.8906-7.7383-6.6875-9.5938-16.172-12.355-25.652h0.003906c-0.042968-0.14062-0.066406-0.28516-0.074218-0.43359l-3.1211-0.10938c-0.078125 0-0.10938 0-0.14844 0.03125v0.003906c-0.19922 1.6094-0.96094 3.0977-2.1484 4.1992-0.44531 0.46484-0.91797 0.90234-1.418 1.3125 1.0703 0.67578 2.0898 1.4258 3.0547 2.2461 1.7383 1.4648 3.043 3.375 3.7773 5.5234 0.46094 1.4531 0.48437 3.0039 0.070312 4.4688-0.32422 0.98438-0.6875 1.4531-1.125 1.4531s-0.83203-0.54688-1.2695-1.3086v0.003907c-0.45703-0.97266-0.99219-1.9062-1.5977-2.793-2.4922-2.5781-5.5-4.5977-8.832-5.9258l-1.1992-0.61719-5.1953-2.7344 5.125-2.7344c1.6602-0.84766 3.2383-1.8438 4.7227-2.9727 0.10938-0.10938 0.1875-0.39844 0.28906-0.50781-0.17969-0.078124-0.35938-0.61719-0.54688-0.76562-3.8281-0.10938-7.4102 0.76562-11.227 0.36719v-0.003906c-3.1875-0.23438-6.3906-0.12891-9.5547 0.32422-2.0742 0.1875-7.5977-1.7773-9.2305-0.6875-0.14062 0.14844-0.35938 1.125-0.54688 1.2344 0.10547 0.070313 0.17969 0.17969 0.28906 0.25781 1.4844 1.0898 3.0625 2.0508 4.7188 2.8633l5.125 2.6914-5.1953 2.7344-1.1641 0.61719c-3.3281 1.3125-6.3398 3.3203-8.8281 5.8906-0.625 0.88281-1.1758 1.8164-1.6406 2.793-0.4375 0.79688-0.87109 1.2734-1.2695 1.3086-0.39844 0.03125-0.80469-0.46875-1.125-1.4531-0.38281-1.4688-0.35547-3.0156 0.070313-4.4688 0.75-2.1445 2.0547-4.0508 3.7773-5.5234 0.96484-0.82031 1.9844-1.5742 3.0547-2.25-0.48828-0.41797-0.95312-0.86719-1.3906-1.3438-0.81641-0.91797-1.457-1.9766-1.8906-3.1211-0.125-0.33984-0.19922-0.69531-0.21875-1.0586-0.058594-0.027343-0.12109-0.035156-0.18359-0.03125l-3.0859 0.10938h0.003906c-0.023437 0.14844-0.058594 0.29297-0.10938 0.43359-2.7617 9.4844-4.6172 18.965-12.355 25.652-7.8477 6.7578-20.422 0.6875-28.559-1.8906-15.516-4.9219-48.758-3.0117-46.398-27.645 0.039062-0.21875 0.10938-0.4375 0.14844-0.61719-2.6211-0.61719-5.1992-1.2734-7.7773-2-3.707 27.891 10.242 53.555 14.422 80.805l0.65625-0.54688c0.76172-0.4375 1.5273-0.90625 2.2852-1.3789h0.003906c1.0781-0.58594 2.1953-1.0977 3.3477-1.5273 1.1602-0.4375 2.3242-0.875 3.5234-1.2344l1.8555-0.54688c0.4375-0.10938 0.32812-0.10938 0.39844-0.14844l0.17969-0.03125 0.50781-0.21875c0.10938-0.070312-0.35938-0.14844-0.46875-0.32812l-0.003906-0.14453 0.10938-0.54688c0.035156-0.32422 0.12109-0.64453 0.25-0.94531 0.14844-0.25781 0.32812-0.50781 0.47656-0.72656l0.39844-0.39844v-0.003906c0.21094-0.20703 0.44141-0.39062 0.69141-0.54688 0.58984-0.375 1.2227-0.67969 1.8867-0.90625 0.89453-0.31641 1.8086-0.58203 2.7344-0.79688l-1.3438-1.3086h-0.003906c-2.2578-1.3477-4.4219-2.8555-6.4688-4.5078-3.3203-2.6836-6.3203-5.7422-8.9336-9.1211-3.8242-4.7188-6.7109-10.125-8.5-15.93-0.97656-3.1094-1.3711-6.375-1.1602-9.6289 0.25-1.9961 0.57812-2.832 0.98047-2.832 0.39844 0 0.76563 0.875 1.125 2.6914v-0.003907c1.9023 8.3398 5.8281 16.082 11.43 22.543 4.7188 5.6484 10.543 10.273 17.113 13.59 8.2109-2.5977 16.676-4.3164 25.25-5.125 1.457-3.6406 3.1445-7.1836 5.0508-10.609 1.5-2.7344 3.4102-5.2188 5.668-7.3711 1.1914-1.2188 2.6289-2.1758 4.2148-2.8008 0.98047-0.39844 1.5273-0.35938 1.707-0.070313 0.17969 0.28906 0.10938 0.87109-0.39844 1.7461-0.50781 0.875-1.4531 1.9258-2.6133 3.668h-0.003907c-1.5703 2.2852-2.9531 4.6875-4.1445 7.1914-1.0938 2.1875-2.1875 4.8672-3.4844 7.9961 6.0898-0.066406 12.156 0.67969 18.047 2.2148-2.0469-5.0938-3.3672-10.453-3.918-15.914-0.19141-3.1836 0.078125-6.3789 0.79688-9.4844 0.38672-1.8398 1.1406-3.582 2.2148-5.125 0.46094-0.60156 0.98438-1.1523 1.5625-1.6406l0.35938-0.25 0.1875-0.10938 0.76172-0.50781 0.14844-0.039063c0.89453-0.42188 1.8516-0.70312 2.832-0.83203 2.0938-0.33203 4.2344 0.20312 5.9219 1.4883 1.0625 0.86328 1.9297 1.9375 2.543 3.1602 0.73047 1.4844 1.2578 3.0625 1.5664 4.6875 0.1875 0.94531 0.26953 1.9062 0.25 2.8711 0 0.72656-0.14062 1.2344-0.50781 1.4531s-0.87109 0.17969-1.5273-0.10938c-1.6719-0.76562-3.7773-5.2734-5.6641-5.125-2.6523 0.21875-0.50781 6.5039-0.1875 8.3945v0.003906c1.1836 5.3477 2.9531 10.547 5.2734 15.508 2.0469 4.7578 5.082 9.0273 8.9023 12.523 0.78906 0.67188 1.6445 1.2695 2.5469 1.7773l1.0508 0.61719c0.32812 0.10938 0.61719 0.25781 0.90625 0.36719h0.003907c2.2188 0.5625 4.4805 0.96094 6.7578 1.1992 2.2773-0.23828 4.5391-0.63672 6.7578-1.1992 0.28906-0.10938 0.57813-0.25781 0.90625-0.36719l1.0508-0.61719h0.003906c0.90234-0.50781 1.7578-1.1055 2.5469-1.7773 3.8164-3.4922 6.8516-7.75 8.8984-12.5 2.3164-4.9688 4.0938-10.168 5.3047-15.512 0.28906-1.8906 2.4336-8.2031-0.21875-8.3945-1.8867-0.14844-3.9922 4.375-5.6289 5.125-0.69531 0.28906-1.2031 0.35938-1.5625 0.10938-0.39453-0.375-0.58203-0.91797-0.50781-1.4531-0.023437-0.96484 0.0625-1.9258 0.25-2.8711 0.30859-1.625 0.83594-3.2031 1.5625-4.6875 0.63281-1.2227 1.5117-2.3008 2.582-3.1602 1.6719-1.2852 3.8008-1.8242 5.8867-1.4883 0.98047 0.125 1.9375 0.40625 2.832 0.83203l0.14844 0.039063 0.76172 0.50781 0.1875 0.10937 0.35938 0.25h-0.003906c0.58203 0.48828 1.1055 1.0391 1.5664 1.6406 1.0703 1.5508 1.832 3.2891 2.25 5.125 0.6875 3.1094 0.94531 6.2969 0.76172 9.4766-0.53516 5.4648-1.8555 10.824-3.9219 15.914 5.8906-1.5352 11.961-2.2812 18.047-2.2148-1.3086-3.1289-2.3945-5.8125-3.4844-7.9961-1.1875-2.5039-2.5742-4.9062-4.1445-7.1914-1.1602-1.7461-2.0664-2.832-2.6133-3.668s-0.61719-1.418-0.39844-1.7461 0.72656-0.32812 1.707 0.070313c1.5898 0.61719 3.0273 1.5742 4.2148 2.8008 2.2578 2.1602 4.1797 4.6445 5.7031 7.3711 1.8789 3.4375 3.5547 6.9805 5.0156 10.609 8.5742 0.80859 17.039 2.5273 25.25 5.125 11.555-5.9531 20.691-15.723 25.867-27.648 1.125-2.7578 2.0234-5.5977 2.6914-8.5 0.35938-1.8164 0.76172-2.6523 1.1602-2.6914 0.39844-0.039063 0.69531 0.83594 0.94531 2.832v0.003906c0.21094 3.2539-0.18359 6.5195-1.1602 9.6289-1.7734 5.8164-4.6641 11.234-8.5039 15.945-2.6172 3.3789-5.6133 6.4414-8.9375 9.125-2.0391 1.6602-4.2031 3.168-6.4688 4.5039l-1.3438 1.3086c0.92578 0.21484 1.8359 0.48047 2.7344 0.79688 0.66406 0.21875 1.3008 0.52344 1.8867 0.91016 0.24609 0.15625 0.48047 0.33594 0.6875 0.54688l0.39844 0.39844c0.17969 0.22656 0.33984 0.46875 0.47656 0.72656 0.12891 0.30078 0.21484 0.62109 0.25 0.94531l0.10938 0.54688v0.10938c-0.10938 0.17969-0.57812 0.25781-0.46875 0.32812l0.50781 0.21875 0.17969 0.03125c0.070313 0.039063-0.039062 0.039063 0.39844 0.14844l1.8555 0.54688c1.1992 0.35937 2.3945 0.79687 3.5234 1.2344v0.003907c1.1484 0.42969 2.2656 0.94141 3.3477 1.5234 0.76172 0.46875 1.5273 0.94141 2.2852 1.3789zm11.809 32.043c-0.72656 1.9258-1.4531 3.7461-2.2539 5.4688v-0.003906c-2.0547 4.2812-4.5 8.3633-7.3008 12.191-3.8633 5.4805-8.3359 10.504-13.34 14.969-7.5898 6.6484-11.516 7.7773-11.809 7.2305-0.50781-0.72266 2.543-2.9414 9.1211-9.9922h0.003906c4.3672-4.6914 8.3398-9.7344 11.875-15.078 2.5117-3.6836 4.707-7.5742 6.5625-11.625 1.8281-3.8633 3.1602-7.9414 3.9609-12.137-4.125-1.3867-7.4219-4.5273-9.0117-8.5742-0.19531-0.49219-0.32812-1.0039-0.39844-1.5273-0.24609-0.6875-0.35938-1.4141-0.32813-2.1445l0.10938-1.6406c-0.17969 0-0.32422 0.039062-0.50781 0.039062-0.57812 0.039063-1.1602 0-1.7461 0 0.1875 0.30859 0.35547 0.62109 0.50781 0.94531 0.67188 1.2188 0.76562 2.668 0.25781 3.9609-0.9375 1.1367-2.3594 1.7617-3.8281 1.6719 0.14844 0 1.8906 4.7188 2.0742 5.1172l-0.003906 0.003906c0.81641 2.1172 1.4727 4.293 1.9648 6.5078 0.40234 1.0781 0.60937 2.2227 0.61719 3.375-1.9648 0.29688-4.2539-2.3555-6.5625-2.4648v-0.003907c1.0273 2.0117 1.8203 4.1328 2.3633 6.3242-2.7539-0.71484-5.6328-0.8125-8.4336-0.29297-0.60547 0.81641-1.1289 1.6953-1.5586 2.6172-0.67578 1.2734-1.1875 2.625-1.5234 4.0273l-0.10938 0.4375c-0.039062 0.10938-0.25781 0-0.36719 0l-0.83594-0.10938-1.6406-0.17969c-1.2227-0.15625-2.4141-0.5-3.5273-1.0156l-1.8555-0.72656c-0.30078-0.10547-0.59375-0.24219-0.87109-0.40234l-0.54688-0.28906c-0.25 0.83594-0.54688 1.668-0.83594 2.3945-0.36719 1.0352-0.82813 2.0312-1.3789 2.9805-0.73047-0.53125-1.5391-0.94922-2.3984-1.2344-0.32422 2.2539 1.7109 4.6875 1.6016 7.1602-0.16016 3.2188-2.0391 6.1055-4.9219 7.5547-1.5938 0.75781-3.3867 1-5.125 0.69141-1.0938-0.32812-1.6406-0.6875-1.6406-1.125s0.54688-0.83594 1.5586-1.2695c1.1172-0.50781 2.1562-1.1719 3.0898-1.9648 1.125-1.1094 1.7852-2.6016 1.8555-4.1797 0-1.125-1.7461-2.9414-1.7461-3.2812-0.25781 3.2812-2.1875 4.9219-5.5625 5.7734v0.003906c-1.5078 0.45703-3.1211 0.41797-4.6094-0.10938-0.32812-0.10938-3.5273-1.957-3.2812-2.1875-2.082 1.7305-4.5938 2.8633-7.2656 3.2812-0.066407 2.4375-1.1133 4.7461-2.9062 6.3984-1.3945 1.2969-2.9922 2.3633-4.7227 3.1562 0.26953 1.6523 0.10547 3.3477-0.47266 4.9219-0.65234 1.6484-1.918 2.9883-3.5273 3.7383-1.1758 0.47656-2.4805 0.54297-3.7031 0.1875-0.28516 0.38672-0.60156 0.75391-0.94531 1.0938-0.22656 0.17969-0.46875 0.33594-0.72656 0.46875 0.30859 0.62891 0.67578 1.2266 1.0938 1.7852 0.91797 1.2344 1.9688 2.3672 3.1289 3.3789 1.8281 1.6562 4.1172 2.7227 6.5625 3.0508 1.6211 0.16016 3.2031-0.5625 4.1445-1.8906 0.73438-1.2266 1.0625-2.6484 0.94141-4.0703-0.09375-1.957-0.76172-3.8398-1.9258-5.4141-0.72656-0.98047-1.2695-1.418-1.125-1.8164 0.078125-0.28906 0.875-0.57812 2.4336 0.14844 2.375 1.4258 3.9961 3.8281 4.4336 6.5625 0.52734 2.3125 0.24609 4.7383-0.79687 6.8672-1.6602 2.9609-4.8125 4.7617-8.2031 4.6875-3.6445-0.1875-7.1172-1.582-9.8828-3.957-1.3945-1.1914-2.6758-2.5039-3.8281-3.9297 0.83984 3.6367 2.7773 6.9219 5.5547 9.4141 3.0156 2.4336 6.7734 3.7656 10.648 3.7773 2.2266-0.003906 4.4453-0.16406 6.6484-0.46875 1.418-0.14844 2.1367-0.039062 2.2852 0.32813 0.14844 0.36719-0.28906 0.90625-1.6406 1.707h0.003906c-2.1953 1.2305-4.6133 2.0078-7.1094 2.2852-4.9688 0.66016-10-0.67188-13.992-3.7031-4.4609-3.6211-7.4141-8.7773-8.2852-14.461-0.32812 0.070313-0.65625 0.10547-0.98047 0.14063l0.003906 0.003906c-0.96484 0.03125-1.9219-0.10156-2.8398-0.39844-1.332-0.46094-2.5703-1.1523-3.668-2.0352-0.085937 0.16406-0.18359 0.32031-0.28906 0.46875 1.5039 6.9922 4.8516 13.457 9.6992 18.715 5.8438 4.6992 12.922 7.6172 20.383 8.3945 8.0273-8.6836 19.656-10.867 30.301-15.805 1.1797-0.55859 2.5156-0.6875 3.7812-0.36719 16.996-16.055 33.598-32.332 39.121-54.535zm-3.3398-152.58c8.0273-5.6641 6.4648-13.082 0.17969-19.004l-0.003906-0.003907c-5.6172 7.3398-11.867 14.172-18.676 20.422 4.5078 4.8516 13.918 1.8008 18.496-1.4336zm-24.16 236.74c8.0977-2.8008 18.047-7.7383 14.531-16.055l-0.003906-0.003906c-5.4219 3.9102-12.105 5.6641-18.75 4.9219 1.6875 3.5938 3.0977 7.3086 4.2188 11.117zm9.8828-355.44-0.003906-0.003906c1.4336-5.2148 2.5742-10.512 3.4102-15.859-7.6367-10.684-18.52-18.621-31.023-22.633-0.99219-0.30078-1.8789-0.88281-2.5469-1.6758-0.40625 0.63281-1.0469 1.0781-1.7773 1.2383-1.0156 0.25781-1.9961 0.4375-3.0117 0.61719 2.3945 2.3242 4.7891 4.7266 7.1094 7.1953 1.3789-0.39844 2.7344-0.79687 4.1797-1.0938 4.1055-0.83203 5.8516 5.4688 1.7461 6.2891-0.32812 0.070313-0.65625 0.17969-0.98047 0.25 1.4883 1.7461 2.9766 3.5273 4.375 5.3438 1.8906-0.61719 3.8281-1.2734 5.7422-1.8906 3.9961-1.3398 5.7031 4.9805 1.7461 6.2891-1.125 0.39844-2.2539 0.76172-3.3789 1.125 1.2734 1.8555 2.5117 3.7422 3.668 5.6641 1.418-0.4375 2.8711-0.87109 4.3242-1.2695l-0.003907 0.003906c1.6484-0.26172 3.2344 0.75391 3.6797 2.3633s-0.38672 3.2969-1.9336 3.9219c-0.94531 0.28906-1.8555 0.54688-2.8008 0.79688 0.875 1.6719 1.707 3.3789 2.4727 5.0859 1.3984-0.4375 2.7695-0.96094 4.1055-1.5742 0.28906-0.10156 0.58984-0.17188 0.89844-0.20312zm-5.5664 90.633c1.7305-2.0703 1.5391-5.1328-0.43359-6.9727-0.039063-0.078124-0.078125-0.10937-0.10938-0.1875-0.55078-0.23437-1.0039-0.66016-1.2734-1.1992-2.0117 0.20703-3.8398 1.2656-5.0156 2.9102-0.90625 1.4492-1.7773 3.5586-0.28906 4.9766 1.8555 1.707 5.3047 2.6523 7.1211 0.47266zm-0.83594-71.902v-0.003906c-0.64844-3.0273-1.4844-6.0117-2.5078-8.9336-1.125 0.39844-2.2539 0.76562-3.3789 1.1992-3.9219 1.5273-5.6328-4.7969-1.7461-6.2852 0.90625-0.35938 1.7812-0.65625 2.6914-0.94531-0.76562-1.707-1.5977-3.3398-2.4727-4.9766h0.003906c-0.96484 0.375-1.9141 0.80078-2.8359 1.2734-3.7422 1.957-7.0508-3.707-3.2812-5.6328 0.94531-0.47656 1.9258-0.90625 2.8711-1.3438-1.1953-1.9258-2.4727-3.8125-3.8281-5.6641-1.3828 0.46875-2.7344 0.94141-4.1055 1.4883-3.9258 1.5273-5.5938-4.7969-1.7461-6.3203 0.57813-0.21875 1.125-0.39844 1.707-0.61719-1.5977-1.9258-3.1953-3.8281-4.9219-5.7031-0.76172 0.17969-1.5273 0.35938-2.3242 0.50781-3.7422 0.6875-5.4688-4.375-2.6836-5.8828-2.6523-2.7344-5.3828-5.3828-8.1445-7.957-0.72656 0.14062-1.4492 0.25-2.1875 0.39844 11.516 18.855 22.926 37.859 28.77 58.93 0.61719-0.039063 1.2031-0.10938 1.8555-0.10938v-0.007812c1.8125 0 3.2812 1.4688 3.2812 3.2812s-1.4688 3.2812-3.2812 3.2812h-0.28906c0.39844 1.8164 0.72656 3.6328 1.0156 5.4688 2.8125-4.9961 5.3281-10.156 7.5391-15.449zm-26.703 158.7c8.5039-1.418 34.043-2.1445 34.77-14.859-21.562 2.9297-43.363 3.7188-65.078 2.3555 1.8164 7.7773 4.375 20.203 14.766 17.078 5.082-1.832 10.273-3.3594 15.539-4.5781zm13.258-138.97c-0.35938-2.9805-0.87109-5.8828-1.4883-8.75-1.0156 0.29297-2.0352 0.61719-3.0508 0.98047-3.9961 1.418-5.7031-4.9219-1.7461-6.3203 1.0547-0.35938 2.1445-0.6875 3.2305-0.98047h0.003906c-4.8281-15.605-11.707-30.504-20.453-44.297 0.9375 5.0078-0.57422 10.164-4.0664 13.871-0.875 1.1289-1.8516 2.1758-2.9102 3.1289 9.8047 2.9766 18.156 9.4922 23.434 18.277 0.92969 1.6914 0.91016 3.7461-0.054687 5.418-0.96875 1.668-2.7344 2.7148-4.6641 2.7539-5.8516 0.72656-8.6445 8.0664-15.008 8.2031-5.3047 0.070313-8.9727-3.5977-13.301-5.4141-1.7188 5.0039-5.1211 9.2578-9.625 12.035 1.8477 1.3086 3.5625 2.7891 5.125 4.4297 5.1641-4.2305 11.566-6.668 18.238-6.9414 1.1328-0.66406 2.5078-0.78516 3.7422-0.32812 3.1797 1.2188 5.9336 3.3477 7.918 6.1211 4.5156-2.3359 9.6758-3.1055 14.676-2.1875zm-0.19531 321.21c-0.46875-1.7773-1.0547-3.5586-1.6719-5.2656-11.117 3.8281-24.812 1.5273-36.367 3.4883-4.5078 0.79687-19.656 0.98047-22.055 6.0156h-0.003906c-0.74609 1.6758-1.1758 3.4727-1.2656 5.3047 8.6562-2.4609 17.637-3.5742 26.633-3.3086 9.5742-0.054687 28.496 2.8711 34.73-6.2344zm-2.3633-238.78c0.53516-4.1797-0.53516-8.4062-2.9922-11.828-2.457-3.4219-6.1211-5.7891-10.254-6.6172-0.89453-0.20312-1.6523-0.80078-2.0547-1.6289-0.40234-0.82422-0.40625-1.7891-0.011718-2.6211-0.019532-0.15625-0.019532-0.3125 0-0.46875 0.90625-5.0547 1.3789-10.578-3.1992-12.902-1.9258 1.7812-3.9258 3.5273-5.9609 5.2344 2.3789 4.4453 2.3672 9.7852-0.03125 14.219 9.5938 0.54688 15.945 9.9922 19.363 19.984 1.7773-1.0781 3.4883-2.207 5.1562-3.3711zm-3.7773 223.67c-0.98047-1.8203-2.0352-3.6367-3.1211-5.3828l-0.003906 0.003906c-5.0781 1.5-9.9219 3.7109-14.387 6.5625 5.8672 0.49609 11.781 0.097656 17.527-1.1875zm-9.7188-394.54c2.4453-2.1328 2.8281-5.7969 0.87109-8.3867-3.5234 3.1211-7.6289 6.5039-10.641 9.8047h-0.003907c3.2734 1.3281 7.0117 0.78516 9.7734-1.418zm-6.6133 330.99c1.3789 2.582 3.1953 4.5391 5.4141 3.4492-1.0156-13.551-3.0195-25.156-16.75-31.789-0.21875-0.10938-0.39844-0.17969-0.57812-0.25781-2.1875-0.87109-4.375-1.6406-6.8672-2.4648-2.4922-0.82422-4.9219-1.4922-7.3789-2.2188-9.7031-2.832-20.562-1.418-30.555-1.8164-10.289-1.0742-20.684-0.46094-30.773 1.8125-2.4727 0.72656-4.9219 1.418-7.3789 2.2188-2.457 0.80469-4.6875 1.5977-6.832 2.4648l0.003906 0.003906c-0.20312 0.066406-0.39453 0.15234-0.57812 0.25781-13.77 6.6484-15.773 18.238-16.789 31.789 2.2188 1.0938 4.0352-0.87109 5.4141-3.4492 1.6406-3.0898 2.5117-6.9414 4.3242-10.031 1.543-2.4805 3.5273-4.6602 5.8516-6.4297 6.5938-5.0547 14.066-8.8398 22.039-11.168 2.0352-0.61719 4.0703-1.1641 6.1406-1.6719 1.8672-0.35938 3.7812-0.40625 5.668-0.14844 4.6172 0.25781 9.2305-0.39844 13.879-0.39844 4.0352 0 8.2031-0.50781 12.172-0.39844v-0.003907c3.9062 0.36328 7.7422 1.2578 11.41 2.6523 7.9531 2.3047 15.41 6.0742 21.977 11.121 2.3242 1.7695 4.3086 3.9492 5.8516 6.4297 1.8672 3.1055 2.7031 6.957 4.3359 10.047zm-3.8281-341.8c3.2422-2.207 5.6836-5.3984 6.9648-9.1016 1.2812-3.707 1.332-7.7266 0.14453-11.461-0.86719 5.5195-3.0039 10.758-6.2422 15.312-4.3242 5.5234-12.43 6.0156-18.645 9.1914 1.5078 3.8203 1.3242 8.1016-0.50781 11.773-0.070313 0.14062-0.17969 0.25-0.25 0.39844l-0.003907 0.003906c0.28125 4.6484-1.293 9.2188-4.375 12.715 2.6094 7.5078 3.9023 15.41 3.8281 23.359 3.8789-1.5078 6.9141-4.6211 8.3242-8.5352 1.4062-3.918 1.0469-8.25-0.98438-11.883-1.1719-2.1055-1.9023-4.4336-2.1445-6.832-0.9375-4.3359-0.35938-8.8633 1.6406-12.824 3.3672-4.7148 7.5156-8.8203 12.262-12.141zm-0.6875 80.516c2.5039-1.7812 4.6172-3.4883 6.8633-4.9219-3.6914-4.5273-8.8477-7.6211-14.582-8.75-5.7305-1.1289-11.676-0.21875-16.809 2.5703-0.14062 0.027343-0.27344 0.078125-0.39844 0.14844 0.17578 3.6367-0.60156 7.2539-2.2539 10.5-0.73047 1.3125-1.6328 2.5234-2.6836 3.5977 0.19922 1.7695 0.87891 3.4531 1.9609 4.8672 2.9414-2.1914 5-5.3594 5.8125-8.9375-0.13672-1.4453 0.36719-2.875 1.3828-3.9141 1.0156-1.0391 2.4375-1.5742 3.8867-1.4648 2.9141 0.019531 5.7812 0.74609 8.3555 2.1094 1.3555 0.75391 6.8789 5.3008 8.4766 4.1719zm13.672 107.83c-2.832-9.1562-8.5703-20.562-19.473-15.656 2.1719 7.4688 2.4844 15.352 0.91016 22.969 6.4414-1.7852 12.672-4.2422 18.594-7.332zm-15.477-211.8c-0.089844-0.050781-0.17969-0.10938-0.25781-0.17969-3.168-3.0312-7.3164-4.8359-11.695-5.0859-0.70703 7.3945-2.3047 14.676-4.7578 21.688 3.5391-1.1211 6.8945-2.7617 9.9531-4.8672 3.5312-2.9453 5.9219-7.0312 6.7578-11.555zm-10.391 371.25c5.0469 0 10.609-0.39844 10.203-5.0156-0.32422-0.79688-0.6875-1.5586-1.0156-2.3242-0.91406 0.98438-2.0352 1.7539-3.2812 2.2539-8.832 3.707-20.602-1.3828-29.832-1.3438-0.48828 0.003907-0.96875-0.09375-1.418-0.28906-12.387-0.039063-24.703 1.0938-37.094 1.1992v-0.003907c-0.35938-0.011719-0.71875-0.085937-1.0547-0.21875-7.6289 1.2734-15.945 3.4492-22.598 0.65625-1.25-0.48828-2.375-1.2578-3.2812-2.2539-0.35938 0.76562-0.6875 1.5273-1.0508 2.3242-0.40625 4.6172 5.1562 5.0156 10.203 5.0156h0.003907c4.4258-0.10938 8.8398-0.58203 13.191-1.4141 7.3594-1.6562 14.93-2.1953 22.453-1.5977 11.613-0.47656 23.242 0.035156 34.77 1.5234 0.59766 0.097656 1.1445 0.39062 1.5586 0.83203 2.7305 0.40234 5.4844 0.62109 8.2422 0.65625zm3.8281-181.81c3.0469-2.7305 4.3125-6.9375 3.2812-10.898-2.2148 1.7461-4.4688 3.4492-6.793 5.0859 1.332 1.8281 2.5 3.7656 3.4961 5.7969zm-0.46875 170.22c3.1602-3.1602-4.1797-8.1367-6.4688-9.375l-0.003906 0.003906c-8.7461-4.7031-18.211-7.9336-28.008-9.5586-0.10938 0-0.17969 0.039062-0.28906 0.039062-6.4297 0-13.949 0.070312-21.367 0.65625-8.4844 1.7812-16.668 4.7656-24.305 8.8633-2.293 1.2344-9.6289 6.2109-6.4688 9.375 0.56641 0.50781 1.2773 0.83594 2.0352 0.9375 0.058594-0.3125 0.18359-0.60547 0.36328-0.86719 9.2969-13.512 22.855-14.316 38.223-14.316 13.672 0 39.059-0.14063 46.215 14.277 0.019531 0 0.054687 0 0.054687-0.03125zm-0.6875 17.762-0.50781-0.10547-0.003906 0.003906c-7.4492 0.13281-14.887-0.60156-22.164-2.1875-0.10938 0-0.17969-0.070312-0.28906-0.10938-7.0508-0.4375-14.027-0.10938-21.258-0.21875-5.9414-0.37891-11.898-0.37891-17.84 0-0.22656 0.16016-0.48828 0.27344-0.76172 0.32812-1.5625 0.32812-3.4492 0.65234-5.5625 0.98047h0.003906c-2.3867 0.54297-4.8008 0.95703-7.2305 1.2344-3.1367 0.15234-6.2773 0.14062-9.4141-0.03125l-0.50781 0.10547v-0.003906c0.43359 0.74609 1.0156 1.3906 1.7109 1.8945 1.6445 1.2031 3.5 2.0898 5.4688 2.6133l2.9023 0.79688c-0.54688 1.6406-2.6523 5.5234-0.28906 6.7227 0.72656 0.40625 5.1953-1.2305 5.1953-1.957 0.39844 2.3945-0.43359 3.8867 2.1445 4.9766 1.2734 0.54688 4.1797 0.98047 5.1641-0.36719-0.63281 0.68359-0.8125 1.6758-0.46094 2.5391 0.35156 0.86328 1.168 1.4492 2.1016 1.4961 1.8906-0.17188 3.6719-0.98047 5.0469-2.2891 0.83594-0.61719 1.6719-1.2695 2.5039-1.9258 0 3.5977 4.8359 6.1797 6.5625 2.1094 1.8164 1.5273 7.1602 3.5586 7.918 0-0.10938 0.50781 7.8164 3.8281 8.0352-2.1094 0.83203 0.65625 1.6406 1.3086 2.5039 1.9258 1.375 1.3125 3.1562 2.1211 5.0508 2.2891 0.92969-0.046875 1.75-0.63281 2.1016-1.4961 0.35156-0.86328 0.17188-1.8555-0.46094-2.5391 0.98438 1.3438 3.8867 0.91406 5.1641 0.36719 2.5742-1.0938 1.7461-2.582 2.1445-4.9766 0 0.72656 4.4688 2.3633 5.1953 1.957 2.3633-1.1992 0.25-5.0859-0.28906-6.7227l2.8828-0.79688c1.9727-0.51562 3.8281-1.4023 5.4688-2.6133 0.71094-0.5 1.3047-1.1406 1.75-1.8867zm-9.1406-202.26c8.9961-6.3828 17.414-13.543 25.156-21.398-14.898 0.4375-29.793 1.4922-44.691 1.6016-0.64062 0-1.2773-0.097656-1.8867-0.29688-2.2422-0.0625-4.4805 0.19531-6.6484 0.76562-2.2148 0.25-4.4297 0.4375-6.6836 0.61719-4.3242 0.70703-8.7227 0.85547-13.082 0.4375-2.7773-0.92188-5.6211-1.6406-8.5039-2.1406-4.5-0.25781-9.0469 0.14062-13.551-0.078125-3.9609-0.17969-7.918-0.35938-11.844-0.50781-1.7773-0.070312-9.625 0.72656-10.715-0.39844 7.7383 7.8594 16.156 15.02 25.156 21.398 0.34375 0.24219 0.66016 0.52344 0.94531 0.83594 3.6445-2.6055 7.7695-4.4648 12.137-5.4688 0.96875-0.24609 1.9922-0.20703 2.9414 0.10938 13.102-4.5508 27.383-4.3711 40.363 0.50781 3.5586 1.0547 6.9219 2.6875 9.9531 4.8281 0.29297-0.29688 0.61328-0.57031 0.95312-0.8125zm-1.1992 184.84c0.87109 0.14062 2.1445 0.35938 3.5586 0.57812-7.957-8.9727-29.324-8.75-38.828-8.6133-11.266 0.17969-22.273-0.39844-30.191 8.1367 0.21875-0.03125 0.4375-0.070313 0.57812-0.10547l0.003906 0.003906c8.0508-0.85156 16.141-1.293 24.234-1.3125 13.559-0.91406 27.172-0.48047 40.645 1.2969zm-1.125-153.73c-0.039062 8.3945-3.3398 18.207-12.535 20.711-5.2734 1.4531-13.23-3.5234-9.7383-9.4844 2.2188-3.8281 10.32-6.0664 5.9609-12.062-3.4688-3.9297-8.5352-6.0703-13.773-5.8164-5.0156 0.039063-12.031 1.0234-14.766 5.9609-2.9805 5.3438 5.7734 9.8438 8.0625 13.512 3.7461 6.0156-1.8164 8.9727-7.4414 8.793v0.003906c-4.3359 0.48828-8.6875-0.73828-12.125-3.4219-3.4375-2.6836-5.6836-6.6055-6.2617-10.93-1.043-5.25-0.26172-10.695 2.2148-15.441 2.293-4.4688 8.5039-9.6641 7.4492-14.711-1.0156 0.39844-2.0352 0.79688-2.9805 1.2344-0.625 0.26172-1.2852 0.41797-1.9609 0.47266-17.297 12.496-14.219 45.598 7.2305 52.758l2.8672-0.10938v-0.003907c0.75391-0.39062 1.5898-0.60156 2.4375-0.61719 4.6875-0.10938 9.3359-0.078125 14.023 0.03125 4.6875-0.10938 9.375-0.14062 14.023-0.03125h-0.003906c0.85156 0.015625 1.6875 0.22656 2.4414 0.61719l2.9023 0.10938c2.1172-0.47266 4.0938-1.4297 5.7773-2.7969 18.426-12.207 16.57-45.449-4.8672-53.227v-0.003906c-1.3906-0.34766-2.7539-0.80859-4.0703-1.375-0.61719 4.0312 8.0664 8.3555 10.031 11.297 3.0547 4.25 4.8242 9.2891 5.1016 14.516zm-9.8438-187.73c5.5234-13.371 9.2969-29.863 4.6172-43.637h-0.003906c-4.4102 13.637-6.9062 27.82-7.4102 42.145 0.95703 0.44141 1.8867 0.93359 2.7891 1.4766zm-0.10937 199.06c2.6602-3.1406 3.8984-7.2461 3.418-11.336-1.125-9.5547-6.5625-13.184-13.512-18.566h-0.003907c-3.0859-2.0078-3.9688-6.1328-1.9727-9.2266-8.2461-0.80469-16.57 0.097656-24.449 2.6523 3.4844 8.8633-6.9062 13.043-9.1602 22.672-1.707 7.3398-0.39844 17.223 9.1211 17.473 1.9961 0.070313 4.7266 1.6406 2.293-0.72656h-0.003906c-2.6719-2.4492-5.0039-5.25-6.9375-8.3164-8.0352-13.879 16.055-19.91 24.812-18.824 12.062 1.5273 23.941 13.559 13.77 24.965-3.4297 3.8555 0.62109 1.6172 2.6172-0.78125zm0.40625-172.11c3.2812-1.8164 2.2852-7.1094 0.90625-10.023v-0.003906c-1.3086-2.7344-3.2539-5.1133-5.6719-6.9375-1.582 0.83984-3.4883 0.78516-5.0156-0.14844-8.0273-4.5781-18.707-3.1211-27.246-0.98047-3.2461 1.8555-5.8398 4.6758-7.4141 8.0664-1.3789 2.9023-2.3555 8.2031 0.94531 10.023 1.4531 0.79688 3.0898 0.90625 4.543 1.8555h0.003907c1.4336 0.99609 2.8125 2.0625 4.1367 3.1992 3.5586 2.9414 12.387 10.172 7.4102 15.312-3.8281 3.9961-11.445 1.7461-14.82-1.5977-0.54297-0.55078-1.0312-1.1602-1.4531-1.8125-2.0742 7.4805-3.2812 16.164 2.8711 17.691 1.5117 0.35938 2.7773 1.3906 3.4414 2.793 0.66406 1.4062 0.65234 3.0391-0.027344 4.4336-0.03125 0.14844-0.03125 0.25781-0.070312 0.39844l-0.003906 0.003906c-1.0156 3.2734-1.0547 6.7734-0.10938 10.066 4.0312 12.895 35.715 6.9023 31.5-10.066-0.039063-0.14062-0.039063-0.25-0.070313-0.39844v-0.003907c-0.67969-1.3945-0.69141-3.0273-0.027344-4.4336 0.66406-1.4023 1.9297-2.4336 3.4414-2.793 6.1406-1.5273 4.9219-10.211 2.8711-17.691-0.41016 0.66016-0.89844 1.2695-1.457 1.8125-3.375 3.3398-10.969 5.5938-14.82 1.5977-4.9219-5.1562 3.8281-12.387 7.4492-15.312 1.3047-1.1445 2.6719-2.2148 4.1016-3.1992 1.4883-0.96094 3.0859-1.0703 4.5781-1.8711zm3.6328 381.89h-0.003906c-3.0469-1.5703-5.7617-3.7188-7.9961-6.3203-4.2031-5.332-7.332-11.426-9.2266-17.945-2.5391 0.6875-5.2383 0.49609-7.6562-0.54688-1.6875-0.94922-3.6367-1.332-5.5586-1.0938-0.87109 0.082032-1.7461 0.09375-2.6172 0.035156-1.9453 7.0898-5.2656 13.73-9.7695 19.543-2.8555 3.2891-6.4414 5.8672-10.469 7.5273 9.543 1.4609 19.199 2.0586 28.848 1.7773 8.2031-0.48047 16.363-1.4805 24.441-2.9922zm-7.3008-372.26c-0.54688 0.46875-1.125 0.94141-1.6719 1.4492h-0.003906c-1.5664 1.3477-3.0312 2.8086-4.375 4.375-0.1875 0.21875-0.28906 0.46875-0.47656 0.6875 3.3203 0.30078 5.6055-3.8438 6.5195-6.5273zm-9.7891 89.539c0.21875-10.531 0.10938-21.031-0.54688-31.531-0.32422-0.066406-0.64062-0.16406-0.94531-0.29688-4.7266-1.5781-9.8398-1.5781-14.566 0-0.72656 11.047-0.83594 22.094-0.54687 33.172 5.5547-0.25 11.09-0.6875 16.605-1.3438zm-0.54688-129.23c0.12109-8.1133 1.1055-16.188 2.9453-24.09-6.8164-3.2539-14.551-4.0273-21.875-2.1875 2.0469 8.4531 3.1953 17.102 3.418 25.797 5.1641-0.64453 10.402-0.48438 15.52 0.48047zm-0.65625 440.93c-0.36719-5.8008 1.2734-11.551 4.6562-16.277-5.2344 0.78516-10.516 1.1875-15.805 1.1992-2.3633-0.039062-4.6523-0.10938-6.9766-0.21875h-0.003906c2.8047 4.5508 4.1719 9.8438 3.9219 15.188 4.6719 1.0508 9.5156 1.0898 14.203 0.10938zm-25.211-401.25c0.91406 2.6836 3.1992 6.832 6.5078 6.5039-0.1875-0.21875-0.28906-0.46875-0.47656-0.6875l0.003906-0.003906c-1.3359-1.5742-2.8008-3.0391-4.375-4.375-0.51562-0.49609-1.1133-0.96875-1.6602-1.4375zm4.0742 345.01c-0.33984-0.20703-0.63672-0.48047-0.875-0.79688-0.87891 0.55859-1.8125 1.0195-2.793 1.375-0.91406 0.30078-1.875 0.43359-2.8398 0.40234-0.32422-0.039062-0.65234-0.070312-0.98047-0.14062l0.003907-0.003906c-0.87109 5.6836-3.8242 10.836-8.2852 14.461-3.0078 2.2305-6.5938 3.5469-10.328 3.8008-3.7344 0.25-7.4648-0.57812-10.742-2.3867-1.3438-0.79688-1.7812-1.3438-1.6406-1.707 0.14062-0.35938 0.87109-0.47656 2.2852-0.32812v0.003906c2.2031 0.30469 4.4258 0.46094 6.6484 0.46875 3.8789-0.003906 7.6367-1.3398 10.648-3.7773 2.7812-2.4922 4.7305-5.7773 5.5781-9.4141-1.1836 1.4141-2.4844 2.7305-3.8867 3.9258-2.7656 2.3789-6.2422 3.7734-9.8828 3.9609-3.3633 0.0625-6.4844-1.7422-8.1055-4.6875-1.0742-2.1211-1.3711-4.5508-0.83594-6.8672 0.4375-2.7344 2.0586-5.1367 4.4336-6.5625 1.5586-0.72656 2.3555-0.4375 2.4336-0.14844 0.14062 0.39844-0.36719 0.83594-1.125 1.8164-1.1484 1.582-1.8164 3.4609-1.9258 5.4141-0.10156 1.418 0.22656 2.8359 0.94141 4.0664 0.94141 1.332 2.5234 2.0547 4.1445 1.8945 2.4453-0.32812 4.7344-1.3945 6.5625-3.0508 1.1602-1.0117 2.207-2.1484 3.1289-3.3828 0.42578-0.55859 0.80469-1.1562 1.125-1.7812-0.26953-0.13281-0.52344-0.29297-0.76562-0.46875-0.34375-0.33984-0.66016-0.70703-0.94531-1.0938-1.2188 0.35547-2.5234 0.28906-3.7031-0.1875-1.6094-0.73828-2.8633-2.082-3.4883-3.7422-0.60938-1.5625-0.78516-3.2656-0.50781-4.9219-1.7344-0.79297-3.3281-1.8555-4.7266-3.1523-1.793-1.6523-2.8398-3.9609-2.9023-6.3984-2.6758-0.41797-5.1875-1.5508-7.2695-3.2812 0.25 0.21875-2.9805 2.0664-3.3086 2.1875-1.4844 0.52734-3.1016 0.5625-4.6094 0.10938-3.3086-0.87109-5.3047-2.4727-5.5625-5.7734 0 0.35938-1.7461 2.1445-1.7461 3.2812l0.003906-0.003907c0.066407 1.5781 0.73047 3.0703 1.8516 4.1797 0.93359 0.79297 1.9727 1.4531 3.0898 1.9609 1.0156 0.43359 1.5977 0.83203 1.5586 1.2695-0.039062 0.4375-0.54687 0.79688-1.5977 1.125v0.003906c-1.7461 0.30859-3.5508 0.066406-5.1562-0.69141-2.8711-1.4609-4.7461-4.3398-4.9219-7.5586-0.070312-2.4727 1.9258-4.9219 1.6016-7.1602v0.003906c-0.85547 0.29297-1.6641 0.70703-2.3984 1.2344-0.55078-0.94531-1-1.9414-1.3477-2.9805-0.33984-0.77734-0.62891-1.5781-0.86719-2.3945l-0.54687 0.28906c-0.27734 0.16016-0.57031 0.29297-0.87109 0.39844l-1.8555 0.72656 0.003906 0.003907c-1.1172 0.51953-2.3086 0.86328-3.5273 1.0156l-1.6406 0.17969-0.83594 0.10938c-0.10938 0-0.28906 0.10938-0.36719 0l-0.10938-0.4375c-0.33594-1.4023-0.85156-2.7578-1.5273-4.0312-0.42969-0.92188-0.95312-1.7969-1.5586-2.6133-2.7969-0.51953-5.6758-0.42188-8.4336 0.28906 0.54297-2.1875 1.3359-4.3086 2.3633-6.3203-2.2852 0.10938-4.5781 2.7617-6.5625 2.4648 0.023438-1.1484 0.23047-2.2891 0.61719-3.3711 0.48828-2.2227 1.1562-4.3984 2.0039-6.5078 0.14062-0.39844 1.8867-5.1172 2.0352-5.1172l-0.003906-0.003906c-1.4688 0.085937-2.8906-0.53516-3.8281-1.6719-0.50781-1.293-0.41406-2.7461 0.25781-3.9609 0.15234-0.32422 0.32422-0.64062 0.50781-0.94531-0.58594 0-1.1641 0.039062-1.7461 0-0.1875 0-0.32812-0.039063-0.50781-0.039063 0.03125 0.54688 0.10938 1.0938 0.10938 1.6406h0.003906c0.027344 0.73047-0.085937 1.457-0.32812 2.1445-0.074218 0.52344-0.20703 1.0352-0.40234 1.5273-1.5898 4.0469-4.8867 7.1875-9.0117 8.5742 0.80469 4.1953 2.1328 8.2734 3.9609 12.133 1.8555 4.0547 4.0508 7.9453 6.5625 11.629 3.5352 5.3438 7.5117 10.387 11.879 15.078 6.5625 7.0508 9.6289 9.2969 9.1211 9.9922-0.28906 0.54688-4.2148-0.57812-11.809-7.2305-4.9883-4.4805-9.4531-9.5156-13.301-15.008-2.8047-3.8281-5.2344-7.9141-7.2617-12.207-0.79688-1.707-1.5625-3.5273-2.293-5.4688 5.5234 22.203 22.125 38.477 39.129 54.535h0.003906c1.2617-0.32422 2.5977-0.19531 3.7773 0.36719 10.648 4.9219 22.309 7.1094 30.301 15.805 7.4336-0.78125 14.484-3.6836 20.312-8.3555 4.6602-4.9609 7.9102-11.078 9.4102-17.715zm-4.6523-383.09c-0.48438-14.328-2.9805-28.512-7.4102-42.145-4.6523 13.77-0.90625 30.266 4.6172 43.637 0.35938-0.21875 0.76172-0.39844 1.125-0.58594 0.47656-0.38281 1.0156-0.67578 1.5977-0.87109 0.027344-0.003906 0.050782-0.015625 0.070313-0.035156zm0.72656 436.41c-0.089843-1.832-0.51953-3.6328-1.2695-5.3047-2.4023-5.0547-17.551-5.2344-22.023-6.0156-11.551-1.9648-25.281 0.35938-36.367-3.4883l0.003906-0.003906c-0.66016 1.7266-1.2305 3.4844-1.707 5.2695 6.25 9.082 25.156 6.1797 34.73 6.25 8.9961-0.26562 17.977 0.85156 26.633 3.3125zm-6.4688-341.47c1.082-1.418 1.7617-3.0977 1.9648-4.8672-1.0547-1.0742-1.957-2.2852-2.6875-3.6016-1.6367-3.2461-2.4141-6.8633-2.2539-10.5-0.125-0.066406-0.25781-0.11719-0.39844-0.14453-5.1328-2.793-11.078-3.6992-16.809-2.5703-5.7305 1.125-10.891 4.2227-14.582 8.75 2.2461 1.418 4.375 3.1211 6.8633 4.9219 1.6406 1.125 7.1094-3.418 8.4648-4.1797 2.5898-1.3711 5.4688-2.0938 8.3945-2.1094 1.4141-0.10937 2.8008 0.40234 3.8047 1.3984 1.0039 1 1.5234 2.3828 1.4258 3.7969v0.1875-0.003906c0.81641 3.5703 2.8789 6.7305 5.8125 8.9219zm-10.5 14.059c1.5625-1.6406 3.2773-3.1211 5.125-4.4297-4.5117-2.7852-7.9141-7.0508-9.625-12.062-4.3242 1.8164-7.9961 5.4688-13.301 5.4141-6.3594-0.14844-9.1562-7.4883-15.008-8.2031-1.9336-0.027344-3.7109-1.0703-4.6758-2.75-0.96094-1.6758-0.96484-3.7383-0.007812-5.4219 5.2578-8.8008 13.617-15.316 23.434-18.277-1.082-0.94531-2.0664-1.9922-2.9453-3.1289-3.4805-3.7148-4.9883-8.8633-4.0664-13.871-8.7305 13.805-15.609 28.695-20.453 44.297 1.0938 0.28906 2.1875 0.61719 3.2305 0.98047 3.9609 1.418 2.2539 7.7383-1.7461 6.3203-1.0156-0.36328-2.0352-0.69141-3.0508-0.98047-0.61719 2.8711-1.125 5.7734-1.4883 8.75h0.003906c5-0.91016 10.164-0.13281 14.676 2.2148 1.9883-2.7773 4.75-4.9062 7.9414-6.1211 1.2461-0.45312 2.6289-0.33594 3.7773 0.32812 6.6523 0.28516 13.031 2.7188 18.18 6.9414zm0.98438-50.426c-0.074218-7.9492 1.2227-15.855 3.8281-23.363-3.0664-3.5039-4.6367-8.0664-4.375-12.715-0.070312-0.14844-0.17969-0.25781-0.25-0.39844-1.8203-3.6797-2.0039-7.9531-0.51172-11.777-6.1797-3.1992-14.277-3.668-18.594-9.1914-3.25-4.5508-5.3984-9.793-6.2812-15.312-1.1797 3.7383-1.125 7.7539 0.15625 11.457s3.7188 6.8945 6.9531 9.1055c4.7383 3.3203 8.8906 7.4102 12.277 12.102 1.9688 3.9727 2.5469 8.4883 1.6406 12.824-0.25781 2.4023-1 4.7266-2.1875 6.832-2.0352 3.6367-2.3945 7.9805-0.98047 11.898 1.4141 3.9219 4.4609 7.0391 8.3516 8.5391zm0.14062-59.188v-0.003906c-2.4531-7.0117-4.0508-14.293-4.7578-21.688-4.3789 0.25-8.5273 2.0547-11.695 5.0859-0.070312 0.070312-0.14844 0.10937-0.21875 0.17969 0.80469 4.5234 3.1836 8.6172 6.7148 11.555 3.0625 2.1094 6.418 3.7461 9.957 4.8672zm-3.9922 222.28c-1.3555-1.5039-2.5938-3.1055-3.707-4.7969-30.41 2.6133-66.559 0.36719-92.863-16.023-22.637-14.094 0.070313-32.625 13.621-43.488-0.98047-1.418-1.9648-2.8711-2.9023-4.2891v0.003906c-0.29297 0.45703-0.66406 0.86328-1.0938 1.1953-5.8984 4.6016-11.223 9.8945-15.859 15.766-1.2344 1.9648-2.4727 3.9648-3.7422 5.9609-3.4336 6.4453-4.5039 13.891-3.0195 21.039 3.0508 14.969 34.152 18.965 45.777 21.359l0.003907 0.003906c21.043 3.7344 42.473 4.832 63.785 3.2695zm-6.1406-49.285c1.0039-2.0352 2.1836-3.9805 3.5234-5.8125-2.3242-1.6406-4.5781-3.3398-6.793-5.0859-1.0352 3.957 0.22656 8.1641 3.2695 10.898zm-6.7578 76.824c10.43 3.1211 12.973-9.2969 14.824-17.078-21.727 1.3672-43.539 0.57812-65.109-2.3555 0.69531 12.715 26.25 13.441 34.738 14.859v-0.003906c5.2656 1.2188 10.461 2.7461 15.547 4.5781zm3.2305-47.164v0.003906c-1.5547-7.6211-1.2383-15.5 0.91406-22.969-10.906-4.9219-16.641 6.5039-19.473 15.656 5.9102 3.082 12.133 5.5312 18.559 7.3125zm-6.6094-171.52c-0.72656-0.14844-1.4492-0.25781-2.1875-0.39844-2.7617 2.5742-5.4688 5.2266-8.1445 7.957 2.8008 1.5273 1.0547 6.5625-2.6836 5.8828-0.79688-0.14844-1.5625-0.32812-2.3242-0.50781-1.6719 1.8555-3.2812 3.7773-4.9219 5.7031 0.57812 0.21875 1.125 0.39844 1.707 0.61719 3.8281 1.5273 2.1875 7.8477-1.7461 6.3203-1.3438-0.54688-2.7344-1.0156-4.1055-1.4883-1.3398 1.8477-2.6133 3.7383-3.8281 5.6641 0.98047 0.4375 1.9258 0.87109 2.8711 1.3438 3.7422 1.9258 0.43359 7.5898-3.3086 5.6328l-0.003906 0.007812c-0.92188-0.47266-1.8672-0.89844-2.832-1.2734-0.875 1.6406-1.707 3.2812-2.4727 4.9766 0.90625 0.28906 1.7812 0.58594 2.6914 0.94531 3.8867 1.4883 2.1875 7.8086-1.7461 6.2852-1.125-0.43359-2.2539-0.79688-3.3789-1.1992-1.0195 2.9219-1.8555 5.9062-2.5039 8.9336 2.2031 5.293 4.7148 10.449 7.5195 15.445 0.28906-1.8555 0.61719-3.668 1.0156-5.4688h-0.28906c-1.8125 0-3.2812-1.4688-3.2812-3.2812s1.4688-3.2812 3.2812-3.2812c0.65234 0 1.2695 0.070313 1.8867 0.10938 5.8594-21.066 17.266-40.07 28.785-58.926zm1.6406 140.97c-2.3828-4.4375-2.3945-9.7695-0.035156-14.219-2.0352-1.707-4.0352-3.4492-5.9609-5.2344-4.5781 2.3242-4.1055 7.8477-3.1992 12.902 0.019532 0.15625 0.019532 0.3125 0 0.46875 0.39453 0.82422 0.39453 1.7852-0.003906 2.6094-0.39453 0.82422-1.1406 1.4297-2.0312 1.6406-4.1367 0.82422-7.8125 3.1836-10.281 6.6094-2.4648 3.4258-3.543 7.6602-3.0117 11.848 1.6406 1.1641 3.4141 2.293 5.1562 3.3789 3.4297-10.012 9.7695-19.457 19.359-20.004zm-54.277 33.391c16.73 4.6094 34.059 6.6914 51.406 6.1758-12.777-4.25-24.633-10.879-34.941-19.535-7.0117 7.5234-19.621 4.9805-27.395-0.50781-4.5938-2.9648-7.6484-7.8008-8.3555-13.223-0.17188-4.3867 1.332-8.6758 4.2109-11.988-9.7734 7.2305-20.711 17.223-11.625 27.465 6.0898 6.8906 18.227 9.25 26.691 11.613zm43.262-187.66c2.7617 2.2031 6.5 2.7422 9.7734 1.418-3.375-3.4531-6.9258-6.7266-10.645-9.8047-1.9375 2.5938-1.5625 6.2461 0.87109 8.3867zm-9.7344 394.54c5.7422 1.2734 11.641 1.6641 17.5 1.1602-4.4648-2.8516-9.3086-5.0625-14.387-6.5625-1.0781 1.7656-2.1289 3.582-3.1133 5.4023zm8.7891-382.91c-0.98047-0.17969-1.9961-0.35938-2.9766-0.61719v-0.003906c-0.74219-0.15625-1.3945-0.60156-1.8164-1.2344-0.66797 0.79297-1.5547 1.3711-2.5469 1.6719-12.504 4.0156-23.387 11.953-31.023 22.637 0.83594 5.3477 1.9766 10.641 3.4102 15.859 0.30859 0.035156 0.60938 0.10938 0.89844 0.21875 1.3438 0.60547 2.7266 1.1289 4.1406 1.5586 0.76562-1.707 1.5977-3.4141 2.4727-5.0859-0.94531-0.25-1.8555-0.50781-2.7344-0.79688-1.5312-0.62891-2.3516-2.3008-1.918-3.8945 0.43359-1.5977 1.9844-2.6211 3.6211-2.3906 1.4531 0.39844 2.9102 0.83203 4.3242 1.2695 1.1992-1.9258 2.3945-3.8281 3.668-5.6641-1.125-0.36719-2.1875-0.72656-3.3398-1.125-3.9961-1.3086-2.293-7.6562 1.707-6.2891 1.9258 0.61719 3.8281 1.2734 5.7422 1.8906 1.4492-1.8164 2.9023-3.5977 4.4297-5.3438-0.32812-0.070312-0.65625-0.17969-0.98047-0.25-4.1445-0.79688-2.4023-7.1094 1.707-6.2891 1.418 0.29688 2.8008 0.69531 4.1797 1.0938 2.2422-2.4922 4.6406-4.8906 7.0352-7.2148zm-3.8828 135.45c-0.78906-3.0039-0.75391-6.1641 0.10547-9.1445 0.85547-2.9844 2.5-5.6836 4.7617-7.8086-7.457-7.2109-14.273-15.051-20.383-23.434-2.3633 1.2344-1.707 6.0156-1.4531 8.0664 0.019531 0.10547 0.019531 0.21484 0 0.32031 1.0156 2.0352 0.14844 4.9219-2.6914 4.7266-1.6406-0.10938-2.1055 0.46875-2.543 2.0742-0.32812 1.2773-0.4375 2.6055-0.32422 3.918 4.2539 0.6875 7.9688 3.2656 10.098 7.0117 2.6211 4.4922 1.3594 10.25-2.9062 13.23-4.6562 3.543-11.238 2.9766-15.223-1.3086-3.6055-4.4219-3.4805-10.801 0.28906-15.082-1.2305-3.1953-6.2461-10.203-8.3555-6.6836-0.41016 0.67187-1.0586 1.1641-1.8164 1.3789-1.2031 0.82422-2.8359 0.60156-3.7812-0.50781-2.0195-2.6992-5.2852-4.168-8.6445-3.8828 9.7617 17.461 22.535 33.059 37.734 46.066 0.48438-4.2617 2.1602-8.2969 4.8398-11.648 2.6758-3.3516 6.2422-5.8789 10.293-7.293zm11.223-222.28v-0.003907c-5.5586-5.0469-11.734-9.3711-18.383-12.859-11.59-3.7383-24.109-3.418-35.496 0.90625-2.9414 0.80469-5.9844-0.89844-6.832-3.8281-7.8086-30.668-41.562-29.395-65.625-19.84-29.855 11.465-61.332 18.16-93.27 19.84 8.0664 7.5195 23.871 11.77 31.977 16.492 12.609 7.6914 24.188 16.957 34.453 27.574 21.328 21.398 35.133 48.469 47.156 75.828 11.195 25.539 22.855 56.969 38.586 85.16h0.003906c2.4102-0.80078 4.9922-0.94922 7.4805-0.43359 2.4883 0.51562 4.793 1.6836 6.6875 3.3789 4.25-3.5938 9.6641-0.87109 13.551 3.5977 0.44141-2.9297 2.2773-5.4609 4.9219-6.793-0.85938-4.6055 0.8125-9.3164 4.375-12.355-14.227-21.219-23.355-45.441-26.664-70.773-3.6953-22.129-1.0078-44.848 7.7383-65.508 9.082-20.223 29.723-29.957 49.34-40.387zm-29.609 215.34c1.4883-1.418 0.61719-3.5273-0.28906-4.9766-1.1758-1.6445-3.0039-2.7031-5.0156-2.9102-0.25781 0.54688-0.71484 0.97266-1.2734 1.1992-0.019531 0.070313-0.058593 0.13281-0.10938 0.1875-1.9727 1.8398-2.1641 4.9023-0.43359 6.9727 1.8164 2.1797 5.3047 1.2344 7.1211-0.47266zm1.418 254.14c-6.6445 0.74219-13.328-1.0117-18.75-4.9219-3.4883 8.3164 6.4297 13.258 14.531 16.055 1.1211-3.8125 2.5312-7.5352 4.2188-11.133zm-30.594-30.484c6.25 8.0664 23.254 24.523 29.027 18.496-22.34-21.219-42.508-43.203-42.98-75.902l0.003906 0.003906c-0.042968-0.82812 0.12109-1.6484 0.46875-2.3984-5.3281-8.8828-8.9727-18.676-10.75-28.883-3.5586-14.715-9.7383-35-9.7383-53.188 0-1.2734 0.039063-2.543 0.10938-3.8281-11.59-4.375-4.5391 17.586-3.1211 23.105 2.1875 8.5039 5.2344 16.711 7.6992 25.105 9.2969 31.102 8.3555 65.543 26.195 93.121h-0.003907c0.44922 0.39844 0.82031 0.87891 1.0938 1.4141 0.14062 0.25 0.28906 0.50781 0.46875 0.79688 0.51172 0.74219 1.0195 1.4297 1.5273 2.1562zm2.2148-195.14c4.5781 3.2305 13.988 6.2852 18.496 1.418-6.8086-6.25-13.059-13.082-18.676-20.422-6.25 5.9219-7.8477 13.34 0.17969 19.004zm-14.902 107.76c0.72656 3.0195 9.0117 28.438 13.52 23.074-1.4883-32.77-19.797-61.207-15.039-94.539-1.5977-0.61719-3.1953-1.1992-4.7969-1.8867-7.9531 14.68-1.4883 37.855 1.7461 52.898 1.4922 6.832 2.9297 13.66 4.5703 20.453zm-12.895-141.26c1.0156-1.2734 2.1445-2.4727 3.2812-3.668-5.7227-11.258-12.281-22.066-19.621-32.336-7.1914-10.172-15.516-19.074-18.746-31.391h-0.003906c-0.12109-0.47656-0.19141-0.96484-0.21875-1.457-1.6094-0.67969-3.4258-0.69531-5.0469-0.039063 0.54688 13.629 16.492 31.977 24.305 40.293 7.6172 8.1797 11.008 18.82 16.055 28.598zm-5.6992 68.672c0.70703-1.9961 1.582-3.9258 2.6133-5.7734-7.4844-4.5195-12.461-12.246-13.48-20.93-4.4688 4.6172-9.4453 8.8281-13.984 13.301-2.3281 2.3555-4.418 4.9336-6.25 7.6992 10.352 1.9883 20.711 3.9219 31.102 5.7031zm-22.055 99.945c6.7578 0.25 13.531 0.46875 20.312 0.65234-0.90625-4.5391-1.7461-9.082-2.6523-13.621-5.5938 0.61719-11.156 1.0938-16.711 1.3789l-0.003906-0.003906c0.23828 3.8906-0.082031 7.7969-0.94531 11.594zm16.82-153.03c2.1445-3.3789 4.2891-6.6875 6.5625-9.9219-4.1445-7.4102-7.1094-15.312-11.195-22.816-4.2109-7.7773-11.84-13.301-16.457-20.93-5.6328-9.3359-13.551-17.949-14.766-28.488-3.418 1.4922-7.1914 3.418-11.008 5.4688l0.003906 0.003906c0.72266 1.3867 1.2734 2.8555 1.6406 4.375 2.7695 3.0352 4.1289 7.1016 3.7383 11.191 3.2734 7.6562 7.668 14.785 13.043 21.148 10.703 13.047 22.227 24.637 28.438 39.969zm-1.3281 129.38c-0.4375-2.0742-0.87109-4.1445-1.3438-6.2109-3.9961-0.1875-7.957-0.39844-11.918-0.65625-0.86719 2.5938-1.3555 5.2969-1.4531 8.0273 4.8711-0.25 9.832-0.64844 14.715-1.1602zm-4.1172-17.23c-0.61719-2.1875-1.2344-4.375-1.9258-6.5039-0.10938-0.32812-0.21875-0.65625-0.32812-1.0156-22.164 3.7422-46.906-5.3438-68.523-9.082-1.7812 2.6836-3.4883 5.4141-5.3047 8.0273 25.137 4.582 50.555 7.4453 76.082 8.5742zm-6.6875-51.121c-2.6523-0.46875-5.3359-0.98047-7.9883-1.4883-1.2734 9.4453-3.5273 19.004-4.0703 28.438-0.29688 5.3828 7.957 4.8359 13.152 4.543-2.543-10.699-4.5078-23.961-1.0938-31.52zm-4.2891-39.488v-0.003906c4.4961-4.4297 8.4922-9.3398 11.918-14.645-3.043-8.9961-7.6953-17.367-13.734-24.703-1.1797 1.8867-3.1641 3.1211-5.375 3.3438-6.3359-0.25781-11.402-5.3555-11.621-11.691 0.30469-2.793 2.1641-5.168 4.7969-6.1367l-2.6133-3.0586c-4.5-5.2578-8.5156-10.91-11.996-16.891-4.3047 5.0156-9.9688 8.6758-16.312 10.535-5.0547 1.6836-10.445 2.0977-15.695 1.1992 6.3203 10.172 14.715 19.801 20.348 29.645h0.003906c1.5234-1.5859 3.6914-2.3906 5.8828-2.1875 2.8594 0.39844 5.3633 2.1211 6.7539 4.6484 1.4492 2.2734 1.9102 5.0391 1.2734 7.6562-0.64062 2.2695-2.4883 3.9883-4.7969 4.4688 6.8672 9.2969 14.766 17.586 21.367 27.07 3.1875-3.1758 6.5703-6.1953 9.8008-9.2812zm-9.6641 109.38v-0.003906c-0.035156-3.0664 0.22266-6.1328 0.76563-9.1523-5.7812-0.4375-11.516-0.98438-17.297-1.5625v-0.003906c-0.42969 3.5664-1.0938 7.0977-1.9961 10.574 6.1406 0.17188 12.316 0.25 18.527 0.14063zm-0.039062 10.898c-7.3398 0.14062-14.641 0-21.941-0.28906-1.2344 3.3398-2.6523 6.6133-4.1445 9.8828 8.0664 0.39844 16.148 0.78516 24.238 1.1602v-0.003906c0.027344-0.27344 0.089844-0.53906 0.17969-0.79688 1.0195-3.2266 1.582-6.5781 1.668-9.9609zm-4.6094-84.258v-0.039063c-0.39844-0.078124-0.79688-0.1875-1.2344-0.25781-1.3438 2.2539-2.7344 4.5078-4.375 6.6875-0.26953 0.37891-0.58984 0.72266-0.94531 1.0195-1.082 2.125-3.6367 3.0312-5.8164 2.0664-2.5547-0.9375-4.9492-2.2617-7.1094-3.9219-5.5195 7.1914-11.484 13.949-17.5 20.742-0.54688 0.61719-1.0547 1.2734-1.5625 1.9258 10.938 2.2188 23.039 5.7422 34.957 7.6562-0.77734-2.9961-0.91797-6.1211-0.41016-9.1758 1.0859-8.9414 2.9414-17.77 3.9961-26.711zm-4.1445-16.953c1.2344-1.707 2.6211-3.3789 4.0352-4.9766-10.539-16.055-23.801-28.629-32.992-46.141-7.1523-13.59-19.906-25.469-25.469-39.922-2.8516 2.1953-5.5469 4.5859-8.0664 7.1602 1.9258 15.043 20.234 35 26.891 44.215 10.312 14.246 20.016 31.828 32.371 44.801 1.0156-1.7422 2.0703-3.4492 3.2305-5.1211zm-8.5586 14.293c0.6875-1.0938 1.3086-2.1875 1.9258-3.2812-16.434-16.332-29.188-39.543-42.395-58.262-5.6641-8.1055-15.008-19.074-18.676-30.266-0.80078 1.1797-1.5312 2.4062-2.1875 3.6719 5.2266 21.543 20.703 35.312 35.168 51.117 8.6641 9.5078 14.887 29.863 26.164 37.02zm-4.9219-115.72c-0.32812-1.3086-0.6875-2.6133-1.0508-3.9609v0.003907c-1.3828 3.7656-3.8633 7.0273-7.1211 9.3672s-7.1445 3.6484-11.156 3.7578c-4.0391 0.042968-7.9688-1.3438-11.082-3.9219-1.2148 1.9258-1.7383 4.207-1.4883 6.4688 0.79687 5.4102 12.824 2.2852 15.859 1.4883 2.6211-0.65234 5.1367-1.668 7.4805-3.0117 2.1289-1.3711 4.0703-3.0078 5.7812-4.875 1.3867-1.4922 2.3594-3.3281 2.8164-5.3164zm-7.2617 191.02c1.0586-3.6992 1.8125-7.4805 2.2539-11.305-5.4141-0.65234-10.828-1.418-16.203-2.2852-0.83594 4.1055-1.7812 8.2031-2.9102 12.277 5.6328 0.57031 11.227 0.96875 16.859 1.3125zm-7.957-67.523c1.9258-2.3945 3.8281-4.8672 5.7422-7.3789v0.003906c-3.6641-4.918-6.957-10.102-9.8438-15.512-2.6836 3.0117-5.7422 5.6289-8.6445 8.5-0.039062 0.039062-0.039062 0.039062-0.070312 0.039062 4.0586 4.9375 8.3086 9.7344 12.816 14.348zm-0.36719 88.141c1.6016-3.2812 3.1289-6.5625 4.5078-9.9531-5.4688-0.35937-10.898-0.83594-16.406-1.3438-1.3242 3.5664-2.8633 7.0508-4.6172 10.426l1.7812 0.10938zm-11.211-74.297c2.4648-2.9023 4.9219-5.8125 7.4102-8.75-2.1445-2.1875-4.2148-4.4297-6.25-6.6836-1.418 3.418-3.7891 6.3555-6.832 8.4648 1.8828 2.3203 3.7695 4.6797 5.6719 6.9688zm3.9922-42.762c-0.50781-0.83594-1.0508-1.6719-1.5586-2.5117-0.36719-0.54688-0.72656-1.0508-1.0938-1.5977v0.003906c-4.3984 1.4102-8.4141 3.8164-11.73 7.0312 1.6719 2.1875 3.3477 4.375 5.0547 6.5625 3.3555-2.9062 6.4727-6.0781 9.3164-9.4883zm-7.3398 22.16c-1.0938-1.2695-2.1445-2.5742-3.1953-3.8281h0.003907c-2.6289 2.2695-5.0977 4.7227-7.3789 7.3398l3.8867 4.7578c3.7695-0.67578 4.7852-5.4688 6.6719-8.2695zm-0.90625 25.703c-3.0508-3.7422-6.1016-7.5195-9.1562-11.266-1.7617 2-3.8789 3.6523-6.25 4.8711 3.5234 4.0742 7.3633 7.8672 11.484 11.336 1.2969-1.6484 2.6016-3.2852 3.9102-4.9219zm1.5898-57.516c-1.8242-2.3242-3.6758-4.5781-5.5625-6.7578-4.1211 1.5625-7.8203 4.0781-10.789 7.3359 1.5977 2.2539 3.1992 4.5078 4.8359 6.7578v0.003906c3.5703-2.8477 7.4297-5.3047 11.516-7.3398zm-5.6328 103.69c1.1992-4.2891 2.2148-8.6445 3.1211-12.973-2.6133-0.46875-5.2344-0.94141-7.8477-1.4883l0.003907 0.003906c-0.32422-0.058594-0.64062-0.14453-0.94922-0.25781-1.5195 1.6133-3.2539 3.0078-5.1562 4.1445-1.4414 2.9062-2.7188 5.8906-3.8281 8.9375 4.9062 0.60156 9.7891 1.1484 14.656 1.6562zm-3.5977 10.539c-4.9219-0.54688-9.9219-1.125-14.898-1.7461v0.003906c-1.5586 4.3086-3.6055 8.4297-6.1016 12.277 5.2656 0.29688 10.57 0.4375 15.859 0.61719 0.125-0.72656 0.37109-1.4258 0.72656-2.0664 1.6758-2.918 3.1484-5.9453 4.4141-9.0625zm1.1992-91.379c-2.1875-2.7617-4.2891-5.5938-6.3945-8.4258-0.49219-0.38281-0.87891-0.88281-1.125-1.4531-3.1914 1.7188-6.0156 4.0352-8.3203 6.8281 2.832 3.4492 5.6641 6.9023 8.4648 10.391 2.3125-2.5781 4.7773-5.0234 7.375-7.3164zm-4.4688 49.336c0.21875-0.32422 0.4375-0.61719 0.61719-0.90625-0.16406-0.12891-0.33203-0.25-0.50781-0.36328-15.297-12.402-25.414-28.348-35.68-44.918-10.461-16.855-22.598-31.719-31.031-49.629-2.3555 1.6406-4.7188 3.3086-7.0508 5.0156 7.1953 14.219 12.578 29.066 21.039 42.656 7.957 12.746 17.258 24.609 25.508 37.188 7.1602 10.836 14.641 29.91 27.105 10.957zm2.293-84.141c-2.3633-2.582-4.7617-5.1641-7.0508-7.7383-3.6328 1.0508-7.0938 2.6133-10.281 4.6484 1.3086 1.6719 2.5742 3.3789 3.8281 5.0469 0.94922 0.40625 1.6797 1.2031 2 2.1875 0.046875 0.22656 0.058594 0.45703 0.035156 0.6875 0.039063 0.070313 0.085938 0.13281 0.14453 0.1875 0.46875 0.72266 0.98047 1.418 1.4531 2.1445h0.003907c2.8945-2.8906 6.2227-5.3125 9.8633-7.1758zm-4.7266 53.078-6.3242-7.7656c-0.24219 0.3125-0.52344 0.59375-0.83594 0.83594-1.6406 1.2695-3.2812 2.6133-4.9219 3.9219 1.8555 2.6523 3.7422 5.2734 5.7031 7.8164 2.543-0.96875 4.7539-2.6406 6.3789-4.8203zm-4.375-33.465c-1.4922-2.0664-2.9805-4.1406-4.4688-6.2461-0.94531-1.3828-1.9258-2.7344-2.9492-4.0742v0.003906c-3.1758 1.1133-5.9688 3.1016-8.0586 5.7422-0.39062 0.52734-0.91797 0.94141-1.5273 1.1953 1.7773 2.4023 3.6328 4.7969 5.5547 7.1094l0.4375 0.54688h0.003906c0.76953 0.41797 1.3438 1.125 1.5938 1.9648 0.25781 0.28906 0.46875 0.57812 0.6875 0.87109l0.003907-0.003907c2.5469-2.7852 5.4922-5.1836 8.7383-7.1133zm-5.918 20.848c-2.6133-3.2383-5.2656-6.4688-7.918-9.7031v0.003906c-1.4141 0.55078-2.7461 1.2852-3.9648 2.1875-0.27734 0.19141-0.56641 0.36328-0.87109 0.50781 2.4336 3.7734 4.8359 7.5508 7.3008 11.262 1.7812-1.3789 3.4883-2.832 5.2734-4.1797 0.042968-0.042969 0.12109-0.042969 0.17969-0.078126zm3.2812-53.625c-2.3711-2.8281-4.5625-5.8008-6.5625-8.9023-0.15625 0.015625-0.3125 0.015625-0.46875 0-3.5273-0.83594-7.3047 2.6914-9.8438 4.7266 2.3633 3.0859 4.7578 6.0664 7.1953 9.082 3.0664-1.9531 6.3203-3.5977 9.7109-4.9062zm-9.0469 125.89c0.90625-2.6523 1.8555-5.3438 2.832-7.918h0.003907c-1.9844-1.1289-3.8203-2.4961-5.4688-4.0703-1.3711-1.2617-2.668-2.5938-3.8906-3.9961-3.1836 4.4727-5.9609 9.2266-8.3008 14.195 4.9766 0.58984 9.9219 1.207 14.859 1.7891zm-1.2344-141.15v-0.003906c-1.1211-2.2109-2.125-4.4766-3.0117-6.7891-4.1797 1.6406-8.2852 3.3789-12.246 5.2656 1.4883 2.543 3.0898 4.9805 4.7969 7.4141 2.9883-2.7578 6.582-4.7734 10.492-5.8906zm1.4922 32.445c-2.1445-2.793-4.375-5.5547-6.5625-8.3555v-0.003907c-3.1562 1.7891-6.1367 3.8672-8.9023 6.2148 2.0391 3.1289 4.1094 6.2148 6.2188 9.2656v-0.003906c2.4609-3.1016 5.6484-5.5469 9.2852-7.1172zm-4.2148 119.14c-5.2344-0.65625-10.5-1.2734-15.805-1.9258-2 4.3438-4.2344 8.5742-6.6875 12.676 5.0156 0.90625 10.062 1.5625 15.148 2.0352 0.14844-1.0938 0.61328-2.1172 1.3438-2.9414 2.4961-2.957 4.5312-6.2773 6.0312-9.8438zm-2.4727-97.629c-0.54687-0.65234-1.0938-1.3438-1.6406-1.9961-1.6016-1.9648-3.1602-3.9961-4.6875-6.0703-1.2852 0.4375-2.5156 1.0234-3.668 1.7422 1.9258 2.8008 3.8828 5.5938 5.7734 8.5039 0.070313 0.14062 0.14844 0.25 0.21875 0.39844v0.003906c1.2656-0.96875 2.6016-1.832 4.0039-2.582zm-3.9648-35.098c-1.957-2.543-3.8828-5.1172-5.7383-7.7383-3.1055 0.83984-5.832 2.7109-7.7383 5.3047 1.707 2.8008 3.4141 5.5625 5.1562 8.3242l0.003906-0.003907c2.6016-2.1914 5.3828-4.1641 8.3164-5.8867zm-2.8672 97.371c-1.6406-2.3555-3.1992-4.7969-4.7266-7.2617l0.003906-0.003907c-2.9648 10.039-7.2383 19.641-12.715 28.559 1.5586 0.17969 3.1602 0.35938 4.7188 0.50781 3.4414-7.7031 7.707-15.016 12.719-21.801zm-6.8672-73.934c1.1641-0.65625 2.3242-1.2734 3.5234-1.8203-1.5977-2.3242-3.1953-4.7188-4.7188-7.1094h-0.003906c-1.2188 0.60156-2.3867 1.3086-3.4883 2.1094 1.5273 2.2773 3.0898 4.5273 4.6875 6.8203zm0.25-36.805c-0.87109-1.3828-1.668-2.7344-2.4648-4.1445-2.7617 1.418-5.4688 2.8711-8.2031 4.375l3.0508 4.9219c2.1172-2.2734 4.7227-4.0352 7.6172-5.1523zm-4.9219 22.34c-1.2031-1.9258-2.3633-3.8828-3.5586-5.8125-0.49219 0.34375-1.0742 0.54688-1.6719 0.58594-0.57031-0.011718-1.1133 0.22656-1.4883 0.64844-0.20312 0.25781-0.4375 0.49219-0.69531 0.69531 1.2344 2.0664 2.4727 4.1016 3.7773 6.1016 0.078125-0.039063 0.10938-0.10938 0.14844-0.14844v0.003907c1.1211-0.77734 2.293-1.4688 3.5117-2.0742zm-1.3828 67.871v-0.085937c-0.87109-1.3828-1.7461-2.7344-2.6523-4.0352-9.3125 16.109-32.117 50.629-25.555 61.344 12.934-17.223 24.816-35.602 28.23-57.223zm-4.9219 52.68c-1.1602-0.10938-2.3242-0.25-3.4883-0.35938-0.83594-0.09375-1.6367-0.36719-2.3555-0.80469-2.4023 3.5273-4.9219 6.9766-7.4492 10.359 2.1875 0.79688 4.4297 1.5273 6.6445 2.1445 2.457-3.6406 4.6914-7.4258 6.6875-11.336zm-0.64844-132.06c-1.4531-2.4336-2.9414-4.8281-4.4336-7.2305-0.94141 0.54688-1.8477 1.0938-2.793 1.6719 1.125 2.543 2.2852 4.9766 3.5586 7.3789h-0.003906c1.0664-0.88281 2.3242-1.5039 3.6719-1.8203z"/>
 <path d="m588.2 112.23c0.57813 1.6719-5.8125 5.2344-13.23 9.6289-3.7031 2.2539-6.9023 4.375-9.2266 5.8828-2.4023 1.6406-4.1797 2.6523-4.7969 2.0742-0.61719-0.57812-0.10938-2.4727 1.6406-5.0547l0.003907 0.003906c2.5234-3.2695 5.6445-6.0312 9.1953-8.1406 8.2383-4.8672 15.867-5.9219 16.414-4.3945z"/>
 <path d="m554.26 138.91c0.39844 0.1875-0.58594 2.5469-2.6523 6.6484-2.0664 4.1016-5.7109 9.7383-10.141 16.461-2.2148 3.3789-4.6875 7.1602-7.1094 11.188-2.4219 4.0312-4.9766 8.4258-7.6562 13.004-2.543 4.6914-5.0156 9.7031-7.6992 14.863-2.582 5.1953-5.0156 10.719-7.6562 16.273-10.066 22.527-18.496 43.418-25.945 58.062l0.003906 0.003906c-2.7617 5.8164-5.8438 11.477-9.2266 16.953-2.3633 3.8867-3.8281 5.9609-4.2148 5.7812-0.38672-0.17969 0.35938-2.6211 2.1055-6.8672 1.7422-4.25 4.4453-10.184 7.3828-17.73 6.3555-14.859 14.133-35.934 24.27-58.75 2.6836-5.6328 5.1953-11.188 7.8789-16.461 2.8398-5.1953 5.4688-10.242 8.2031-14.93 2.9102-4.5781 5.7031-8.9375 8.3242-13.004 2.6211-4.0703 5.3008-7.5586 7.7695-10.828 5.0156-6.5625 9.0508-11.625 11.699-15.312 2.6484-3.6875 4.3008-5.5781 4.6641-5.3555z"/>
 <path d="m524.03 89.961c5.1953 2.543 8.1367 4.5391 7.8477 5.3359-0.28906 0.79688-3.8867 0.17969-9.375-1.2695l0.003906 0.003906c-6.8242-2.1055-13.832-3.5508-20.93-4.3281-3.5547-0.27734-7.125 0.28516-10.426 1.6406-1.3594 0.60938-2.6211 1.418-3.7461 2.3945-0.96875 0.95312-1.8828 1.9609-2.7344 3.0195-0.61719 1.0547-1.2344 2.0352-1.8164 2.9023l-1.3086 2.6211c-0.76562 1.4492-1.3438 2.1875-1.7812 2.1055s-0.54688-1.0938-0.50781-2.7344c0.027344-0.98438 0.12109-1.9688 0.29297-2.9414 0.32812-1.1641 0.79688-2.543 1.3438-4.0703 0.78906-1.5703 1.7383-3.0547 2.832-4.4336 1.375-1.5664 3.0117-2.8828 4.8359-3.8867 4.0977-2.1484 8.7188-3.0977 13.332-2.7344 7.7148 0.70312 15.23 2.8672 22.137 6.375z"/>
 <path d="m525.74 325.83c0.023438 0.015625 0.023438 0.054687 0 0.070313-0.007812-0.066407-0.03125-0.12891-0.070312-0.17969 0 0.039062 0.039062 0.070312 0.070312 0.10938z"/>
 <path d="m478.98 192.31c0.1875 6.332-0.53516 12.656-2.1445 18.781-1.3438 4.7266-2.9414 7.3398-3.707 7.1094-0.87109-0.25781-0.79688-3.2383-0.54688-7.8164 0.25-4.5781 0.35938-10.938 0.28906-17.91-0.25781-6.9766-0.76562-13.332-1.1641-17.84-0.46875-4.6523-0.65234-7.707 0.21875-7.918 0.76562-0.1875 2.4023 2.3242 3.9961 6.8633 1.8867 6.0703 2.918 12.375 3.0586 18.73z"/>
 <path d="m466.7 149.94c2.8008 5.125 3.4883 8.5352 2.8008 8.9375-1.5977 0.76562-8.3945-10.969-21.148-21.215-2.9531-2.3867-6.0469-4.5977-9.2656-6.6172-2.6445-1.6172-5.3828-3.0781-8.2031-4.375-4.8359-2.2188-8.1055-3.1992-7.9961-4.1055 0.039062-0.76562 3.707-1.3086 9.4102 0h0.003906c3.3047 0.82422 6.5117 2.0195 9.5508 3.5586 3.6914 1.8984 7.1797 4.168 10.414 6.7656 5.8398 4.7266 10.734 10.512 14.434 17.051z"/>
 <path d="m446.71 439.8c0.56641 2.4492 0.3125 5.0156-0.72656 7.3008-0.91406 2.0117-2.3398 3.7422-4.1406 5.0156-2.6445 1.9219-5.6641 3.2617-8.8633 3.9258-5.2344 1.125-8.5039 0.61719-8.6094-0.14844-0.10938-0.90625 2.8672-1.9258 7.1914-3.9609v0.003906c3.6328-1.3516 6.7305-3.8477 8.8281-7.1094l-0.21484 0.10547c-1.5625 0.83594-3.0586 1.6719-4.5078 2.3633-3.0898 1.4531-5.8125 2.5117-8.0664 3.3477-2.1445 0.79688-3.9961 1.4492-5.3438 1.9961-1.3438 0.4375-2.1875 0.54688-2.4336 0.17969-0.24609-0.36719 0.17969-1.0938 1.125-2.1445h0.003906c1.3711-1.4961 2.9492-2.7852 4.6875-3.8281 2.1055-1.3828 4.6484-2.832 7.3008-4.4336 1.3828-0.83203 2.8398-1.7383 4.3242-2.6836 1.5977-0.90625 3.418-1.8164 5.1953-2.7344l3.418-1.7461 0.6875 3.7773z"/>
 <path d="m433.82 539.9c0.074219 2.1953-0.30859 4.3867-1.1289 6.4297-0.47266 1.2891-1.1328 2.5039-1.9609 3.5977-0.46875 0.61719-1.0156 1.2344-1.5273 1.8164-0.50781 0.57812-0.98047 0.83594-1.4531 1.2344-1.1406 0.94922-2.4141 1.7227-3.7812 2.293-1.1602 0.50781-2.3633 0.91797-3.5898 1.2305-2.1914 0.59766-4.4883 0.69922-6.7227 0.29688-1.6562-0.29688-3.1523-1.1719-4.2148-2.4727-0.65625-0.90625-0.57812-1.5273-0.35938-1.8555s0.98047-0.14844 1.8164 0h-0.003907c1.0234 0.11328 2.0586 0.11328 3.0859 0 1.6094-0.25391 3.1836-0.70703 4.6836-1.3438 0.875-0.35938 1.7812-0.79688 2.6914-1.2695 0.87109-0.44141 1.6992-0.96484 2.4727-1.5625 0.4375-0.39844 1.0156-0.83594 1.3789-1.1641v-0.003906c0.26172-0.32812 0.53906-0.64062 0.83594-0.9375 0.58203-0.6875 1.0938-1.4336 1.5273-2.2227 0.81641-1.4609 1.4766-3.0078 1.9609-4.6094 0.87109-2.9102 1.3789-5.0156 2.2852-5.0547 0.76172-0.070312 1.8242 1.9258 2.0039 5.5977z"/>
 <path d="m290.94 552.47c0.21875 0.32812 0.29688 0.94531-0.35938 1.8555-1.0664 1.3008-2.5625 2.1758-4.2188 2.4727-2.2227 0.40234-4.5039 0.30078-6.6836-0.29688-1.2383-0.3125-2.4531-0.72266-3.6289-1.2305-1.3672-0.57031-2.6406-1.3438-3.7812-2.293-0.47656-0.39844-0.90625-0.72656-1.418-1.2344-0.50781-0.50781-1.0547-1.1992-1.5625-1.8164-0.82422-1.0938-1.4883-2.3086-1.9609-3.5977-0.82031-2.043-1.2031-4.2344-1.1289-6.4297 0.17969-3.668 1.2344-5.6641 2.0352-5.5938 0.79688 0.070312 1.3828 2.1445 2.2539 5.0547v-0.003906c0.48828 1.6016 1.1445 3.1484 1.9648 4.6094 0.42969 0.78906 0.94141 1.5352 1.5234 2.2227 0.29688 0.29688 0.57422 0.60938 0.83594 0.9375 0.35938 0.32812 0.94141 0.76562 1.3789 1.1641v0.003907c0.77734 0.58984 1.6055 1.1133 2.4727 1.5625 0.90625 0.46875 1.8164 0.90625 2.7344 1.2695 1.4883 0.64062 3.0508 1.0938 4.6523 1.3438 1.0273 0.11328 2.0625 0.11328 3.0859 0 0.80859-0.125 1.5-0.35938 1.8047 0z"/>
 <path d="m279.08 450.7c0.90625 1.0547 1.3086 1.8164 1.0938 2.1445-0.21484 0.32812-1.0938 0.25781-2.4336-0.17969-1.3438-0.54688-3.1992-1.1992-5.3438-1.9961-2.2539-0.83594-4.9766-1.8906-8.0664-3.3477-1.4492-0.6875-2.9414-1.5273-4.5078-2.3633l-0.21484-0.10547h0.003906c2.1055 3.2539 5.1992 5.7461 8.8242 7.1094 4.3242 2.0352 7.3398 3.0508 7.1914 3.9609-0.10547 0.76562-3.375 1.2734-8.5703 0.14844l0.003906-0.003907c-3.2148-0.65625-6.25-1.9961-8.9062-3.9258-1.7891-1.2852-3.2148-3.0117-4.1367-5.0156-1.0391-2.2852-1.2969-4.8516-0.73047-7.3008l0.14063-0.76172 0.72656-3.7773 3.3789 1.7461c1.7773 0.90625 3.5977 1.8164 5.1953 2.7344 1.4883 0.94531 2.9414 1.8555 4.3242 2.6836 2.6523 1.6016 5.1953 3.0508 7.3398 4.4336l0.003907 0.003906c1.7227 1.0625 3.2969 2.3438 4.6836 3.8125z"/>
 <path d="m277.12 122.55c0.10937 0.90625-3.1602 1.8867-7.9961 4.1055-2.8164 1.293-5.5547 2.7539-8.2031 4.375-3.2109 2.0273-6.3047 4.2383-9.2617 6.6172-12.754 10.242-19.551 21.98-21.148 21.215-0.6875-0.39844 0-3.8281 2.8008-8.9375 3.7031-6.5352 8.6094-12.316 14.453-17.035 3.2383-2.6094 6.7344-4.8828 10.43-6.793 3.0352-1.5508 6.2422-2.7461 9.5547-3.5586 5.6914-1.2969 9.332-0.75391 9.3711 0.011719z"/>
 <path d="m228.05 166.73c0.87109 0.21484 0.6875 3.2812 0.21875 7.918-0.39844 4.5078-0.875 10.859-1.125 17.84-0.10938 6.9727 0.039063 13.293 0.25 17.91 0.21484 4.6172 0.32812 7.5586-0.54688 7.8164-0.76562 0.21484-2.3242-2.4023-3.707-7.1094-1.6094-6.125-2.332-12.449-2.1445-18.781 0.15625-6.3477 1.1836-12.645 3.0508-18.715 1.625-4.5547 3.2617-7.0625 4.0039-6.8789z"/>
 <path d="m225.96 291.28c1.7461 4.25 2.5039 6.6836 2.1055 6.8672-0.39844 0.1875-1.8555-1.8906-4.2148-5.7812h-0.003907c-3.3711-5.4844-6.4492-11.145-9.2266-16.953-7.4492-14.645-15.859-35.547-25.945-58.062-2.6523-5.5547-5.0859-11.078-7.6562-16.273-2.6836-5.1641-5.1562-10.172-7.6992-14.863-2.6914-4.5781-5.2344-8.9375-7.6289-13.004-2.3945-4.0703-4.9219-7.8086-7.1602-11.188-4.4297-6.7227-8.0273-12.355-10.141-16.461-2.1094-4.1055-3.0117-6.4648-2.6523-6.6484 0.35937-0.1875 2.0391 1.7461 4.6914 5.3828s6.7227 8.75 11.699 15.312c2.4727 3.2812 5.0859 6.793 7.8086 10.828 2.582 4.0703 5.375 8.4258 8.2852 13.004 2.7344 4.6875 5.375 9.7344 8.2031 14.93 2.6836 5.2734 5.1953 10.828 7.8789 16.461 10.176 22.816 17.949 43.891 24.27 58.75 2.9062 7.5156 5.6719 13.48 7.3867 17.699z"/>
 <path d="m220.73 101.66c0.070312 1.6406-0.10938 2.6133-0.50781 2.7344-0.39844 0.12109-1.0156-0.65625-1.7812-2.1055-0.35938-0.72656-0.79688-1.6016-1.2695-2.6211-0.61719-0.87109-1.2344-1.8477-1.8555-2.9023-0.84375-1.0547-1.7422-2.0625-2.6914-3.0195-1.1406-0.97266-2.4141-1.7773-3.7773-2.3945-3.2969-1.3633-6.8711-1.9258-10.426-1.6406-7.0977 0.77344-14.105 2.2227-20.93 4.3242-5.4688 1.4492-9.0469 2.0664-9.375 1.2695-0.32813-0.79688 2.6914-2.793 7.8477-5.3359l0.003906-0.003906c6.9062-3.4961 14.414-5.6523 22.125-6.3594 4.6133-0.35938 9.2344 0.58984 13.332 2.7344 1.8242 1.0078 3.4609 2.3242 4.8359 3.8906 1.0938 1.375 2.043 2.8633 2.832 4.4336 0.54688 1.5273 1.0156 2.9023 1.3438 4.0703h0.003906c0.16797 0.96484 0.26172 1.9414 0.28906 2.9258z"/>
 <path d="m174.33 325.72c-0.039062 0.050781-0.0625 0.11328-0.070312 0.17969-0.023438-0.015626-0.023438-0.054688 0-0.070313 0.03125-0.039063 0.070312-0.070313 0.070312-0.10938z"/>
 <path d="m137.42 124.77c1.7461 2.582 2.2539 4.4688 1.6406 5.0547-0.61328 0.58594-2.3945-0.4375-4.7969-2.0742-2.3242-1.4922-5.5234-3.6328-9.2266-5.8828-7.4141-4.375-13.809-7.957-13.23-9.6289 0.54687-1.5273 8.2031-0.46875 16.406 4.375l0.003906-0.003906c3.5547 2.1133 6.6797 4.8828 9.2031 8.1602z"/>
</svg>
