<?xml version="1.0" encoding="UTF-8"?>
<svg width="700pt" height="700pt" version="1.1" viewBox="0 0 700 700" xmlns="http://www.w3.org/2000/svg">
 <path d="m201.72 307.1c0-0.039062 0.1875-0.14844 0.625-0.33203 0.76172-0.46094 1.6289-0.72656 2.5195-0.76562 0.58203-0.17969 1.1875-0.26562 1.7969-0.25781-0.47656-1.4219-0.81641-2.8867-1.0234-4.375-0.625-4.5352 0.39844-7.3867 1.2031-7.3125 0.80469 0.078125 1.4648 2.5586 3.0352 6.2109v0.003907c0.83594 2.0938 1.8633 4.1094 3.0742 6.0156 0.52734 0.85938 1.1523 1.6562 1.8633 2.3711 0-1.2422 0-2.5195 0.039062-3.7695v0.003906c-0.023437-2.7227 0.51172-5.4219 1.5703-7.9297 0.78125-1.7305 2.0547-3.1914 3.6562-4.207 1.0938-0.69531 1.8281-0.84375 2.082-0.54687 0.25781 0.29687 0.10938 1.0938-0.32812 2.1211h0.003907c-0.62891 1.2734-1.0703 2.6289-1.3203 4.0273-0.27344 2.1211-0.28906 4.2695-0.039063 6.3984 0.36328 2.9336 0.4375 5.8984 0.21875 8.8477 2.668 1.1719 4.9766 1.4609 5.8516-0.29688 0.58594-2.0547 0.88281-4.1836 0.88281-6.3203 0.38281-2.6953 1.2227-5.3047 2.4805-7.7148 0.625-1.3477 1.8359-2.332 3.2812-2.6719 1.7109-1.3906 3.6914-2.4102 5.8164-2.9961 0.082032-0.03125 0.16797-0.042969 0.25391-0.039063-0.98828-1.4258-1.9727-2.8867-3.0352-4.4258-3.8281-5.5938-9.9102-3.9883-15.859-5.2656-0.29688-0.070312-0.58594-0.17969-0.84375-0.25781l0.003906 0.003906c-5.8945 1.0273-11.453 3.4648-16.199 7.1094-6.3594 4.7891-3.7305 10.277-2.3008 16.488 0.25391-0.007812 0.55078-0.082031 0.69141-0.11719zm302.94-8.4102c15.723-0.21875 72.91-9.8008 72.734 19.234 0.007813 2.4844-1.6602 4.6602-4.0586 5.3008-4.1484 0.51563-8.3242 0.79688-12.508 0.83984-1.043 1.1719-2.5586 1.8164-4.1289 1.7578h-95.078c3.9141 17.695 11.742 34.512 17.664 51.555 7.4375 21.293 14.586 42.621 20.984 64.207 12.973 43.113 23.219 87.004 30.68 131.41 0.42188 2.5-0.83984 4.9805-3.1055 6.1094-0.375 0.38672-0.79688 0.73047-1.25 1.0234-2.8398 1.6406-5.543 3.5117-8.0742 5.5938 5.3359 23.875 26.031 54.043 2.1562 74.809h-0.003906c-17.91 15.359-42.18 21.039-65.043 15.215-2.9219-0.81641-4.6328-3.8438-3.8281-6.7656 6.875-16.953 37.883-28.082 29.285-46.84-2.9219 2.1289-6.0352 3.9766-9.2969 5.5234-1.1992 0.55078-2.5508 0.67969-3.8281 0.36719-0.55469 0.19922-1.1328 0.32031-1.7188 0.35938-19.305 1.1367-36.859-6.875-55.781-9.1367-0.34766-0.054688-0.69141-0.12891-1.0273-0.21875-0.62891 0.44531-1.3359 0.76562-2.0859 0.94922-18.977 4.2773-38.172 1.4609-57.297 2.957 8.3398 30.938-47.418 32.543-68.664 30.82-7.8984-0.61719-38.938-2.5586-32.43-17.402 2.5195-5.7734 10.27-9.0273 15.391-11.992v0.003907c7.1367-3.5234 13.668-8.1641 19.344-13.75-1.4688-1.3711-2.1211-3.4062-1.7188-5.375-0.19531-0.49219-0.33203-1.0078-0.39844-1.5352-2.5586-24.609-8.4102-48.738-10.824-73.348-1.5742-23.574-1.1719-47.242 1.2031-70.75 2.7773-42.453 7.1094-84.137 27.02-122.38h0.003906c-0.38672-0.50391-0.64844-1.0938-0.76562-1.7188-0.53516-3.2539-0.57422-6.5742-0.10938-9.8438-3.5586 4.0547-8.4766 6.6641-13.824 7.3398-5.3477 0.67188-10.762-0.63672-15.211-3.6797-0.23438-0.13672-0.45312-0.29688-0.65625-0.47656-8.0117-1.0938-18.141-2.8555-22.051-10.938-0.17969-0.44141-0.40625-0.84375-0.58594-1.2812-2.5977-0.1875-6.3594-0.21875-8.75-0.25781v0.003906c0.007813 0.074219-0.003906 0.14844-0.035156 0.21875-1.2734 3.6484-4.207 6.4727-7.8984 7.6055-9.3555 2.9961-15.902-2.5273-23.324-6.9844-3.2031 1.3594-6.8086 1.4219-10.059 0.18359-0.61328-0.25-1.1914-0.58203-1.7148-0.98438-0.55469-0.16016-1.0625-0.4375-1.5-0.8125-0.37109 0.089843-0.75391 0.14062-1.1367 0.14844-12.539 0.29688-69.875 11.484-68.773-12.211 0.54688-11.844 14.039-14.219 23.582-14.988h-0.003906c14.938-1.2148 29.934-1.4961 44.906-0.84375 1.2539-1.707 2.7148-3.2539 4.3477-4.6055 6.457-5.3516 14.215-8.8945 22.488-10.273 5.1172-5.5469 9.4492-11.77 12.883-18.492-1.4453-0.89062-2.4414-2.3594-2.7266-4.0352-0.28906-1.6758 0.16016-3.3906 1.2266-4.7148 9.8438-12.031 22.559-20.781 33.164-32.031 8.918-9.3945 13.785-21.027 21.875-30.898 11.484-14.039 22.672-34.223 39.488-42.656 0.48047-1.3203 1.0703-2.6016 1.7578-3.8281-0.54688-0.95312-1.0625-1.8633-1.5352-2.8164h-0.003906c-3.8359-0.46094-7.2188-2.7305-9.0977-6.1055-1.582-3.457-2.418-7.207-2.4492-11.004-3.7188-4.082-5.4062-9.6172-4.5898-15.078-6.3984-4.5703-6.3594-13.562-2.6289-20.695-12.727-30.383 10.348-56.75 42.34-58.516h-0.003906c16.203-1.5586 32.199 4.5742 43.203 16.566 13.824 16.02 12.438 42.051 9.6914 61.43v0.03125c0.84375 4.375 2.0469 8.5898 2.8867 12.906 22.746 6.3672 34.152 40.957 35 61.539 0.76562 18.938-0.58594 37.883 1.3516 56.82 2.2305 21.605 3.5117 47.676 14.152 67.098 0.16406 0.31641 0.29688 0.64453 0.40234 0.98438 16.797-0.16797 33.59-0.38672 50.371-0.64453zm43.582 15.762c4.8516-0.75391 9.7539-1.1445 14.664-1.1719-17.004-9.4727-90.465-3.2812-100.04-3.1836-21.98 0.21875-43.992 0.47656-65.965 0.625-0.39844 1.7344-1.1602 3.3633-2.2305 4.7852 8.707-0.32812 14.887-0.65625 15.98-0.65625h136.31c0.40625-0.19141 0.83594-0.32422 1.2812-0.39844zm-30.566 332.21c8.3711-17.184-2.8555-35.316-8.2617-52.578-6.6562 6.8359-12.758 14.297-19.688 20.84 16.348 25.555-12.539 33.492-24.5 51.555 18.215 2.4141 44.367-3.3203 52.449-19.816zm-11.664-64.203c4.1055-4.1328 8.668-7.7891 13.602-10.898-7.2891-42.938-17.277-85.375-29.91-127.05-6.5625-21.535-13.492-42.961-20.988-64.207-1.6797-4.7188-3.4727-9.4336-5.3008-14.148v0.98438c0 3.4023-0.039062 6.9844-0.070312 10.715v2.7695c0 0.625 0.10938 1.793 0.10938 2.668 0.10938 1.9414 0.21875 3.8789 0.32812 5.8516 1.2422 31.078 10.605 55.285 8.3711 55.945-0.76563 0.28906-3.4414-5.5625-7.0547-15.395-1.4258-5.0469-3.4023-10.938-4.7578-17.805-0.58594-3.4727-1.2031-7.1094-1.8281-10.859-0.14844-0.95312-0.28906-1.9023-0.4375-2.8867-0.039062-0.91406-0.10937-1.8633-0.14844-2.8555-0.10938-1.8984-0.21875-3.8711-0.32812-5.8125-0.10938-1.9414-0.1875-3.9492-0.25781-5.8516-0.039063-1.0234-0.10938-1.7539-0.10938-3.0352 0.039063-0.94531 0.070313-1.8984 0.070313-2.8477 0.078125-3.7695 0.29688-7.3516 0.44141-10.75 0.28906-5.5938 0.39844-10.637 0.25-15.062l0.007813-0.003907c-2.6836-7.207-4.9297-14.574-6.7266-22.051-1.2812 0.625-2.5938 1.207-3.9102 1.793-0.80469 7.2344-0.625 15.062-2.1211 22.121-1.6836 8.1523-5.1562 15.504-7.2031 23.516-3.0352 11.918 2.957 21.277 4.4609 32.031h0.003906c1.875 6.4258 2.4219 13.168 1.6055 19.812l-0.47656 3.1836-3.2539-0.69531c-3.3633-0.73438-6.8047-1.5-10.312-2.2656v0.003906c-9.043-1.6719-17.949-3.9961-26.656-6.9531-7.2734-2.4844-14.059-6.2227-20.047-11.039-3.9766-3.3047-7.4609-7.1602-10.348-11.449-1.8281-3.0352-2.668-4.8633-2.3398-5.082s1.8633 1.0625 4.2812 3.6602c3.3945 3.457 7.0898 6.6016 11.043 9.3984 5.9336 3.9805 12.426 7.0586 19.266 9.1367 8.5664 2.5703 17.27 4.6719 26.07 6.2891 2.418 0.51562 4.7188 1.0625 7.1094 1.6406 0.074219-1.457 0.074219-2.918 0-4.375-27.129-2.8867-41.277-13.273-58.242-34.074-11.703-14.297-29.656-34.223-28.438-54.191-0.69531-0.36719-1.3555-0.72656-2.0508-1.1328-2.0469 18.539 6.6953 43.75 8.8477 61.027 1.5352 12.391 6.2188 32.141-1.1719 43.547-6.5078 9.9805-17.254-2.5977-19.234-9.2539-6.5078-21.535-8.2031-44.719-10.895-67.457-0.10937 0.69531-0.28906 1.3906-0.39844 2.082-2.3086 13.055-1.7227 26.25-3.7305 39.305-0.54688 3.4727-2.4883 23.984-11.484 18.688-6.9453-4.0586-7.3516-19.086-8.2031-25.812h0.003906c-1.9297-15.477-0.71094-31.188 3.582-46.184-0.17969-0.10938-0.36719-0.25781-0.51562-0.36719-5.207 10.754-9.3672 21.98-12.43 33.531-0.79688 8.3242-1.1523 16.684-1.0625 25.047-0.03125 5.3047 0.1875 10.824 0.40625 16.602 0.14844 2.8867 0.21875 5.9219 0.4375 8.8086 0.32812 2.8867 0.625 5.8516 0.95312 8.8477v0.003907c1.6641 11.312 4.1328 22.492 7.3828 33.457 2.8945 10.199 5.6328 19.484 7.6055 27.344 3.9492 15.98 4.4258 25.922 3.7695 26.109-0.98828 0.21875-3.0352-9.7305-7.9727-24.906-2.4844-7.6562-5.6289-16.668-8.8477-26.945h-0.003906c-3.6719-11.152-6.3633-22.602-8.043-34.223-0.32812-3.1445-0.65625-6.2188-0.94531-9.2969-0.28906-3.0781-0.25781-5.9297-0.40625-8.8477-0.039063-2.4492-0.070313-4.7578-0.10938-7.168-2.8711 20.922-3.9648 42.535-5.6055 63.883-3.1445 42.523 6.3281 82.578 10.785 124.46 9.7617 3.582 33.715 15.762 43.875 10.059 10.16-5.7031 2.2695-30.164 1.8633-41.059-0.54687-14.004-1.0547-26.66-1.5-38.066-0.36719-22.816-0.47656-40.582-0.28906-54.141 0.4375-27.129 1.0938-37.438 1.8633-37.438s1.4609 10.309 2.0117 37.406c0.35938 13.531 0.83594 31.258 1.4609 54.043 0.54687 11.332 1.1328 23.949 1.8281 37.875 0.91406 12.328 2.1211 25.742 3.3633 40.223 19.141-1.5 38.613 1.2812 57.516-2.9961v-0.007812c0.41406-0.082031 0.82812-0.13281 1.25-0.14453-2.4102-14.062-3.8711-28.27-4.375-42.527-0.69531-13.086-1.0938-23.293-1.6797-31.039-0.29688-3.8789-0.54688-7.1094-0.73438-9.8711-0.29688-2.707-0.47656-4.9219-0.58594-6.6211-0.21875-3.4336-0.10938-4.9727 0.25781-5.043 0.36719-0.070313 0.95312 1.3125 1.8281 4.6758 0.4375 1.6836 0.95312 3.8281 1.5352 6.5625 0.58594 2.7344 0.98438 6.0156 1.5352 9.8711 1.0938 7.7891 1.9375 18.047 2.8867 31.172h0.003906c0.76562 14.055 2.3398 28.055 4.7148 41.934 16.527 2.1211 32.359 8.5195 48.961 9.1055-0.066406-14.25-1.2891-28.473-3.6602-42.527-2.5195-15.535-5.5938-29.465-8.75-41.934-6.1406-24.977-11.953-44.242-16.051-59.02-4.207-14.766-6.9844-25.008-8.5195-31.586-1.0859-3.0898-1.6406-6.3438-1.6406-9.6211 0.36719-0.10938 1.5039 2.5977 3.6953 8.9961 2.1914 6.3984 5.4688 16.457 10.16 31.078 4.6914 14.625 10.789 33.824 17.297 58.902 3.2539 12.508 6.4688 26.547 9.1055 42.305l0.003906 0.003906c2.4922 14.336 3.7734 28.852 3.8281 43.402 0.23047-0.027344 0.46094-0.039063 0.69531-0.035157 0.4375-0.03125 0.87891-0.007812 1.3125 0.074219 13.672-6.8047 23.039-18.758 33.309-29.727v-0.003907c-0.65625-11.863-2.7695-23.605-6.2891-34.957-3.0742-10.051-6.6719-19.938-10.785-29.613-7.3125-17.5-13.422-31.117-17.402-41.832v0.003906c-2.9961-7.5391-5.4805-15.27-7.4258-23.145-1.0625-4.9219-1.3125-7.0586-0.95313-7.168 0.95313-0.25 3.0352 8.1211 11.961 28.887 4.4258 10.391 10.859 23.734 18.461 41.285l0.003906-0.003907c4.332 9.8047 8.1055 19.848 11.297 30.078 3.2109 10.133 5.3359 20.578 6.3398 31.16zm-65.625-256.64-64.473 0.003907c-3.6523 0-9.9414 0.65625-17.254 1.2422 23.91 10.969 55.781 9.1445 80.66-0.36719 0.30859-0.34375 0.66406-0.64062 1.0586-0.875zm-2.1289 20.898c0.17969-2.3398 0.36719-4.6094 0.58594-6.9141-5.6211 6.9219-10.066 14.715-13.164 23.074-1.3438 5.4297-3.4883 10.629-6.3594 15.426-2.5664 3.8281-6.1641 6.8516-10.379 8.7109-4.2148 1.8633-8.8711 2.4922-13.426 1.8125-1.3125-0.14453-2.6094-0.40234-3.8789-0.76953 3.6211 4.1719 7.3867 8.2617 11.406 12.07 9.4023 8.8477 19.93 11.004 31.922 12.391-0.91406-10.605-8.5547-20.781-5.8125-31.477 0.58594-2.3398 1.2812-4.5703 2.0117-6.8398v-0.003906c0.082032-1.2422 0.47266-2.4492 1.1328-3.5039 3.0156-7.7031 5.0195-15.762 5.9609-23.977zm3.9102-47.207c-11.953-25.227-14.188-59.816-14.551-86.914-0.17969-12.172 1.0625-25.188 0.1875-37.734-7.3867 19.309-20.039 37.078-28.52 55.781h-0.003906c-5.875 13.402-12.637 26.398-20.234 38.906 1.8984-1.5 3.7305-3.0352 5.4688-4.5352 3.5039-3.0742 6.6875-6.1406 9.6523-9.0273 2.7344-3.0742 5.5195-5.8125 7.75-8.5195l6.0156-7.3867c1.6797-2.3008 3.1445-4.2773 4.375-5.8828 2.418-3.2227 3.9492-4.9219 4.3164-4.6445 0.36719 0.27734-0.47656 2.3008-2.3008 5.9219-0.91406 1.7891-2.0117 3.9883-3.4336 6.4375-1.6406 2.4102-3.4766 5.1914-5.4688 8.2031-1.9922 3.0117-4.7578 6.0156-7.4609 9.3242-2.8945 3.1445-6.0703 6.5078-9.582 9.8008v-0.003907c-6.5586 5.875-13.43 11.395-20.586 16.527-2.2305 2.8867-4.6094 5.6641-7.0586 8.4062v-0.003906c11.758 2.8516 23.809 4.3008 35.906 4.3164 5.9062 0.015625 11.805 0.42188 17.66 1.207 9.2578-0.003906 18.582-0.125 27.867-0.19531zm-17.656 47.48c2.0117-3.2812 4.2422-6.3984 6.5078-9.4727-22.293 6.5547-46.023 6.4023-68.23-0.4375 3.1523 9.3203 7.5156 18.188 12.984 26.367 6.25 9.3555 26.07 30.93 36.891 10.969 4.793-8.8164 6.5078-18.867 11.848-27.426zm-2.1562-193.93c0.054688-0.5 0.17578-0.99609 0.35938-1.4648-6.3594-16.566-19.594-36.562-37.402-24.496-50.496 34.188-67.094 91.047-93.055 143.06 6.3594 3.332 12.688 6.8047 18.938 10.348 3.5508-5.5195 6.9844-10.824 10.238-15.902 0.95312-1.5 1.9023-2.9648 2.8164-4.375 0.84375-1.5039 1.6836-3.0039 2.4883-4.4609 1.6406-2.9258 3.2539-5.8125 4.8242-8.5898 6.5078-11.047 11.406-21.613 16.238-30.859 4.6055-9.4336 8.75-17.805 12.359-25.234v-0.003906c3.2891-6.5586 7.0195-12.883 11.172-18.934 7.0156-10.348 11.625-17.5 14.148-22.309 2.5195-4.8086 3.5508-6.9844 3.9492-6.8359 0.39844 0.14844-0.070312 2.4883-2.0117 7.7148l-0.003906 0.003906c-3.582 8.1914-7.8633 16.059-12.797 23.516-3.8164 6.0586-7.2656 12.34-10.328 18.812-3.5117 7.4961-7.3516 15.98-11.918 25.453-4.7578 9.3945-9.582 20.039-16.09 31.258-1.5742 2.8555-3.1836 5.7422-4.8281 8.75-0.84375 1.4648-1.6406 2.9648-2.5195 4.5-0.87891 1.5352-1.8633 2.957-2.8164 4.457-3.2539 5.0469-6.6172 10.312-10.129 15.723 8.3711 4.8672 16.637 9.9844 24.75 15.285 1.2852-1.1328 2.5664-2.3008 3.8281-3.4727l-0.14844-0.039062 0.69531-0.47656c20.367-19.484 33.09-43.582 44.719-69.359 4.8906-12.051 10.648-23.734 17.223-34.953 8.0508-10.938 13.305-23.68 15.301-37.113zm-30.164-40.879-0.98828-3.9492c-16.816 9.6836-35 18.133-47.754 33.164h-0.003906c-7.5859 8.9688-13.035 19.547-15.941 30.93 0.40625-0.65625 0.80469-1.3516 1.207-2.0469l0.003907 0.003906c9.0156-14.82 20.254-28.168 33.32-39.578 7.957-6.75 19.113-16.914 30.156-18.523zm-1.3906-23.219c1.9375-27.863-6.5625-57.969-40.59-56.164-11.73 0.29297-22.895 5.0977-31.172 13.418 2.1484-0.73047 4.4922-0.625 6.5625 0.29688 7.9336 3.6914 5.4141 12.906 11.555 17.293 0.65625 0.49219 1.3359 0.94141 2.0469 1.3516 0.79297 0.39844 1.5547 0.86719 2.2695 1.3945l1.3164 0.875 1.2422 1.3164 0.625 0.69531 0.14062 0.17969 0.078125 0.078124c0.09375 0.125 0.17969 0.25781 0.25781 0.39844l0.17969 0.29688v-0.003906c0.28906 0.62109 0.50781 1.2695 0.65625 1.9375 0.21875 1.0156 0.37891 2.0391 0.47656 3.0742 0.027344 0.33203 0.089844 0.66406 0.18359 0.98437 0.44531 0.41406 0.91797 0.79297 1.4219 1.1328l0.69531 0.44141c0.039062 0 0.078124 0.03125 0.14844 0.03125s0.039063-0.070312 0.078125-0.10938h-0.003906c0.39453-0.44531 0.71484-0.94922 0.94922-1.4961 0.87891-1.7188 1.6406-3.8789 2.7852-6.0156h-0.003907c1.1758-2.5156 3.1016-4.5977 5.5195-5.9609 0.35156-0.19922 0.71484-0.37109 1.0938-0.51562l0.72656-0.21875c0.55859-0.24219 1.1484-0.40234 1.7539-0.47656 1.457-0.28906 2.9609-0.21484 4.375 0.21875 2.5703 0.81641 4.7148 2.6172 5.957 5.0117 1.0312 1.625 1.625 3.4883 1.7227 5.4141 0.80859 2.8789 1.4648 5.8008 1.9727 8.75 1.2031 0.14844 2.668 0.33203 3.9883 0.625v-0.003906c2.4219 0.52344 4.7344 1.4648 6.8359 2.7812 1.4414 0.90625 2.832 1.8984 4.1562 2.9688zm-0.73438 7.2422v-0.1875c-2.1602-1.5703-4.375-3.3633-6.5625-4.7539-3.2578-1.8086-6.832-2.9766-10.531-3.4336l-1.0938-0.1875c-0.71484 0.98047-1.5078 1.8945-2.3789 2.7344-2.1562 2.1211-4.8906 3.5586-7.8594 4.1367-2.5 0.42969-5.0391-0.53906-6.6172-2.5273-0.5-0.65234-0.87109-1.3945-1.0938-2.1875-0.20312-0.53906-0.32812-1.1055-0.36719-1.6797-0.070313-0.91797 0-1.3906 0.21875-1.4648 0.51562-0.17969 1.0625 1.8281 3.0352 3.6914 1.1602 0.97266 2.7383 1.2773 4.1758 0.80859 2.1055-0.78125 3.9688-2.1016 5.4062-3.8281 0.83594-0.95703 1.5391-2.0273 2.0859-3.1758 0.59766-1.25 0.94531-2.6055 1.0195-3.9883 0.25-3.0547-0.42578-6.1094-1.9336-8.7773-0.61719-1.082-1.625-1.8945-2.8164-2.2617-0.51172-0.14062-1.0508-0.15234-1.5703-0.039063-0.76563 0.13281-1.5039 0.39062-2.1875 0.76562-1.2656 0.82031-2.2461 2.0039-2.8164 3.4023-0.91406 1.6836-1.6094 3.6914-2.7344 5.9609-0.50391 1.0977-1.1836 2.1094-2.0078 2.9961-0.29688 0.25781-0.54688 0.54688-0.84375 0.76953h0.003906c-0.38672 0.26563-0.78906 0.49609-1.2109 0.69531-0.88281 0.39453-1.8477 0.56641-2.8164 0.50781-0.77344-0.12891-1.5312-0.33594-2.2617-0.61719-0.58594-0.29688-1.0938-0.625-1.6094-0.91797-0.86328-0.625-1.6836-1.3086-2.4492-2.0469-0.4375-0.43359-0.79688-0.94141-1.0625-1.4961-0.14844-0.40625-0.29688-0.84375-0.40625-1.2422-0.10938-0.58594-0.21875-1.2461-0.25781-1.7227-0.10938-0.98438-0.21875-1.8633-0.28906-2.4492h0.003906c-0.007813-0.22656-0.085937-0.44141-0.21875-0.62109-0.03125-0.050781-0.066406-0.10156-0.10938-0.14453l-0.29688-0.32812-0.54688-0.66016-0.87891-0.65625c-0.50781-0.39844-1.3516-0.91406-2.1562-1.4258v-0.003906c-0.75781-0.46875-1.4883-0.98047-2.1875-1.5391l-0.51562-0.39844c-0.22656-0.18359-0.44531-0.37891-0.65625-0.58594l-0.95312-0.91406 0.003906 0.003906c-0.67578-0.62109-1.3008-1.293-1.8672-2.0156l-0.47656-0.54688h0.003906c-0.20312-0.27344-0.37109-0.56641-0.51172-0.87891l-0.47656-0.91406c-0.078125-0.4375-0.14844-0.91406-0.1875-1.3516h0.003906c-0.023437-0.33203 0.003907-0.66406 0.078125-0.98828l0.14062-0.65625c0.039063-0.20703 0.0625-0.41406 0.078125-0.625-0.039062-0.17969 0.03125-0.28906 0-0.54688l-0.25781-1.0625-0.14844-0.54688-0.070312-0.25781-0.32812-0.875v0.003906c-0.72656-2.0391-2.0625-3.8008-3.8281-5.0469-2.7188-1.1992-5.8711-0.82031-8.2305 0.98438-4.418 8.2695-4.3203 18.219 0.25781 26.402 0.042968 0.09375 0.078124 0.19141 0.10937 0.28906 1.3672 2.1992 1.1016 5.043-0.65625 6.9453-2.2305 2.8164-3.2812 7.2422 0.61719 8.2031 1.3242 0.28516 2.4766 1.0977 3.1875 2.25 0.71094 1.1523 0.92188 2.5469 0.57812 3.8594 0.042969 0.53516-0.046875 1.0742-0.25391 1.5703-1.6328 3.3242-0.67969 7.3398 2.2695 9.582 1.2305 1.1328 1.8086 2.8086 1.5352 4.4609 0.039063 0.10547 0.0625 0.21484 0.070313 0.32812-0.24219 2.7773 0.18359 5.5742 1.2422 8.1523 0.75 1.1367 2.043 1.793 3.4023 1.7188 5.4375-0.93359 10.539-3.2656 14.809-6.7656 3.4023-2.3125 6.3281-5.2539 8.6289-8.6602 1.2695-1.875 2.418-3.832 3.4336-5.8516 0.76953-1.2461 1.3164-1.7539 1.6836-1.6836 0.36719 0.070313 0.50781 0.76953 0.36719 2.3008-0.21484 2.5078-0.9375 4.9453-2.1211 7.168-2.082 4.2812-5.168 7.9922-8.9961 10.824-3.6211 2.7383-7.6406 4.9102-11.914 6.4375 0.76562 1.5273 1.6289 3.0078 2.5898 4.4219 15.266-16.109 34.645-25.395 53.582-36.844zm-1.5352 214.59-23.691 0.10938v-0.003906c-0.34766 1.9492-1.0117 3.8281-1.9727 5.5586 5.7383-0.070313 11.516-0.21875 16.953-0.39844 3.4062-0.74609 6.4688-2.5977 8.7109-5.2695zm-31.445 0.10938h-12.141v-0.003906c-0.75781 0.73047-1.7344 1.1914-2.7773 1.3203-6.9102 0.87891-13.875 1.2695-20.844 1.168 0.035157 0.29297 0.046876 0.58594 0.039063 0.875 10.457 1.9375 21.094 2.6992 31.719 2.2695 1.8477-1.4609 3.2422-3.4141 4.0312-5.6328zm-4.7148 117v-0.003906c0.88281-6.7109 0.94141-13.504 0.17969-20.234-1.3906-15.859-3.9102-31.484-6.6172-47.129-1.8633-10.898-4.9727-21.684-3.4727-32.582-3.332 0.039062-6.6562 0-9.8438-0.17969 0.20703 3.4922 0.023438 7-0.54688 10.457 4.375 24.828 6.3281 49.945 10.785 74.773 0.48047 2.5742 8.1289 23.453 9.5156 14.895zm-70.973 214.89c13.125 0.875 64.574 3.2148 57.336-18.977-15.258 0.14063-30.375-2.8984-44.391-8.9258-7.3789 8.4219-16.383 15.266-26.477 20.113-2.3008 1.3516-4.6758 2.6289-6.875 4.1992l0.003907 0.003907c0.38281-0.003907 0.76562 0.046874 1.1367 0.14453 6.2891 1.8008 12.742 2.9531 19.266 3.4414zm33.129-340.27c4.0898 0 8.2031 0.070312 12.32 0-2.9961-1.8633-6.0156-3.6602-8.9961-5.4688-1.0977 1.6992-2.1914 3.5664-3.3242 5.4688zm10.391 24.68v-0.29688 0.003907c-2.7266-0.44141-5.3984-1.1758-7.9688-2.1875-2.332 1.3828-5.1641 1.6523-7.7148 0.73047-0.60547 2.3203-0.73828 4.7383-0.39844 7.1094 0.12109 0.95313 0.058594 1.9219-0.1875 2.8516 0.96094 1.1484 1.375 2.6562 1.1328 4.1328 1.7773 1.8359 4.6562 2.0234 6.6562 0.4375 4.6641-2.7031 7.7969-7.4297 8.4688-12.781zm-7.2344 44.203c1.0625-9.0273 3.9805-17.879 5.8125-26.797-2.1055 1.793-4.6133 3.0508-7.3125 3.6602-0.51563 0.12109-1.043 0.20703-1.5742 0.25781-5.0078 19.562-7.2734 40.551-0.4375 60.156-0.082031-0.44922-0.070313-0.91016 0.035156-1.3516 1.0078-4.4375 1.668-8.9492 1.9766-13.492 0.53906-7.4766 0.57031-15.004 1.4883-22.434zm-4.5352-175.39v0.003907c0.25-14.414 3.2773-28.645 8.9219-41.91-15.355 11.852-28.816 34.301-37.805 48.812-11.336 18.25-28.777 30.078-42.961 45.598l-0.003906 0.003906c9.582 6.2578 17.637 14.582 23.57 24.363 2.1875-1.1719 4.4258-2.2695 6.7266-3.2227l0.91406-2.1875c3.1719-8.5508 4.2969-17.73 3.2812-26.797-0.58594-6.7656-1.3516-10.969-0.61719-11.113 0.54688-0.10937 2.4844 3.5117 4.1289 10.605 2.043 8.8086 1.8281 17.988-0.625 26.688 0.38281 0.097657 0.77734 0.14844 1.1719 0.14844 0.36719-0.070313 0.73438-0.17969 1.0625-0.25781h-0.003906c0.37109-0.14062 0.71484-0.33984 1.0234-0.58594 2.1875-4.2773 4.2812-8.6289 6.3281-13.016 1.5859-6.3438 2.7969-12.777 3.6211-19.266 0.98828-7.2422 1.6836-13.824 2.3398-19.344 1.207-11.078 2.5195-18.047 3.5117-17.883 1.1172 5.9844 1.4062 12.09 0.86328 18.152-0.078125 4.9766-0.29688 10.824-0.84375 17.297 5.043-11.445 10.129-22.891 15.645-34.082h0.003907c-0.20703-0.64844-0.29688-1.3281-0.26172-2.0039zm-4.7656 95.465c-6.9844-4.0234-14.078-7.8984-21.203-11.625-0.38672 0.40234-0.83203 0.74609-1.3203 1.0195-5.5469 3.418-11.707 5.7266-18.133 6.8008-2.8945 0.22266-5.7617 0.72656-8.5586 1.5039-0.94531 0.3125-1.8516 0.73047-2.707 1.2383 0.66797 0.39844 1.2422 0.93359 1.6836 1.5703 1.0977 1.0039 1.6562 2.4688 1.5 3.9492-0.14062 3.1602-0.94922 6.2539-2.3789 9.0742-1.1719 2.3359-3.0664 4.7539-1.4219 7.3828 3.1758 5.0469 10.895 5.2656 16.23 6.0156 1.2812 0.125 2.4531 0.78906 3.2227 1.8242 16.414 8.6211 26.176-17.379 33.086-28.754zm-56.93-10.859c1.3867-0.66797 2.832-1.2188 4.3125-1.6406-3.9141-7.1797-9.418-13.371-16.09-18.098-2.4492 4.7461-5.3633 9.2422-8.6992 13.414 3.8555 0.10547 7.5547 1.5547 10.457 4.0977 1.8594 1.9609 3.4688 4.1484 4.7891 6.5078 1.3516-1.8477 3.1523-3.3164 5.2305-4.2773zm-5.3555 22.562c-0.070312 0.039062-0.14062 0.039062-0.21875 0.078125-2.1914 0.23047-4.2969 0.98047-6.1406 2.1875 1.7539 0 3.5117 0.070313 5.2656 0.17969 0.32031-0.83594 0.68359-1.6523 1.0938-2.4453zm-56.93 1.7188c-0.57422-2.0547-0.95312-4.1602-1.1328-6.2852-9.9102-0.25781-20.184 0.32812-30.078 0.4375h-1.5469c0.65234 2.9141 0.95703 5.8945 0.91406 8.8828 10.871-0.4375 22.246-2.5625 31.82-3.0352zm-39.523 2.9648v-0.003906c-0.007813-2.8906-0.39844-5.7656-1.168-8.5508-2.4961 0.10938-4.9805 0.42578-7.4219 0.94531-0.66016 0.14844-9.9844 2.5586-6.8047 4.0977 4.8398 2.1836 10.066 3.3867 15.375 3.5312z"/>
</svg>
