<?xml version="1.0" encoding="UTF-8"?>
<svg width="700pt" height="700pt" version="1.1" viewBox="0 0 700 700" xmlns="http://www.w3.org/2000/svg">
 <path d="m547 651.17c0.085938 7.7969-4.1406 14.137-5.1367 21.645l0.003907 0.003906c-0.15625 1.3008-0.86328 2.4766-1.9375 3.2266-0.37891 0.86719-1.0977 1.5469-1.9883 1.8789-0.88672 0.33203-1.875 0.28906-2.7305-0.12109-23.336-8.8203-47.176-16.234-71.395-22.207-21.297-5.7148-41.914-13.902-63.27-19.238-0.62109 0.5625-1.3711 0.96875-2.1875 1.1758-0.89062 0.44141-1.9102 0.54688-2.8711 0.28906-14.141-3.168-27.344-8.8867-41.621-11.816-15.426-3.1992-30.949-6.0156-46.375-9.2109-3.8711 7.0391-9.5586 10.555-17.922 5.5742-1.6133-0.89844-2.4297-2.7578-1.9961-4.5508-0.097657-0.50391-0.10547-1.0195-0.027344-1.5273 0.4375-2.5977 1.0039-5.1719 1.6992-7.7109-25.605-6.8945-52.297-9.0078-77.434-17.688l0.003906 0.003906c-0.90625-0.28516-1.6914-0.86328-2.2305-1.6406-0.98047-0.53125-1.6914-1.4453-1.9648-2.5234-1.6367-6.9102-0.13281-14.188 4.1055-19.883 0.98438-1.5703 2.8594-2.3359 4.6602-1.9102 0.43359-0.16016 0.89062-0.26172 1.3516-0.29297 12.848-0.58594 25.898 4.9219 38.688 6.4531 3.1133 0.38281 6.25 0.87891 9.3555 1.4375 0-23.668 0.03125-49.543 10.5-71.246-0.54688-0.41016-1.0234-0.875-1.5195-1.3438v-0.003906c-0.085938-0.089844-0.16406-0.19141-0.23438-0.29297-0.53125-0.42188-0.94141-0.96484-1.2031-1.5859-0.83594-2.0039-1.457-4.0859-1.8516-6.2188-17.922 16.488-28.438 47.691-59.062 40.977-13.465-2.9297-27.344-14.137-36.094-24.578-4.8359-5.6328-7.8633-12.594-8.6836-19.977-0.30469-0.019531-0.60937-0.070313-0.90625-0.14844-13.125-3.3398-15.312-20.914-12.852-32.059v0.003906c0.0625-0.25 0.14062-0.49609 0.23438-0.73438 0-1.0781 0.41016-2.1172 1.1484-2.9023 2.168-2.668 5.125-4.582 8.4453-5.4688 0.37891-0.86719 0.89453-1.668 1.5234-2.375 6.2188-6.8633 15.984-9.7656 24.199-13.402 12.578-5.6055 23.258-14.766 35.902-20.301 6.6875-2.9023 13.52-4.4297 20.441-6.6875 5.9062-2.6758 12.004-4.9023 18.246-6.6562-1.4258-3.2969-1.9883-6.8984-1.6406-10.473 0.035156-0.67188 0.25781-1.3242 0.64453-1.875 0.33594-1.0469 1.1484-1.875 2.1875-2.2344 4.4414-1.6289 9.0586-2.7305 13.758-3.2812-4.6641-28.629-5.0195-58.516-8.75-87.266-11.543-88.719-28.703-176.71-48.527-263.94-0.078125-0.35938-0.097656-0.72656-0.0625-1.0938-0.085938-0.32422-0.17578-0.64453-0.23438-0.99609-0.58594-2.4062 1.6719-5.2773 4.3164-4.3086 20.781 7.5977 26.074 28.066 30.035 47.867 6.8047 33.82 13.988 67.551 20.148 101.52 6.5625 36.488 12.496 73.09 17.5 109.84 3.9062 28.742 4.8711 58.191 8.5977 86.953 6.1289-10.09 14.219-19.004 20.293-29.18h-0.003906c6.4727-11.816 14.172-22.914 22.969-33.117 2.4336-34.203 22.316-61.508 60.098-58.867 37.312 2.6406 45.113 34.727 46.348 66.406v0.003907c0.09375 1.2422-0.40625 2.4609-1.3516 3.2812 0.28906 5.8672 1.2578 11.703 1.3516 17.598 0.042969 0.84766-0.17969 1.6914-0.64453 2.4062-4.8711 18.539-11.352 37.219-24.406 51.539 0.26172 0.26172 0.49609 0.61328 0.76562 0.93359 4.9297-2.2812 10.176-3.8008 15.562-4.5 15.594-2.3203 31.48 1.4414 44.379 10.504 0.92969 0.53125 1.6133 1.4023 1.9023 2.4336 0.14844 0.21094 0.27734 0.4375 0.38281 0.67188 5.4688 13.316 9.8008 27.102 15.227 40.418 5.1289 12.578 11.703 24.348 17.129 36.75 7.5703 17.25 13.613 35.379 9.4453 54.234h-0.003906c-0.074219 0.29297-0.17188 0.57812-0.29297 0.85547 1.7344 3.332 2.4844 7.0938 2.1641 10.836-0.32422 3.7461-1.7031 7.3203-3.9805 10.312-6.9219 6.8906-21.355 3.4023-29.859 3.6641-1.3516 0.03125-2.7344 0.058593-4.0781 0.12109v-0.003906c-3.2383 6.957-7.9766 13.105-13.875 18.012 0.125 0.58594 0.14453 1.1914 0.058594 1.7852-3.1602 15.836-8.3555 31.195-15.453 45.699 26.016 8.3633 52.352 14.875 77.578 25.609 0.60938 0.23438 1.1523 0.60938 1.5859 1.0938 1.0938 0.79688 1.7383 2.0703 1.7227 3.4219zm-12.879 16.805v0.003906c1.6914-4.6289 3.0078-9.3828 3.9336-14.219-24.844-10.391-50.891-16.457-76.41-24.906-23.844-7.918-47.719-16.867-72.773-20.004 2.875 6.3672 7.0703 12.086 10.594 18.215 0.19531 0.015625 0.39453 0.042969 0.58594 0.089844 24.062 5.7188 47.336 14.93 71.301 21.355 21.258 5.3477 42.215 11.848 62.77 19.469zm-10.707-143.16c1.0039-6.3242 0.91406-12.77-0.26172-19.062-0.85938 0.53125-1.8633 0.78516-2.8711 0.73047-2.1719-0.29297-4.1992-1.25-5.8086-2.7344-0.38281-0.32422-0.73438-0.67969-1.0938-1.0273-0.042968 0.30469-0.10156 0.60938-0.17578 0.90625l-0.4375 1.5c-0.23438 0.54688-0.50391 1.0547-0.76562 1.582-0.375 0.58594-0.80859 1.1328-1.2891 1.6406-0.63672 0.53516-1.3867 0.92188-2.1875 1.1406-0.76172 0.21875-1.5625 0.26953-2.3477 0.14844-0.64844-0.11328-1.2852-0.28125-1.9023-0.50391-1.0352-0.45312-2.0312-1-2.9648-1.6406-1.1758-0.78906-2.2305-1.6406-3.2812-2.4609-0.21094 0.92578-0.51562 1.832-0.90625 2.6953-0.62109 1.4102-1.6523 2.6016-2.9648 3.4102-1.3477 0.75-2.8984 1.0586-4.4297 0.875-2.2812-0.36328-4.457-1.2031-6.3945-2.4609-0.73438-0.46875-1.4375-0.94141-2.082-1.4102v-0.003907c-0.21875 0.71484-0.52344 1.3945-0.90625 2.0312-0.95703 1.6953-2.5195 2.9648-4.375 3.5469-1.5547 0.48047-3.2266 0.4375-4.7539-0.11719-1.207-0.39453-2.332-1.0117-3.3125-1.8164-1.2852-1.1133-2.3047-2.5-2.9922-4.0547-0.35547-1.0234-0.44141-1.6406-0.23438-1.7539s0.64453 0.28906 1.3516 1.1445h-0.003906c0.97656 1.0352 2.0781 1.9414 3.2812 2.6953 1.6445 1.0664 3.6875 1.3242 5.5469 0.70312 0.97266-0.4375 1.75-1.2148 2.1875-2.1875 0.50391-1.25 0.76172-2.582 0.76172-3.9297l0.23438-3.7227 3.1406 2.1875-0.003906-0.003906c1.4141 1.0195 2.8867 1.9609 4.4023 2.8164 1.4141 0.84766 2.9766 1.4023 4.6055 1.6406 1.3789 0.03125 1.875-0.23438 2.5469-1.668h0.003907c0.65234-1.75 1-3.5977 1.0273-5.4688l0.26172-4.9531 3.7852 3.168 1.8477 1.5547c1.5273 1.2617 2.9922 2.4922 4.4023 3.4609 1.4102 0.96875 3.0469 1.6133 3.2539 1.4062 0.17578 0.17969 1.0547-0.96875 1.4062-2.4609v-0.003906c0.41797-1.5195 0.71094-3.0703 0.87891-4.6367l0.64453-5.1016 3.1992 3.8281c1.1641 1.4648 2.4102 2.8633 3.7266 4.1953 0.91016 1.0273 2.0859 1.7812 3.4023 2.1875 0.35156 0.082032 0.72266 0.015626 1.0273-0.17578 0.14844-0.11328 0.35156-0.26172 0.4375-0.32422 0-0.042968 0.023438-0.085937 0.058594-0.11328 0.089844-0.12109 0.16797-0.25 0.23438-0.38281-1.793-7.1445-4.2578-14.102-7.3594-20.781-1.3945 1.1914-3.2266 1.7461-5.0469 1.5234-2.8789-0.43359-5.6211-1.5273-8.0078-3.1914-0.10156 0.51953-0.24609 1.0273-0.4375 1.5195-0.40625 1.1875-1.1406 2.2344-2.1172 3.0234-1.1055 0.8125-2.4531 1.2344-3.8281 1.2031-2.0469-0.13281-4.0469-0.66016-5.8945-1.5508-0.54687-0.23437-1.0938-0.50391-1.6406-0.73828v0.14844-0.003907c0.015624 2.7148-0.76172 5.375-2.2305 7.6562-0.27734 0.33984-0.58203 0.65234-0.90625 0.94141-0.36719 0.30078-0.76172 0.56641-1.1758 0.79297l-0.35156 0.17578-0.41016 0.17578-0.32422 0.085938c-0.40625 0.14062-0.83203 0.22656-1.2617 0.26172-1.3828 0.085938-2.7695-0.11328-4.0742-0.58203-2.7266-1.0273-5.3008-2.418-7.6562-4.1367-0.082031 0.82422-0.23047 1.6367-0.44141 2.4336-0.34375 1.25-1.0352 2.3789-1.9922 3.2539-2.4883 2.2617-6.2812 2.2852-8.8008 0.0625-1.2148-0.85156-2.2852-1.8906-3.1719-3.082-3.2227-4.1328-3.1055-7.5703-2.6367-7.543 0.46875-0.054687 1.1719 2.6133 4.543 5.7812l0.003907 0.003906c0.87109 0.82813 1.8477 1.5352 2.9023 2.1094 2.1094 1.1758 4.7539 0.96875 5.25-1.6406 0.23828-1.8477 0.35547-3.7109 0.35547-5.5742l0.23047-3.6367 3.1719 2.082v0.003906c2.9961 2.1797 6.2578 3.9609 9.707 5.3047 1.7266 0.61719 2.9023 0.29688 3.168-0.28906 0.80078-1.5312 1.1914-3.2383 1.1406-4.9609 0.085938-1.2031 0.12109-2.4336 0.26953-3.8281l0.32422-3.4961 3.168 1.5c1.6406 0.79297 3.2266 1.5547 4.7812 2.2852h-0.003907c1.2578 0.63672 2.6172 1.0547 4.0195 1.2344 0.94141-0.058593 1.0547-0.03125 1.5859-1.0938 0.41797-1.2344 0.64453-2.5234 0.67188-3.8281l0.38281-4.375 3.168 2.668v0.003906c2.5391 2.418 5.5977 4.2227 8.9453 5.2773 1.0586 0.30078 2.1992 0.035156 3.0195-0.70312l0.20703-0.20703c-2.3477-5.043-4.8398-9.9688-7.2188-14.809h-0.17578c-1.7969 0-3.5898-0.26562-5.3086-0.79297-2.832-0.83594-5.5781-1.9375-8.2031-3.2812-0.23828 0.76172-0.60937 1.4766-1.0938 2.1094-0.76172 0.97266-1.8086 1.6836-2.9922 2.0234-1.0703 0.27734-2.1875 0.32812-3.2812 0.14844-2.2305-0.48438-4.3438-1.4023-6.2188-2.6992-0.32422 0.97266-0.78906 1.8906-1.3789 2.7344-1.4805 2.0352-3.8438 3.2461-6.3633 3.2539-2.0508-0.066406-4.0547-0.62891-5.8359-1.6406-0.58984-0.32422-1.1445-0.70703-1.6719-1.0547v-0.003907c-1.2539 2.9062-3.5 5.2656-6.3398 6.6562-3.0977 1.5469-6.7812 1.3594-9.707-0.49609-1.707-1.2031-3.0156-2.8867-3.75-4.8398-0.35547-1.2305-0.44141-1.9648-0.23438-2.082 0.58594-0.35156 1.6406 2.7344 5.3359 4.5781v-0.003907c2.1602 0.95312 4.6484 0.77734 6.6562-0.46875 2.5977-1.6445 4.3203-4.3711 4.6953-7.4219l0.58594-3.75 3.0781 2.4336c1.957 1.8203 4.4531 2.9648 7.1094 3.2539 0.97656 0.003906 1.8906-0.48047 2.4336-1.293 0.73047-1.1797 1.1719-2.5156 1.293-3.8984l0.058594-0.46875 0.76562-4.543 3.3398 2.9648v-0.003906c1.9648 1.8594 4.3359 3.2344 6.9258 4.0156 1.0938 0.20703 1.4648 0 1.8477-0.37891 0.52344-0.8125 0.83594-1.7383 0.90625-2.7031l0.46875-3.5781 2.9297 1.7891 0.003907 0.003906c3.1211 1.9805 6.4141 3.668 9.8438 5.0469 0.90625 0.32031 1.7578 0.58203 2.5547 0.78906-0.41406-0.87891-0.85156-1.7539-1.2617-2.6367-2.2578-4.7539-4.3164-9.5938-6.25-14.465-0.17578 0.09375-0.32422 0.14844-0.54688 0.23438h-0.003906c-0.62891 0.22266-1.293 0.33203-1.9609 0.32031-2.3203-0.16406-4.5039-1.1523-6.1641-2.7812-0.41016-0.35547-0.76172-0.76562-1.1719-1.1445-0.070312 0.23437-0.17188 0.46094-0.29297 0.67187-0.64062 1.0859-1.6172 1.9336-2.7852 2.4062-1.0469 0.39844-2.1602 0.59766-3.2812 0.58594-2.4375-0.18359-4.8125-0.86328-6.9844-1.9961-0.35156 1.7227-1.1992 3.3008-2.4336 4.5508-1.0156 0.98047-2.3047 1.6328-3.6953 1.875-0.62109 0.10156-1.2461 0.16016-1.875 0.17578-0.58594 0-1.1445-0.085938-1.6992-0.14844h-0.003906c-2.6797-0.53125-5.2539-1.5-7.6211-2.8711-0.27734 1.0586-0.69141 2.0742-1.2383 3.0195-1.0664 1.8242-2.6484 3.293-4.543 4.2227-3.0898 1.5195-6.7539 1.3125-9.6523-0.54688-1.7188-1.1445-3.0664-2.7656-3.8711-4.6641-0.41016-1.2305-0.49609-1.9648-0.28906-2.082 0.20703-0.12109 0.73438 0.41016 1.5273 1.4375l-0.003906-0.003906c1.082 1.2539 2.4102 2.2734 3.8984 2.9922 2.1562 0.95703 4.6406 0.80469 6.668-0.39844 1.168-0.72656 2.1172-1.7617 2.7344-2.9922 0.62891-1.4297 0.94922-2.9805 0.94141-4.543l0.085938-3.6641 3.2539 1.7891c2.7148 1.6562 5.6914 2.8477 8.8008 3.5156 1.1211 0.28125 2.3125 0.007812 3.1992-0.73438 0.85156-1.0664 1.3242-2.3867 1.3516-3.75l0.085937-1.2305 0.38281-4.4023 3.5156 2.4336c2.2539 1.6641 4.8828 2.7422 7.6562 3.1367 1.1758 0 1.6406-0.20312 1.9375-0.64453 0.42578-0.88281 0.59766-1.8672 0.49609-2.8438l-0.097656-6.4375 4.0195 4.7266c1.4922 1.7266 2.582 3.2266 3.8281 4.4297 0.88281 1.0586 2.0898 1.8008 3.4336 2.1094 0.17578 0.085937 0.64453-0.058594 0.54688 0 0.1875-0.046876 0.36719-0.10547 0.54688-0.17188-1.9648-5.0156-3.8281-10.09-5.7188-15.164v-0.003906c-0.12891-0.042969-0.24609-0.11328-0.35156-0.19922-9.2344-7.1836-20.527-11.223-32.223-11.523-11.695-0.30078-23.18 3.1523-32.773 9.8477 1.0703 2.668 2 5.3906 2.7852 8.1562 2.1875 8.0938 2.1875 16.246 4.0469 24.348 3.6094 15.426 9.4453 30.238 14.082 45.391v-0.003906c0.20703 0.30078 0.375 0.625 0.49609 0.96875 2.9688 7.0039 6.3555 13.824 10.152 20.414 22.086 5.8203 44.934-2.0977 67.105 3.4141zm-28.887 22.027c9.0898-0.49609 37.922 3.4883 28.477-13.055-21.262-6.0156-43.289 1.0938-64.789-2.9023 1.6406 7.918 4.4844 13.316 14.488 14.988 7.2188 1.1172 14.535 1.4414 21.824 0.96875zm-7.1094-130.02c-0.82031-2.2578-1.6992-4.5156-2.5469-6.7773-10.016-7.5039-22.648-10.613-35-8.625-10.477 1.332-20.375 5.5664-28.57 12.23 0.58594 1.4375 1.2031 2.875 1.7891 4.3164v-0.003906c9.4922-6.3086 20.59-9.7695 31.988-9.9727 11.395-0.20312 22.609 2.8633 32.32 8.832zm-5.4688-14.219-0.17578-0.49609v-0.003906c-9.3789-6.7461-20.82-10.016-32.352-9.2422-11.938 0.99609-24.375 4.4883-30.242 15.516 0.14844 0.38281 0.29687 0.73437 0.44141 1.0938 10.883-7.3047 19.855-12.496 33.992-12.672h0.003907c9.7812-0.59766 19.547 1.4102 28.293 5.8242zm-2.7344 152.79c-2.7227-0.20703-5.4336-0.55859-8.1211-1.0547-0.074219 0.03125-0.15625 0.0625-0.23438 0.085937-10.938 1.9375-19.828 5.8359-30.418 2.1445-1.082 3.8203-2.6289 7.4922-4.6055 10.938 15.383 0.82031 30.609-3.4258 43.348-12.09zm-7.3867 24.312c-3.2891 1.5508-6.7188 2.7891-10.238 3.6992-0.98047 11.625-5.1641 22.754-12.086 32.145 2.7891 0.91406 5.5469 1.8203 8.3008 2.7344 5.8867-12.375 10.57-25.285 13.988-38.555zm-9.6211-27.863c-9.8438-4.168-11.648-13.125-13.289-23.293v0.003906c-0.10938-0.68359-0.070313-1.3828 0.11719-2.0508-2.0781-4.1055-4.3086-8.125-6.3945-12.234 1.6445 12.68 1.25 25.539-1.1758 38.09 6.7773 2.0703 14.039 1.8984 20.711-0.49219zm-21.328 60.863c6.1289-8.0742 10.176-17.527 11.793-27.535-8.3633 1.0117-16.809 1.1406-25.195 0.38281-6.1406-0.52344-12.195-1.7617-18.047-3.6953 0.17578 6.3672-0.93359 12.672-1.2891 19.035-0.027344 0.64453-0.058594 1.3164-0.058594 1.9648v0.54688c11.059 2.5469 21.941 5.8281 32.766 9.3242zm43.793-55.961c-40.684 32.293-93.801 8.8008-125.92-24.816-0.85547 1.918-1.8672 3.7617-3.0234 5.5156 18.773 16.895 46.254 38.129 71.777 39.305 23.254 1.0781 44.402-0.24609 57.133-19.984zm-42.004-222.75c0.027343-0.17578 0.11328-0.28906 0.14844-0.4375-0.20703-7.1602-1.5859-14.219-1.4102-21.383-16.129-3.6719-32.656-5.2891-49.188-4.8125-9.8555 7.9375-15.582 19.91-15.574 32.562-0.003906 0.99219-0.67969 1.8594-1.6406 2.1094-0.87891 0.11328-1.7344 0.29688-2.582 0.46875 3.2266 11.809 9.9805 22.348 19.359 30.211-0.52344-1.3711-0.875-2.8008-1.0547-4.2539 0.085938-2.4609 0.46484-4.0469 1.1445-4.1602 0.67969-0.11328 1.5273 1.2891 2.3203 3.6367l-0.003906-0.003907c1.1875 2.4648 2.7617 4.7227 4.6602 6.6914 2.3789 2.2852 4.9883 4.457 6.6602 6.332 0.085938 0.085938 0.11328 0.14844 0.20313 0.23438 3.8203 1.5625 7.8555 2.5391 11.969 2.9023 0.32422-0.085938 0.64453-0.14844 0.96875-0.20312 13.258-13.582 19.328-31.852 24.02-49.895zm-3.4883 198.81c0.054687-4.2539-0.085938-8.5078-0.41016-12.578-11.441-1.3164-23.23 0.17578-34.496-2.5469-1.0938 3.9258-2.1875 7.832-3.4023 11.73v-0.003906c12.621 2.4336 25.457 3.5742 38.309 3.3984zm-2.0547 18.625h-0.003906c1.0078-4.6797 1.6367-9.4375 1.8828-14.219-13.227 0.14063-26.438-1.0547-39.426-3.5781-0.82031 2.5195-1.6719 5.043-2.5195 7.5352 10.824 9.4961 26.277 9.1719 40.062 10.262zm0.96875-35.613c-0.41016-3.6914-1.8164-7.1875-1.8164-10.324v-0.027343c-8.8008-0.58594-20.234 3.4023-30.539 4.1953 0.14844 0.35156 0.44141 0.76172 0.32422 1.2031-0.23438 0.87891-0.54688 1.7266-0.76172 2.582 10.707 2.5781 21.852 1.1797 32.789 2.3711zm4.168-212.45c-1.8477-22-8.1523-43.559-34.141-47.074-19.977-2.7031-34.289 4.375-43.203 16.867h-0.003907c7.2852-4.7461 15.547-7.7852 24.172-8.8945 7.8047-0.82031 12 0.87891 12 1.4102 0 0.82031-4.8125 0.4375-11.414 2.0508v0.003906c-8.8516 2.1484-17.207 5.9844-24.609 11.293-1.3516 1.1445-2.7891 2.4648-3.8984 3.4961l-0.91406 1.0938c-0.28906 0.38281-0.37891 0.64453-0.61328 0.94141v-0.003907c-0.40234 0.66406-0.76562 1.3477-1.0938 2.0508-0.81641 1.9883-1.4453 4.0508-1.875 6.1562 2.2188-2.418 4.707-4.5703 7.418-6.418 5.2812-3.6094 11.047-6.4453 17.129-8.4219 5.3203-2.3203 11.125-3.3086 16.91-2.8828 0.12109 0.73437-6.2461 1.9648-15.777 6.043-5.5781 2.3086-10.855 5.2812-15.723 8.8555-4.0586 2.8945-7.4453 6.6211-9.9414 10.938 11.527-8.7617 25.23-14.211 39.625-15.758 4.7109-0.3125 9.4336 0.39063 13.848 2.0625 1.1758 0.44531 2.3008 1.0273 3.3398 1.7344 0.70703 0.46875 1.0547 0.79297 0.96875 0.96875-5.8516-1.2734-11.855-1.707-17.832-1.293-6.418 0.88281-12.66 2.7539-18.508 5.5391-3.5234 1.5781-6.9492 3.3633-10.266 5.3438-0.87891 0.49609-1.7344 1.0234-2.6133 1.5547-0.76172 0.46875-1.6992 1.1445-2.5469 1.6992-0.44141 0.32422-0.87891 0.61719-1.2891 0.90625 25.996-7.6523 54.449-5.7734 80.848-0.26172zm-11.484 263.95-0.003906 0.003906c2.3125-3.5781 4.0703-7.4844 5.2188-11.59-14.016-1.0938-29.18-1.2617-40.469-10.117-0.82031 2.3477-1.6719 4.6914-2.5195 7.0391h-0.003906c7.043 5.7148 15.102 10.047 23.758 12.758 4.6367 0.91016 9.3203 1.5469 14.031 1.9102zm-2.3047-69.926c2.2812-0.3125 4.582-0.49609 6.8906-0.54687-2.6367-7.8906-5.5391-15.75-8.0078-23.73-0.17969 0.19922-0.33984 0.41406-0.46875 0.64844-0.38281 0.59375-0.89453 1.0938-1.4961 1.4648 1.7812 7.2617 2.8125 14.691 3.082 22.164zm-6.7773-31.172c0.91797-0.93359 1.9297-1.7695 3.0234-2.4922-0.94141-3.8281-1.7617-7.7109-2.3203-11.617h0.003906c-2.3789-14.543-6.4453-28.758-12.113-42.355-0.21875-0.57031-0.32031-1.1797-0.29687-1.7891-15.469 0.24609-30.336 6.043-41.887 16.34 4.7344-0.26953 9.4453-0.82812 14.109-1.6719 8.625-1.5312 21.926-3.4062 27.941 5.0703 5.5469 7.832 2.582 17.566-0.35156 25.867-0.44141 1.2617-0.82422 2.5195-1.2344 3.7852 5.5664 0.62891 10.473 3.9492 13.125 8.8867zm-2.4062-72.859c0.078126 0.023438 0.14844 0.066407 0.20703 0.12109l-0.20703-0.14844c-0.082031-0.046875-0.16016-0.09375-0.23437-0.14844-22.613 9.3555-51.793 9.1562-66.348 30.949 3.0781 0.26172 6.1914 0.41016 9.2695 0.37891 10.5-13.23 32.812-21.617 49.715-20.879v-0.003906c2.0312-3.7773 4.8242-7.0977 8.2031-9.7383-0.21875-0.14844-0.42188-0.32031-0.60547-0.51172zm0.46875 105.45c-0.58594-9.418-0.54687-32.379-13.578-32.734v-0.003906c-2.5039 11.277-3.4805 22.84-2.9023 34.379 0.32422 0.14844 0.64453 0.29688 0.96875 0.46875 5.2148-0.29297 10.402-0.99219 15.512-2.0898zm-15.895-56c2.5195-12.992-9.2109-13.613-19.301-11.676-20.004 3.8711-43.82 3.2812-62.066-6.9219v-0.003906c-0.37891 1.832-1.1602 3.5547-2.2852 5.0469 23.547 8.5352 46.691 5.25 71.152 6.6016 9.6797 0.54688 10.5 8.418 9.8008 15.926 1.1445-2.9141 2.0469-5.9141 2.6992-8.9727zm-3.9609 151.55c0.17188-2.2969 0.21094-4.5977 0.11328-6.8984-1.5742 0.32031-3.1914 0.36328-4.7773 0.12109-2.1562-0.39062-4.1562-1.3789-5.7773-2.8477-0.64844-0.58203-1.25-1.2188-1.793-1.9023-0.17969 0.36328-0.38672 0.71484-0.61328 1.0547-0.6875 1.0469-1.7109 1.832-2.9023 2.2266-1.3164 0.32031-2.707 0.14453-3.8984-0.5-1.6602-0.96875-3.1016-2.2695-4.2266-3.8281l-0.70703-0.96875c-0.32422 0.54688-0.64453 1.1445-1.0547 1.7617-0.33203 0.51562-0.71484 0.99609-1.1445 1.4336-0.51562 0.59766-1.1289 1.1016-1.8164 1.5-0.26563 0.17188-0.55469 0.32031-0.85156 0.4375l-0.70703 0.26953v-0.003906c-0.11719 0.03125-0.23438 0.070312-0.34766 0.11719-0.066407-0.003906-0.13672-0.003906-0.20313 0l-0.32422 0.058594-0.61719 0.058593c-0.39062 0.019532-0.78516 0.011719-1.1758-0.03125-2.4023-0.45703-4.6406-1.5508-6.4805-3.168-0.92969-0.75391-1.8086-1.5703-2.6406-2.4336-1.3125 1.2188-2.918 2.0781-4.6602 2.4961-2.6211 0.48828-5.3281-0.011719-7.6016-1.4062-2.7656-1.6953-5.1367-3.9688-6.9492-6.6602-0.46875 0.58594-0.93359 1.2031-1.4648 1.7891-1.043 1.4688-2.6406 2.4453-4.4258 2.6953-1.7812 0.25-3.5898-0.24609-4.9922-1.375-0.94141-0.76562-1.7812-1.6523-2.4883-2.6406-2.4062-3.5508-2.3789-6.1289-2.0273-6.1289 0.41406-0.12109 1.0938 2.0234 3.7578 4.7539 2.4336 2.4336 5.1367 3.6367 7.3594 0.54687 0.26172-0.35547 4.6055-6.0742 4.6055-6.1641l1.5273 2.1875h-0.003906c1.8438 2.8789 4.332 5.2891 7.2734 7.0352 1.3125 0.78516 2.8672 1.0703 4.375 0.79297 1.5703-0.50391 2.918-1.5273 3.8281-2.9023l1.8164-2.375 1.9688 2.2578v0.003906c1.1641 1.332 2.4453 2.5586 3.8281 3.6641 1.1602 1.0078 2.5352 1.7383 4.0195 2.1406 0.10547-0.015626 0.21484-0.015626 0.32031 0 0 0.058593 0.67187-0.20703 0.67187-0.20703 0.26172-0.085937 0.49609-0.20312 0.4375-0.26172 0.058594-0.11328 0.14844-0.085938 0.41406-0.4375h0.003906c0.25781-0.27344 0.49219-0.56641 0.69922-0.87891 0.94141-1.3242 1.6719-3.0859 3.0781-5.0195l2.1875-2.9922 1.8477 3.2812h0.003907c0.73047 1.3438 1.5508 2.6367 2.4609 3.8711 0.68359 1.0547 1.5703 1.9609 2.6055 2.668 0.38281 0.26172 0.50391 0.11328 0.50391 0.23438 0.22656-0.12891 0.41797-0.32031 0.54688-0.54688 0.63672-0.98438 1.1211-2.0625 1.4336-3.1914l1.4102-4.1406 2.3477 3.4336c1.0273 1.6172 2.1836 3.1484 3.4609 4.5781 1.043 1.0898 2.3672 1.8711 3.8281 2.2578 1.2266 0.30469 2.4961 0.38281 3.75 0.23047-0.27734-1.8867-0.85156-3.7188-1.6992-5.4258-0.26562-0.5625-0.43359-1.168-0.49609-1.7891-7.1992-3.3945-14.113-7.3555-20.68-11.852-0.36719 0.41016-0.78125 0.77734-1.2305 1.0938-0.96875 0.62891-2.1523 0.83984-3.2812 0.58594-1.875-0.6875-3.5352-1.8633-4.8125-3.4023-0.61328-0.61719-1.2578-1.2617-1.875-1.9102v0.003906c-0.33203 0.82031-0.72266 1.6133-1.1719 2.3789-0.25781 0.48047-0.57422 0.93359-0.9375 1.3438l-0.54688 0.64453-0.84766 0.64453v0.003906c-0.63672 0.47266-1.3984 0.75781-2.1875 0.82031-0.41797 0.042969-0.83984 0.042969-1.2578 0-0.35547-0.085938-0.70703-0.20312-1.0938-0.32422-2.0117-1.0391-3.75-2.5391-5.0781-4.375-0.54688-0.67969-1.0938-1.3516-1.6406-2.0547-0.38281 0.55078-0.82812 1.0625-1.3164 1.5234-0.86328 0.8125-1.8789 1.4414-2.9922 1.8477-1.2344 0.35547-2.5469 0.35547-3.7852 0-1.9883-0.61719-3.8086-1.6914-5.3086-3.1367-0.61328-0.54688-1.1719-1.0938-1.7266-1.6406-0.98047 1.3594-2.1797 2.5508-3.5508 3.5156-1.25 0.85547-2.7969 1.1641-4.2812 0.85156-1.2266-0.32031-2.3398-0.96875-3.2266-1.875-1.5703-1.6328-3.0312-3.3711-4.375-5.1953-0.57422 0.8125-1.2109 1.5781-1.9023 2.293-0.95312 0.94531-2.1367 1.625-3.4375 1.9609-1.418 0.32031-2.9023 0.089844-4.1602-0.64453-1.7383-1.0664-3.2539-2.4609-4.4609-4.1055-0.54688-0.64453-0.99609-1.2891-1.4922-1.9375h-0.003906c-1.9492 2.6133-4.5625 4.6602-7.5664 5.9219-1.7695 0.73438-3.7422 0.82812-5.5742 0.26953-1.5117-0.46094-2.8477-1.3711-3.8281-2.6133-1.2656-1.5586-2.1406-3.3984-2.5547-5.3672-0.23438-1.2891-0.29688-1.9961-0.085938-2.0547 0.20703-0.058594 0.58594 0.54688 1.2031 1.6719 0.78125 1.5625 1.8242 2.9805 3.0781 4.1953 1.7188 1.7656 4.4062 2.1602 6.5625 0.96875 3.0078-1.7344 5.4688-4.2734 7.1094-7.332l1.4102-2.375 1.8164 2.1875c1.0273 1.2305 2.0547 2.5195 3.1406 3.7578 0.92188 1.1445 2.0312 2.125 3.2812 2.9023 0.32813 0.19922 0.71875 0.26562 1.0938 0.17578 0.48828-0.19141 0.92578-0.50391 1.2617-0.90625 1.1289-1.2617 2.0781-2.6758 2.8164-4.1953l1.6406-2.9375 2.2578 2.5547c2.1094 2.375 4.168 5.2773 6.1289 7.1875l0.003907-0.003906c0.29297 0.30078 0.64062 0.54297 1.0273 0.70703 0.085938-0.058594 0.085938 0.085937 0.54688-0.23438 1.0938-0.88672 2.043-1.9375 2.8164-3.1133l1.0273-1.4648 1.7617-2.5195 2.0781 2.1875c1.2344 1.2617 2.3789 2.4922 3.5234 3.5508v-0.003907c0.92187 0.92578 2.0312 1.6445 3.2539 2.1133 0.85156 0.23438 1.3789 0.085938 2.293-0.70703h-0.003906c0.91797-0.95703 1.6875-2.043 2.2852-3.2266l1.875-3.2266 2.1094 2.9023c1.2031 1.6719 2.3203 3.3125 3.4336 4.7852h0.003907c0.86328 1.2617 1.9453 2.3555 3.1992 3.2266 0.41016 0.17578 0.26172 0.11328 0.61328 0 0.082031-0.066407 0.16797-0.12891 0.26172-0.17969l0.29688-0.32422v0.003907c0.23438-0.23828 0.44141-0.50391 0.61719-0.78906 0.79297-1.3047 1.457-2.6797 1.9922-4.1055l0.82422-2.0234c-5.7188-4.5156-11.145-9.2109-16.191-13.812v-0.003906c-0.21875-0.19531-0.41406-0.41016-0.58594-0.64453-3.082-1.3086-6.0625-2.8398-8.9219-4.5781-0.41016 0.78125-0.87109 1.5352-1.375 2.2578-1.4023 2.2031-3.7148 3.668-6.3086 3.9883-2.6875-0.035156-5.2734-1.043-7.2734-2.8438-1.0234-0.85156-1.9922-1.7656-2.9023-2.7344-0.58594 0.71484-1.2539 1.3516-1.9961 1.9023-1.9062 1.5625-4.4141 2.1875-6.832 1.707-2.0742-0.51562-3.9609-1.6133-5.4297-3.1719-1.6133-1.6367-2.9766-3.5039-4.0469-5.5391-1.9492 2.1602-4.5977 3.5625-7.4805 3.957-1.9688 0.1875-3.918-0.52344-5.3047-1.9336-1.0508-1.0508-1.8242-2.3398-2.2578-3.7578-0.65625-1.793-0.94531-3.6992-0.85938-5.6055 0.12109-1.2305 0.32422-1.9375 0.54688-1.9375 0.61719-0.11328 0.76562 2.7891 2.6406 6.4531 0.93359 1.7891 2.6406 3.5508 4.7539 3.0781v0.003906c2.7812-1 5.1133-2.9648 6.5625-5.543l2.0547-3.0234 1.7539 3.4023h0.003906c1.2344 2.5586 2.8828 4.8945 4.8711 6.9219 0.83984 0.88281 1.9062 1.5234 3.0781 1.8516 1.0234 0.16406 2.0664-0.13672 2.8438-0.82031 1.0703-0.90234 1.9805-1.9766 2.7031-3.1719l1.9375-2.7852 2.0508 2.5195h-0.003906c1.2852 1.6289 2.707 3.1406 4.2578 4.5195 1.0781 1.082 2.4727 1.793 3.9844 2.0234 1.3047-0.21484 2.4609-0.95703 3.1992-2.0508 0.48828-0.57422 0.92188-1.1914 1.293-1.8477-11.352-7.5703-21.031-17.395-32.352-25.402h-0.003907c-0.042969-0.023437-0.085937-0.054687-0.12109-0.089844-6.0156-1.875-12.316-2.082-18.098-3.8281-10.117 20.711-9.4727 46.023-9.5039 68.578h0.003906c-0.03125 0.13672-0.050781 0.27344-0.054687 0.41016 7.1875 1.5 14.371 3.1719 21.559 4.6055 0.64453-2.2852 1.2578-4.5703 1.7266-6.918 0.5625-2.0508 2.5195-3.4023 4.6367-3.1992 0.36328-0.046875 0.73047-0.046875 1.0938 0 3.1094 0.38281 6.1914 0.92969 9.2422 1.6406 1.9141 0.51953 3.2383 2.2656 3.2266 4.25-0.085938 1.4102-0.20703 3.3125-0.41016 5.5742v-0.003906c9.375 1.9766 18.508 4.957 27.246 8.8867 0.57031 0.23047 1.0977 0.55859 1.5508 0.96875 0.058593 0 0.14844-0.027344 0.20703-0.027344 12.438-1.6406 24.348 4.0781 36.641 4.7812h0.003906c1.4492 0.023438 2.7852 0.80469 3.5195 2.0547 0.62109 0.60156 1.0078 1.4023 1.0938 2.2578 0.03125 0.20313 0.12109 0.41016 0.14844 0.61328 4.457 0.50391 8.8867 1.1758 13.258 1.9688 0.13672-2.5195 0.37109-4.9258 0.63281-7.3594zm-7.4492-75.703c6.0156-0.70703 6.1289-5.8398 6.6289-10.473-8.8633-4.3633-18.633-6.5664-28.508-6.4258-1.1758 2.9922-2.4062 5.957-3.668 8.8867h-0.003906c4.625 3.9062 10.277 6.3984 16.281 7.1836 3.0273 0.75781 6.1562 1.0352 9.2695 0.82812zm5.957 3.6914c-0.53125 0.29688-1.1758 0.29688-1.707 0-2.8867 0.875-5.9336 1.0938-8.9141 0.64453-8.1641-0.44531-16.031-3.1914-22.699-7.918-0.64453 1.582-1.2344 3.1953-1.8203 4.8086 10.324 5.4688 19.828 12.469 30.531 17.188 1.5898-4.8984 3.1719-9.7969 4.6094-14.723zm-0.17969-62.004v-0.003906c-0.58984-0.070313-1.1367-0.33594-1.5547-0.75781-12.793-4.6367-26.133-7.6055-39.688-8.832-11.145-0.32422-22.262 0.20703-33.359 0.46875 3.8906 2.3945 7.4805 5.2422 10.703 8.4766 1.0938 1.0547 2.2305 2.082 3.3125 3.0781 0.12109-1.2578 0.29688-2.3125 0.44141-3.168 0.29687-1.6406 0.58594-2.5547 0.84766-2.5547 0.26172 0 0.54688 0.91406 0.76562 2.6133 0.17578 1.3789 0.29688 3.3398 0.67188 5.5742l0.003906 0.003906c1.9102 1.7188 3.7227 3.543 5.4258 5.4688 1.418-0.80078 2.5-2.082 3.0508-3.6094 0.85547-2.0469 1.4844-4.1836 1.8828-6.3672l0.875-4.3438 3.1719 3.2266c3.1055 3.1406 5.6289 7.1094 8.5039 9.6523v0.003906c0.50781 0.50781 1.1641 0.84766 1.875 0.96484 0.29688 0.11328 0.85156-0.32422 1.5273-0.90625h-0.003906c1.3398-1.6836 2.4414-3.5391 3.2812-5.5195l2.4336-4.9219 1.9102 4.9609c0.90625 2.4023 1.4922 4.543 2.2266 6.4531 0.51172 1.625 1.4102 3.1055 2.6133 4.3086 1.0352 0.71484 2.3789 0.79297 3.4883 0.21094l0.49609-0.17969v-0.20312h0.058594l0.26172-0.085938c0.35547-0.23437 0.70703-0.41016 1.0273-0.61328 0.35156-0.44141 0.79297-0.64453 1.0938-1.2344l0.003906-0.003906c1.1016-1.7422 1.8008-3.7031 2.0508-5.7461 0.29688-1.5273 0.49609-2.4062 0.79297-2.4062s0.58594 0.85156 0.79297 2.4648c0.36719 2.4766-0.03125 5.0039-1.1406 7.2461-0.45312 0.85547-1.0391 1.6367-1.7344 2.3125-0.29688 0.26172-0.61719 0.54688-0.93359 0.79297l-0.23438 0.17578-0.14844 0.12109-0.20703 0.11328-0.054687 0.027343-0.09375 0.058594-0.67188 0.32422h-0.003906c-0.46094 0.26562-0.95313 0.47266-1.4648 0.61719-0.57812 0.1875-1.1797 0.29688-1.7891 0.32422-1.3555 0.066407-2.6953-0.30469-3.8281-1.0547-2.0039-1.4961-3.5391-3.5312-4.4297-5.8672-0.23438-0.54688-0.41016-1.0547-0.61328-1.5547h0.003906c-0.48047 0.77734-1.0312 1.5078-1.6406 2.1875-0.60938 0.61328-1.2734 1.1641-1.9922 1.6406-0.45703 0.23047-0.92969 0.4375-1.4102 0.61719-0.53125 0.16016-1.0859 0.23828-1.6406 0.23438-1.8867-0.066406-3.6875-0.80469-5.0742-2.082-1.8047-1.6094-3.4258-3.4062-4.8398-5.3633-0.4375-0.54688-0.82031-1.0273-1.2305-1.5273-0.33203 0.98828-0.74609 1.9492-1.2305 2.8711-0.98047 2.0547-2.5547 3.7695-4.5195 4.9219 1.1914 1.7266 2.1953 3.5781 2.9922 5.5195 0.16016 0.42188 0.25781 0.86719 0.28906 1.3164 6.3672 3.668 12.207 8.125 18.453 11.938 0.082031 0.050782 0.16016 0.10938 0.23438 0.17578 8.1641 0.023437 16.273 1.2773 24.062 3.7227-0.5625-12.223 0.75391-24.461 3.9062-36.285zm-1.9922-5.4688v-0.003906c0.47266-3.4219-0.46875-6.8906-2.6133-9.6055-2.1445-2.7109-5.3008-4.4336-8.7383-4.7656-1.0039 2.0625-1.1445 4.4375-0.38281 6.6016 0.48047 1.2852 0.70703 2.6484 0.67578 4.0195-0.011719 0.16016-0.042969 0.31641-0.085938 0.46875 3.6914 1.0938 7.4141 2.2109 11.145 3.293zm-7.0117 95.285c0.96875-2.6367 1.9023-5.25 2.8164-7.8867-0.20312-0.41797-0.26562-0.89062-0.17969-1.3516-10.5-4.7539-19.91-11.441-30.078-16.898-0.41406 1.2031-0.82422 2.3789-1.2617 3.5234 0.10937 0.0625 0.21875 0.13281 0.32031 0.20703 8.4453 8.6719 17.988 16.203 28.383 22.406zm-10.176-153.59c7.918-2.5195 16.219-4.4297 24.375-6.9492-18.508-7.6016-32.68-23.027-38.691-42.109-0.23438 0-0.49609 0.027343-0.73438 0.027343-1.0938 8.625-0.61328 17.223-4.2812 25.344 6.4375 6.168 11.621 13.531 15.25 21.676 1.3789 0.63672 2.7305 1.3086 4.082 2.0117zm10.23 230.55c-5.2812-7.2148-9.1992-15.336-11.555-23.965-9.9141-1.4727-20.469-6.0742-30.078-4.8125-6.75 0.90625-10.77 6.1914-16.488 8.9727v0.003906c-2.8516 1.3203-5.7734 2.4883-8.75 3.4922l4.5508 0.875c7.4648 0.3125 14.926-0.67188 22.055-2.9023 2.3398-0.89844 4.5742-2.0586 6.6562-3.457 1.5273-1.0625 2.4375-1.6719 2.668-1.4375 0.23047 0.23438-0.20312 1.1719-1.3789 2.6953-1.8359 2.1367-4.0625 3.8984-6.5625 5.1953-2.5117 1.2891-5.1719 2.2734-7.918 2.9336 1.3789 0.26172 2.7344 0.54687 4.1055 0.82031 3.7305-0.20703 7.4219-0.85547 11-1.9375 3.7617-1.5195 7.4453-3.2344 11.031-5.1367 0.23437 0.20703-0.32422 1.3516-1.8477 3.0508l-0.003906 0.003907c-2.2656 2.3008-4.9688 4.125-7.9492 5.3672-0.61328 0.26172-1.3164 0.54688-1.9922 0.76172 11.082 2.4648 21.613 6.3945 32.457 9.4766zm-8.5898-176.72c0.011719-0.14844 0.011719-0.29297 0-0.44141-0.058594-0.26172-0.12109-0.54688-0.17969-0.82031-2.3477-8.0078-18.828-12.637-17.773-3.1406 0.019531 0.25-0.011719 0.49609-0.089843 0.73437 6.1016 0.75 12.133 1.9805 18.043 3.668zm-8.418-112.31c0.55469-11.238 5.0391-21.922 12.672-30.191-7.1523 0.66406-14.227 2.0195-21.121 4.0469 1.7539 0.77344 3.3008 1.9531 4.5195 3.4336 5.4688 6.5938 4.3086 15.043 2.9648 22.938 0.32031-0.078125 0.64453-0.16406 0.96484-0.22656zm-4.3164-6.1836h0.003907c0.89844-4.0664 0.31641-8.3203-1.6406-12-0.97656-1.4219-2.2734-2.5977-3.7852-3.4336-1.5273 1.4727-5.3984 5.6914-3.5781 6.5117v0.003907c1.7656 0.53906 3.5 1.1875 5.1914 1.9336 1.2305 0.70703 2.207 1.7852 2.7891 3.0781 0.61328 1.3516 0.49609 2.7031 1.0234 3.9062zm-0.23438 68.906c-0.25781-0.60938-0.44141-1.2539-0.54688-1.9102-0.019531-0.15625-0.011719-0.31641 0.027344-0.46875-0.17188-0.29297-0.32812-0.59766-0.46875-0.90625-4.3438-9.0469-10.539-17.082-18.184-23.582-5.5 3.7617-10.262 8.5039-14.051 13.988 8.6875 5.1367 16.922 11.004 24.609 17.539 2.75-1.7656 5.6289-3.3164 8.6133-4.6367zm-0.93359-62.043c0.085938-0.50391 0.17578-1.0273 0.28906-1.5586-0.054687 0-0.085937 0-0.11328-0.054687-2.1992-1.5586-3.5977-4.0039-3.8281-6.6875-0.69922-2.7344-4.8672-2.668-6.9766-4.0781-3.9609-2.582-1.3516-7.7969 1.4375-11.117v-0.003906c-1.4531 0.0625-2.8711 0.46484-4.1406 1.1758-0.78516 3.9766-0.44922 8.0898 0.96875 11.887s3.8594 7.125 7.0586 9.6133c0.125 0.10156 0.24219 0.20703 0.35547 0.32031 0.42578-0.042968 0.85156 0.039063 1.2305 0.23438 0.17578 0.085937 0.38281 0.14844 0.58594 0.23437 1.0508 0.003907 2.1055 0.003907 3.1328 0.035157zm-7.5977 101.72c-0.96875 0-1.8828 0-2.7344-0.03125-7.5625-0.35547-15.094-1.2695-22.523-2.7344 0.12109 1.6562 0.375 3.3047 0.76562 4.9219 0.375 1.2266 0.64844 2.4844 0.82031 3.7539 7.6406-0.41406 15.297-0.40234 22.934 0.027344-0.054687-0.12109-0.09375-0.25-0.11328-0.38281-0.32031-1.9023-0.019532-3.8594 0.85156-5.582zm-3.8281 75.027c2.1172-5.8086 4.8711-11.348 7.1094-17.129-5.3359-3.4883-10.527-7.2148-16.102-10.352h0.003906c-3.1445 7.6992-8.0469 14.555-14.316 20.02 4.7891 7.582 11.824 13.488 20.125 16.895 1.1406-3.125 2.0508-6.3516 3.1914-9.4609zm0.26953-171.03c-0.12109-0.085937-0.23437-0.20312-0.35547-0.29687-0.054688 0.12109-0.085938 0.23437-0.14844 0.35547-1.4844 4.5586-3.4922 8.9297-5.9805 13.023-0.78906 1.2656-1.7539 2.4141-2.8711 3.4023-0.82422 0.67969-1.3789 0.96875-1.6719 0.79297-0.29688-0.17578-0.26172-0.84766 0.058593-1.8477 0.32422-1 0.78906-2.2852 1.3789-3.9609 1.1445-3.375 2.6953-7.9805 4.4297-13.082 0.32422-0.84766 0.64453-1.6719 0.96875-2.4609-0.54688-0.67969-1.0938-1.3828-1.5859-2.082h-0.003907c-0.37891 2.0469-0.92969 4.0586-1.6406 6.0156-1.8594 5.1758-4.4805 10.047-7.7695 14.457-5.5469 7.4492-9.9141 10.996-10.359 10.613v0.003906c2.1172-4.3789 4.6211-8.5625 7.4805-12.492 2.6953-4.5977 4.8477-9.4844 6.4219-14.574 0.88672-2.6367 1.4414-5.3789 1.6406-8.1523-0.58594 1.0938-1.1719 2.1445-1.7539 3.1133-1.8828 2.8438-3.6953 5.7461-5.3984 8.3555-3.3477 5.2812-6.2188 10.297-9.0078 14.258v-0.003907c-2.1328 3.2109-4.5586 6.2148-7.2461 8.9766-1.9648 1.8203-3.168 2.7344-3.4297 2.4922-0.26172-0.24219 0.46875-1.5273 1.9648-3.75 1.4922-2.2266 3.4609-5.3711 5.7461-9.5039 2.2852-4.1328 4.8711-9.1562 8.0664-14.695 0.76562-1.3789 1.6719-2.7344 2.5547-4.1953 0.87891-1.4609 1.7617-2.8164 2.668-4.2539 1.75-2.8477 3.1875-5.8789 4.2812-9.0352 0.17578-0.58594 0.35156-1.1445 0.54688-1.7266v-0.003906c-0.14844-1.1172-0.23438-2.2422-0.26172-3.3711-6.1289 8.418-11.117 17.57-16.777 26.457-6.8633 10.789-15.898 20.18-21.441 31.719l5.8359 0.085937h-0.003906c1.3164-0.86328 3.0664-0.63281 4.1094 0.54688 5.5742 5.8086 4.4609 9.793-0.11328 12.578 2.1875-0.12109 4.375-0.29688 6.6016-0.49609h-0.003906c5.0078-11.047 13.195-20.352 23.516-26.723 0.76562-0.87109 1.8633-1.375 3.0234-1.3867 1.1562-0.011718 2.2656 0.47266 3.0469 1.3281 0.32422 0.32422 0.61719 0.64453 0.94141 0.96875 1.4688-7.0742 2.3242-14.258 2.5547-21.477zm-7.0586 188.02c0.72656-1.125 1.375-2.3008 1.9336-3.5156-9.0391-3.7539-16.719-10.168-22.027-18.391-2.1289 1.3203-4.4414 2.3164-6.8633 2.957 8.0156 7.5938 17.098 13.977 26.957 18.949zm-4.7188-110.9h-0.003907c2.2617-3.8867 5.0547-7.4414 8.2969-10.559-6.8516-5.6797-14.148-10.797-21.82-15.312l-0.17578 0.35547c-0.375 0.98828-1.0938 1.8086-2.0234 2.3125-0.097656 0.13281-0.20703 0.26172-0.32031 0.38281 7.4766 5.4258 11.73 14.727 16.043 22.82zm-3.8281 58.309h-0.003906c0.16016-0.57813 0.44141-1.1172 0.82031-1.5781-1.7695-2.3867-3.8164-4.5547-6.1016-6.4531-0.78906 1.8945-2.6367 3.1328-4.6914 3.1367 1.0781 1.6641 0.73828 3.8672-0.78906 5.1289-1.207 1.0508-2.7422 1.6445-4.3398 1.6758 0.71484 1.7031 0.46875 3.6602-0.64844 5.1328-0.97656 1.4844-2.6016 2.4102-4.375 2.4961 1.7227 2.5117 1.4766 5.8828-0.58984 8.1211-4.7812 5.6328-13.402 1.1445-18.594-3.5156-0.76172 1.7539-1.4375 3.5156-2.0508 5.3359 2.0352 0.25781 4.0469 0.67969 6.0156 1.2578 0.23437 0.085937 0.46094 0.19531 0.67187 0.32422 0.48438 0.12109 0.94531 0.32812 1.3516 0.61719 1.2031 0.85156 2.375 1.7266 3.5508 2.6406 15.137 5.3359 25.883-11.824 29.754-24.32zm-1.0273-58.219c-4.0469-7.918-8.4766-17.336-16.57-21.086-0.90625 0.11328-1.8477 0.20312-2.7344 0.26172-0.03125 0-0.03125 0-0.03125 0.058593-0.26172 0.46875-0.58594 0.90625-0.87891 1.3789h-0.007812c3.0195 2.8438 4.207 7.125 3.0859 11.117 5.1211 3.8281 10.934 6.6367 17.117 8.2695zm-5.8086 173.79c0.29688-0.20312 0.58594-0.37891 0.87891-0.58594-6.1719-2.7734-12.648-4.8008-19.301-6.043-0.63281 5.6484-1.6523 11.246-3.0508 16.75 7.4531-2.6953 14.637-6.082 21.453-10.121zm-2.0234-126.68c-0.54688-0.49609-1.0938-1-1.6133-1.4648h-0.003907c-3.4297-3.7812-7.4727-6.957-11.965-9.3906-0.76563 1.6406-1.4375 3.2812-2.082 4.9219 3.4297 2.0352 6.7188 4.2969 9.8438 6.7773 2.8438 1.1758 5.25 1.5 5.6875-0.54688 0.023438-0.10156 0.0625-0.20312 0.11328-0.29688zm-0.14844-22.262c-0.11328-0.79297-0.23438-1.5859-0.41016-2.3789-0.33203-1.6445-1.5938-2.9414-3.2266-3.3125-2.6523-0.32422-5.332-0.32422-7.9805 0-0.37109 2.1094-0.96875 4.1758-1.7891 6.1562 4.4414-0.082031 8.9023-0.28906 13.387-0.46484zm-1.4922-9.6211c0-0.085938 0.027344-0.14844 0.027344-0.20703h-0.003907c-3.4492-0.85937-6.8555-1.8945-10.203-3.1055 0.17578 0.92578 0.28516 1.8672 0.32422 2.8125 3.2773-0.49609 6.625-0.32422 9.8359 0.5zm-3.5898 40.301c0.46875-0.20703-1.9922-2.9023-3.8711-4.5781-3.0352-1.5352-5.8828-3.4102-8.4883-5.5938-0.69922 1.875-2.4023 4.0469-0.61328 5.6328 1.0195 0.35938 2.0547 0.66406 3.1055 0.90625 1.2344 0.64453 2.1875 1.8477 3.4609 2.4336h0.003906c1.9062 1.1953 4.1914 1.6211 6.4023 1.1992zm-5.1641 7.0703c0.54687-1.0938-0.54688-2.4062-2.1367-3.6953-3-1.2305-5.8633-2.7734-8.5352-4.6055-0.23437 0.4375-0.4375 0.87891-0.67187 1.3164-0.32422 0.64453-0.70703 1.2891-1.0547 1.9375h-0.003906c2.2305 1.3828 4.375 2.8984 6.4219 4.543 2.6914 1.3086 5.2695 1.9961 5.9727 0.50391zm-4.5547 10.102c1.0273-2.1172-0.73438-4.4609-3.1406-6.5625h0.003906c-2.4922-1.1836-4.8867-2.5703-7.1562-4.1406-1.0938 2.0234-2.1445 4.0508-3.1719 6.1016 3.6094 3.3867 11.328 8.9258 13.465 4.6016zm-2.8594-37.703h-0.058594c-0.39453 0.36328-0.90625 0.55859-1.4414 0.54688-17.859-0.17969-34.402 28.984-17.039 39.977 0.82031-2.3477 1.7891-4.6055 2.8164-6.8359-0.23047-1.0977 0.29688-2.2109 1.2891-2.7344 1.6992-3.3672 3.5508-6.6836 5.3633-10.09 3.6016-6.7266 5.8867-13.945 9.0703-20.863zm-0.32422-44.203c2.8125-6.8633-9.2969-7.9531-15.754-7.5352 0.84766 1.8203 1.5781 3.6875 2.1875 5.6016 4.5312-0.046875 9.0352 0.72656 13.289 2.2852 0.054688-0.11719 0.17578-0.23437 0.26953-0.35156zm-0.94141 12.609c3.0508-1.9375 1.9648-4.6914 0.11328-7.1875l0.003907 0.003906c-0.15234-0.21484-0.26953-0.45312-0.35156-0.70703-3.582-1.3945-7.3867-2.1484-11.23-2.2227 0.64062 2.9336 1.0625 5.9141 1.2578 8.9141 3.3633-0.31641 6.7539 0.17578 9.8867 1.4375 0.10547-0.0625 0.19141-0.17578 0.3125-0.23438zm-3.4883-36.547c2.5469-0.69922 4.375-0.84766 3.6367-2.3477-14.219-0.11328-29.125-1.6406-42.852 2.7891v0.003906c-0.023437 0.79297 0.015625 1.5859 0.11328 2.3711 1.0273 0 2.0547 0 3.0781-0.027344h0.003907c3.9492-1.8242 8.4727-1.9648 12.527-0.38281 4.4258-0.23438 8.8867-0.54688 13.371-0.93359 3.4062-0.21094 6.7891-0.70312 10.113-1.4727zm2.3477 49.629h-9.8125c-0.375 1.9023-0.88672 3.7773-1.5234 5.6055 3.1445-0.26562 6.3125 0.13281 9.2969 1.1719 1.125-2.0977 1.8125-4.4023 2.0273-6.7773zm-9.0781-5.8594h7.7773c-0.50391-0.98047-0.60156-2.1211-0.26953-3.1719-2.3672-0.80078-4.875-1.0898-7.3594-0.84766 0 1.3477-0.054688 2.6953-0.14844 4.0195zm5.0742 145.75c-0.49219-0.10938-0.98828-0.1875-1.4922-0.23438-0.61719 2.4609-1.3242 4.9531-2.0547 7.4219-1.5195 10.125-3.7539 20.133-6.6914 29.945 6.5156-2.0547 9.3594-27.016 10.238-37.133zm-0.20312-124.63c-18.418-7.1094-32.059 25.898-25.785 40.219v0.054688l0.03125 0.03125h0.003906c2.0625 1.8984 4.5742 3.2383 7.3008 3.8984-13.023-13.633 0.41016-39.949 18.449-44.203zm-20.824-74.375c3.4883-0.20703 7.0391-0.20703 10.559-0.17969-0.44141-2.8438-0.85156-5.6875-1.2031-8.5312h0.003906c-3.3477 1.1758-6.8477 1.8672-10.391 2.0508 0.32812 2.2305 0.67578 4.4844 1.0312 6.6562zm8.2969-15.762c0.085938-0.03125 0.17188-0.050782 0.26172-0.054688-2.5469-23.266-3.5156-46.898-6.5625-70.078-4.2852-32.73-9.2617-65.359-14.93-97.891-5.832-33.438-12.215-66.785-19.141-100.05-4.0742-19.566-5.5117-50.859-23.902-63.152v0.003906c0.015626 0.015625 0.023438 0.035156 0.027344 0.058594 0.089844 0.43359 0.11328 0.87891 0.058594 1.3203 18.863 83.711 35.285 168.1 46.484 253.2 3.2812 25.02 4.4297 53.594 7.4805 78.695 3.4961-0.13281 6.9492-0.82422 10.223-2.0586zm-1.7891 234.01c0.91016-3.2266 1.5859-6.5195 2.0234-9.8438-2.2578-0.4375-4.4883-0.93359-6.7422-1.4375 0.88672 4.0078 2.4766 7.8281 4.6914 11.281zm-4.0195-150.35c7.8906-11.676 5.8945-35.902-4.0742-45.992-0.51172-0.48047-0.88672-1.0898-1.0938-1.7617-1.0586-0.46484-2.1875-0.74219-3.3398-0.82031h-1.0273c-1.3516 0.125-2.6289 0.67969-3.6367 1.5859 19.977 8.5977 11.32 36.574-0.41016 50.508v0.003906c-0.57422 0.67578-1.543 0.85938-2.3203 0.4375-3.5078 4.1133-7.3086 7.9688-11.379 11.527-0.42578 0.39844-0.99609 0.60938-1.5781 0.58984-0.58203-0.023438-1.1328-0.27734-1.5312-0.70703-0.058593 0-0.085937 0.027343-0.14844 0.027343h0.003906c-5.2422 0.25781-10.316-1.8633-13.816-5.7734-0.53516-0.6875-0.98828-1.4375-1.3516-2.2305-0.85547 4.7734-0.61719 9.6797 0.70703 14.344 1.6953 4.7109 4.7891 8.793 8.8633 11.703 4.0781 2.9062 8.9453 4.5039 13.953 4.5703 1.5273-1.4688 3.1562-2.8281 4.8711-4.0742 1.0156-12.559 7-24.195 16.633-32.324 0.097656-0.57812 0.32031-1.1289 0.64844-1.6133zm0.085938 152.35h0.003906c-2.0586-3.168-3.5898-6.6445-4.5469-10.297-2.75 2.3242-5.3555 4.8086-7.8047 7.4492 4.1133 0.85156 8.2266 1.8477 12.324 2.8477zm-6.7148-14.578c-4.2812-0.96875-8.5625-1.9375-12.875-2.8164h0.003906c1.2266 3.7305 2.8516 7.3203 4.8398 10.707 2.8945-2.3906 5.5742-5.0312 8.0039-7.8906zm-7.9453-140.14c8.9141-12.496 15.426-34.453-1.3789-40.918v0.003906c-1.1172 1.8281-2.0508 3.7617-2.7891 5.7734-1.2617 4.0781-2.9102 8.0234-4.9219 11.789-0.14844 0.29688-0.35156 0.54688-0.49609 0.79297 2.8984 7.6562 6.5078 14.992 9.5859 22.559zm-3.7227 2.4609c-0.76562-1.9102-1.5273-3.7852-2.3203-5.6328-2.7969 4.2109-6.1406 8.0273-9.9414 11.355 0.58984 1.6523 1.3203 3.2539 2.1875 4.7773 3.5859-3.2852 6.7852-6.9492 10.074-10.5zm-10.938 146.1c3.6367 0.67969 7.3047 1.3789 10.938 2.082-1.1445-3.0508-2.8164-5.8359-4.1328-8.8008l-0.003907 0.003906c-2.1328 2.3711-4.4062 4.6133-6.8086 6.7148zm6.4531-156.62c-0.17578-0.41406-0.35156-0.85156-0.54688-1.2617-2.6562 3.2266-6.0078 5.8164-9.8008 7.5703 0.35547 1.7617 0.70703 3.4883 1.1445 5.2188v-0.003906c3.5664-2.9219 6.4883-6.5586 8.5664-10.676 0.13281-0.33203 0.35156-0.625 0.62891-0.84766zm-2.9922-5.0195c0.18359-0.15625 0.39453-0.28516 0.61719-0.375-0.67969-1.5586-1.2891-3.1133-1.9375-4.6914l0.003906-0.003906c-2.3281 3.1406-4.9102 6.0859-7.7188 8.8008 0.26172 1.0938 0.54688 2.1367 0.76563 3.2266 3.1484-1.8008 5.9492-4.1523 8.2656-6.9453zm-3.418-19.211c0.70703-1.6992 1.3516-3.3672 2.0234-5.0742-7.625 2.1445-15.957 5.9023-23.023 8.1602-11.875 4.6133-23.176 10.578-33.688 17.777l-0.41016 0.23438c0.76562 0.79297 1.4375 1.6406 2.1445 2.4922 17.914-7.2812 34.781-16.867 52.953-23.59zm4.9883 168.74c-3.2812-0.58594-6.6016-1.0547-9.9141-1.4062v0.003906c-0.027344 0.082032-0.070313 0.16406-0.12109 0.23438 0.46484 3.2344 1.3945 6.3867 2.7617 9.3555 2.8984-2.2695 5.3672-5.043 7.2852-8.1875zm-21.707 8.8867c3.6094 0.73438 7.2148 1.4375 10.852 2.1445-0.73047-2.5703-1.6094-5.0977-2.6367-7.5664-2.4336 2.0547-5.5078 3.4609-8.2031 5.4219zm-7.3828-70.129c11.117-7.1523 17.422-18.918 25.703-28.918-5.293-0.97266-10.125-3.6523-13.754-7.625-5.8086 11.73-20.508 15.426-31.566 20.914-6.6445 4.0469-13.953 6.8945-21.582 8.4141 12.133 9.5312 26.121 16.926 41.199 7.2148zm20.066-62.027c-2.4414-6.1719-4.2031-12.59-5.25-19.141-0.82031 0.76562-1.6406 1.5273-2.4922 2.2578h-0.003906c-0.21875 0.43359-0.51953 0.82031-0.87891 1.1445 0.074218 0.35938 0.066406 0.73438-0.027344 1.0938-1.543 3.5664-1.1445 7.6758 1.0547 10.883 2.0039 2.1172 4.6992 3.4531 7.5977 3.7617zm-14.988 128.52c3.375-2.082 7.7695-3.8711 9.5312-7.2188-3.4844-0.43359-6.9336-1.0977-10.328-1.9922 0.070312 0.62891-0.12891 1.2578-0.54688 1.7305-0.058593 0.058594-0.12109 0.085938-0.17578 0.14844h0.003907c0.050781 2.5273 0.56641 5.0234 1.5117 7.3711zm0.85156-151.48c6.0859-4.6484 11.312-10.328 15.438-16.785-16.254 6.4258-31.594 14.902-47.727 21.59v0.003907c0.90234 1.543 1.6719 3.1602 2.293 4.8398 10.117-1.6445 19.969-4.625 29.301-8.8594 0.19922-0.27344 0.43359-0.51953 0.69531-0.73438zm1.0547 42.766c0.125-0.027344 0.25-0.039062 0.37891-0.03125-2.6055-3.8828-4.7227-8.0703-6.3086-12.465-5.9844 3.4023-14.164 7.0391-20.148 3.5781h0.003906c-0.16797 1.125-0.27734 2.2617-0.32422 3.3984 0.11328 1.0938 0.26172 2.2305 0.41016 3.2812 1.4375 3.2539 3.168 6.3945 4.9219 9.5039v0.003906c2.1992-0.35156 4.3594-0.89844 6.4531-1.6406 4.875-1.7891 9.6875-3.8125 14.613-5.5742zm0.37891 4.9531c-0.40234 0.12891-0.83594 0.11719-1.2305-0.027344-13.168 4.375-29.449 7.5977-39.891 15.957v0.003907c-4.3984 3.7852-9.8164 6.1836-15.574 6.8906 0.35156 0.35156 0.70703 0.67188 1.0547 1.0273 7.9453 6.2188 21.148-4.0781 28.629-7.043 8.9141-3.4961 21.672-7.8672 27.012-16.754zm-7.1094 93.516s0.03125 0 0.03125-0.027344c-2.9648-0.73438-5.8945-1.4648-8.832-1.9688-0.26172 2.9961-0.64453 5.9297-1.1445 8.8594 3.5195-1.2266 6.6836-3.3008 9.2109-6.043 0.1875-0.30078 0.44141-0.55469 0.74219-0.74219zm1 12.469c-0.74219-1.8555-1.332-3.7656-1.7617-5.7188-1.9492 1.5469-4.1133 2.8008-6.4258 3.7227 2.7109 0.78516 5.4414 1.457 8.1992 2.0742zm-1.5859-127.74c-1.0703-3.6523-1.75-7.4062-2.0234-11.203-1.6992 0.75391-3.457 1.3828-5.25 1.875-2.7578 0.66016-5.582 0.99609-8.418 1-0.49609 3.8125-1.2109 7.5898-2.1445 11.32 4.7031 4.4727 12.738 0.13672 17.848-2.9141zm-14.066 123.74c0.6875-3.6094 1.1836-7.25 1.4922-10.91-1.3945-0.12109-2.7969-0.15234-4.1953-0.089844-1.7852 2.8164-2.5547 6.1602-2.1875 9.4727 1.6328 0.53125 3.2461 1.0273 4.8906 1.5273zm-5.3711-98.727v-0.003907c-0.99609-1.1992-1.8242-2.5312-2.4609-3.957-0.23828-0.28516-0.39062-0.63281-0.44141-1 0-0.11328-0.027343-0.23438-0.027343-0.35156-0.44922-1.3516-0.74609-2.75-0.88281-4.168-0.22656 0.1875-0.48438 0.33594-0.75781 0.44531-11.852 3.8281-22.91 9.6484-34.73 13.551h-0.003906c0.36328 2.3359 1.2148 4.5742 2.4961 6.5625 1.0586 1.5156 2.1914 2.9766 3.4023 4.375 6.9297-0.097656 13.559-2.8594 18.512-7.7109 2.6836-2.8242 5.9023-5.0898 9.4688-6.6602 1.7852-0.47656 3.5977-0.83984 5.4258-1.0859zm-4.6328-30.156c0.26172-0.93359 0.54688-1.9023 0.87891-2.8164h0.003906c-1.3828 0.09375-2.7539 0.29297-4.1094 0.58984-10.793 1.8164-20.785 6.8594-28.66 14.461 10.359-4.7266 22.121-6.1328 31.887-12.234zm-1.0938 16.867v-0.003906c0.23047-0.074219 0.46875-0.09375 0.70703-0.058594-0.39453-1.3477-0.69922-2.7148-0.91406-4.1016-0.3125-2.2969-0.30078-4.6289 0.035157-6.9219-10.996 5.5391-23.902 6.6289-34.348 13.52 0.20703 3.3125 0.14844 7.1602 0.41016 10.938 11.562-3.8945 22.457-9.5898 34.09-13.375zm-4.0742-26.867v-0.003907c-2.7305-2.7188-4.9219-5.9336-6.4531-9.4727-4.1953 2.1094-8.4766 3.9609-12.82 5.9219 1.8477 2.4336 3.75 4.8398 5.4258 7.4219h0.003906c4.5273-1.5586 9.1445-2.8516 13.824-3.8711zm-18.047 5.5195c-1.6719-2.4922-3.5234-4.8398-5.3359-7.2461v-0.003906c-3.4453 1.1758-6.6211 3.0352-9.3281 5.4688-0.30859 0.33594-0.46484 0.78125-0.4375 1.2344 1.7969 2.0664 3.3242 4.3516 4.543 6.8047 3.2305-2.5352 6.7734-4.6406 10.543-6.2617zm-17.336 13.223v-0.003906c-0.058593-0.082031-0.125-0.16016-0.19922-0.23047-1.9023-2.6367-3.6367-5.3906-5.1953-8.2461-0.78906 0-1.582 0.76562-2.2852 1.5859h-0.003906c0.007812 0.32812-0.03125 0.65234-0.11328 0.96875-1.2031 5.5469-1.0938 16.309 4.3086 20.121-0.12109-1.2891-0.23438-2.6367-0.35156-3.9883h0.003906c-0.71875-1.2812-0.73047-2.8438-0.035156-4.1367 1.125-2.1211 2.4141-4.1523 3.8555-6.0742z"/>
 <path d="m482.34 423.5c0.054688 0.58203-0.003906 1.1719-0.17969 1.7266-0.15234 0.41797-0.40625 0.79297-0.73437 1.0938-0.375 0.39844-0.86719 0.66797-1.4062 0.76172-2.0742 0.26953-4.1758-0.1875-5.9531-1.2891-1.0586-0.51562-2.0859-1.0938-3.0781-1.7305-0.085938 0.26172-0.20703 0.54688-0.32422 0.79297-0.86328 1.6328-2.3594 2.8398-4.1328 3.3438-3.0273 0.53125-6.1445 0.10938-8.9219-1.2031-1.5312-0.62891-3.0234-1.3594-4.457-2.1875-0.60156 0.82422-1.2695 1.5977-1.9961 2.3164-1.1758 1.1641-2.4727 2.1953-3.8711 3.0781-2.3711 1.6094-5.1445 2.5117-8.0078 2.6094-0.64453-0.050781-1.2812-0.16797-1.9023-0.34766-0.57031-0.22266-1.0977-0.53906-1.5586-0.94141-0.68359-0.64453-1.1523-1.4844-1.3438-2.4062-0.12109-1.2305 0.054688-1.875 0.32422-1.9648 0.26953-0.085938 0.67188 0.54688 1.2578 1.5h-0.003906c0.73437 0.94141 1.9531 1.3711 3.1133 1.0938 2.1094-0.57031 4.0703-1.5898 5.7461-2.9922 1.0703-0.82031 2.0625-1.7344 2.9648-2.7344 0.89062-0.91406 1.5781-2.0039 2.0234-3.1992l0.76172-2.9922 2.8164 1.6406c1.9219 1.1445 3.9219 2.1523 5.9805 3.0195 1.8203 0.87109 3.832 1.2461 5.8438 1.0938 0.54297-0.097656 1.0195-0.41797 1.3164-0.87891 0.14844-0.26172 0.26172-0.64453 0.41016-0.96875 0.085938-0.4375 0.14844-0.84766 0.23438-1.2578l0.67188-3.6367 2.6406 1.875c2.2305 1.6406 3.7227 2.9297 5.3086 4.0195h0.003906c1.0742 0.89453 2.3398 1.5352 3.6953 1.875 0.37891 0.085937 0.49609-0.058594 0.82031-0.29688v0.003906c0.22266-0.30859 0.41797-0.63281 0.58594-0.96875 0.23437-0.67188 0.49609-1.0938 0.73437-1.0938 0.23438 0 0.44922 0.36719 0.61719 1.2461z"/>
 <path d="m430.14 348.96h-0.03125l-0.11328 0.085937-1.0273 0.67969h-0.003906c-0.69141 0.47266-1.4844 0.78516-2.3125 0.91016-0.80469 0.16406-1.6289 0.18359-2.4414 0.058594-0.69531-0.10156-1.3789-0.25781-2.0508-0.46875l-1.6719-0.64453-1.4062-0.61719-1.0273-0.41016c-1.2891-0.26172-1.2031-0.38281-2.1094-0.23438-0.76562 0.14844-1.6406 0.41016-2.6133 0.64453l-0.003907-0.003906c-1.168 0.33203-2.3984 0.41406-3.6016 0.23828-1.3398-0.34375-2.4492-1.2812-3.0156-2.543-0.5625-1.2617-0.52344-2.7109 0.10938-3.9375 1.0391-2.6016 3.1953-4.5977 5.8711-5.4336 0.78125-0.22266 1.6172-0.17969 2.3711 0.12109 0.38281 0.26172 0.54688 0.49609 0.49609 0.64453-0.050781 0.14844-0.32422 0.26172-0.79297 0.29687h0.003907c-0.46484 0.19531-0.91406 0.43359-1.3359 0.71094-1.5742 1.1914-2.7266 2.8555-3.2812 4.7539-0.14453 0.375-0.14453 0.79688 0 1.1758l0.14844 0.23437c0.058593-0.058593 0.027343 0 0.12109-0.03125v-0.003906c0.57812-0.074218 1.1484-0.21094 1.6992-0.41016 0.82031-0.26172 1.7266-0.29688 2.9023-0.54688 3.7773-0.90625 6.6289 1.8477 10.031 1.6406 4.6641-0.26953 2.6094-6.3125 1.7617-9.0352v0.003906c-0.64844-1.8516-1.1562-3.7422-1.5273-5.668-0.29688-1.7031-0.53125-3.3164-0.70703-4.8398-0.76172-6.1836 0.67187-10.059 1.2305-9.8828 0.79297 0.14844 0.67969 3.6953 2.2305 9.2383 0.38281 1.4102 0.79297 2.9648 1.2617 4.6367h0.003906c0.50391 1.6992 1.1133 3.3633 1.8164 4.9883 0.88672 2.0938 1.4688 4.3047 1.7344 6.5625 0.16797 1.4805-0.054687 2.9766-0.64453 4.3438-0.35156 0.78906-0.83984 1.5156-1.4414 2.1367l-0.44531 0.44531c-0.13281 0.13281-0.16016 0.16016-0.1875 0.16016zm-19.801-3.6953c0.12109 0.17578 0.09375 0.03125 0.058594 0z"/>
 <path d="m419.5 393.49c-0.058594-0.054688-0.12891-0.09375-0.20703-0.12109z"/>
 <path d="m383.21 473.36c0.085937 0 0.03125 0.14844 0 0.32422z"/>
 <path d="m383.18 473.68v0.32422l-0.058594 0.44141-0.085938-0.058593v-0.28906c-0.003906-0.035156 0.085938-0.23438 0.14453-0.41797z"/>
</svg>
